G04 #@! TF.GenerationSoftware,KiCad,Pcbnew,(5.1.4-0-10_14)*
G04 #@! TF.CreationDate,2019-09-18T11:49:10-05:00*
G04 #@! TF.ProjectId,poePoweredDevice-PD,706f6550-6f77-4657-9265-644465766963,rev?*
G04 #@! TF.SameCoordinates,Original*
G04 #@! TF.FileFunction,Paste,Bot*
G04 #@! TF.FilePolarity,Positive*
%FSLAX46Y46*%
G04 Gerber Fmt 4.6, Leading zero omitted, Abs format (unit mm)*
G04 Created by KiCad (PCBNEW (5.1.4-0-10_14)) date 2019-09-18 11:49:10*
%MOMM*%
%LPD*%
G04 APERTURE LIST*
%ADD10R,3.360000X4.860000*%
%ADD11R,1.390000X1.400000*%
%ADD12C,0.100000*%
%ADD13C,1.250000*%
%ADD14C,0.975000*%
%ADD15C,0.875000*%
%ADD16R,1.200000X0.900000*%
%ADD17C,1.350000*%
%ADD18C,0.300000*%
%ADD19R,0.800000X0.900000*%
%ADD20R,0.775000X1.250000*%
%ADD21R,2.175000X1.125000*%
G04 APERTURE END LIST*
D10*
X180524000Y-136080000D03*
D11*
X179594000Y-132080000D03*
X181444000Y-132080000D03*
D12*
G36*
X168999504Y-103224204D02*
G01*
X169023773Y-103227804D01*
X169047571Y-103233765D01*
X169070671Y-103242030D01*
X169092849Y-103252520D01*
X169113893Y-103265133D01*
X169133598Y-103279747D01*
X169151777Y-103296223D01*
X169168253Y-103314402D01*
X169182867Y-103334107D01*
X169195480Y-103355151D01*
X169205970Y-103377329D01*
X169214235Y-103400429D01*
X169220196Y-103424227D01*
X169223796Y-103448496D01*
X169225000Y-103473000D01*
X169225000Y-104223000D01*
X169223796Y-104247504D01*
X169220196Y-104271773D01*
X169214235Y-104295571D01*
X169205970Y-104318671D01*
X169195480Y-104340849D01*
X169182867Y-104361893D01*
X169168253Y-104381598D01*
X169151777Y-104399777D01*
X169133598Y-104416253D01*
X169113893Y-104430867D01*
X169092849Y-104443480D01*
X169070671Y-104453970D01*
X169047571Y-104462235D01*
X169023773Y-104468196D01*
X168999504Y-104471796D01*
X168975000Y-104473000D01*
X166825000Y-104473000D01*
X166800496Y-104471796D01*
X166776227Y-104468196D01*
X166752429Y-104462235D01*
X166729329Y-104453970D01*
X166707151Y-104443480D01*
X166686107Y-104430867D01*
X166666402Y-104416253D01*
X166648223Y-104399777D01*
X166631747Y-104381598D01*
X166617133Y-104361893D01*
X166604520Y-104340849D01*
X166594030Y-104318671D01*
X166585765Y-104295571D01*
X166579804Y-104271773D01*
X166576204Y-104247504D01*
X166575000Y-104223000D01*
X166575000Y-103473000D01*
X166576204Y-103448496D01*
X166579804Y-103424227D01*
X166585765Y-103400429D01*
X166594030Y-103377329D01*
X166604520Y-103355151D01*
X166617133Y-103334107D01*
X166631747Y-103314402D01*
X166648223Y-103296223D01*
X166666402Y-103279747D01*
X166686107Y-103265133D01*
X166707151Y-103252520D01*
X166729329Y-103242030D01*
X166752429Y-103233765D01*
X166776227Y-103227804D01*
X166800496Y-103224204D01*
X166825000Y-103223000D01*
X168975000Y-103223000D01*
X168999504Y-103224204D01*
X168999504Y-103224204D01*
G37*
D13*
X167900000Y-103848000D03*
D12*
G36*
X168999504Y-106024204D02*
G01*
X169023773Y-106027804D01*
X169047571Y-106033765D01*
X169070671Y-106042030D01*
X169092849Y-106052520D01*
X169113893Y-106065133D01*
X169133598Y-106079747D01*
X169151777Y-106096223D01*
X169168253Y-106114402D01*
X169182867Y-106134107D01*
X169195480Y-106155151D01*
X169205970Y-106177329D01*
X169214235Y-106200429D01*
X169220196Y-106224227D01*
X169223796Y-106248496D01*
X169225000Y-106273000D01*
X169225000Y-107023000D01*
X169223796Y-107047504D01*
X169220196Y-107071773D01*
X169214235Y-107095571D01*
X169205970Y-107118671D01*
X169195480Y-107140849D01*
X169182867Y-107161893D01*
X169168253Y-107181598D01*
X169151777Y-107199777D01*
X169133598Y-107216253D01*
X169113893Y-107230867D01*
X169092849Y-107243480D01*
X169070671Y-107253970D01*
X169047571Y-107262235D01*
X169023773Y-107268196D01*
X168999504Y-107271796D01*
X168975000Y-107273000D01*
X166825000Y-107273000D01*
X166800496Y-107271796D01*
X166776227Y-107268196D01*
X166752429Y-107262235D01*
X166729329Y-107253970D01*
X166707151Y-107243480D01*
X166686107Y-107230867D01*
X166666402Y-107216253D01*
X166648223Y-107199777D01*
X166631747Y-107181598D01*
X166617133Y-107161893D01*
X166604520Y-107140849D01*
X166594030Y-107118671D01*
X166585765Y-107095571D01*
X166579804Y-107071773D01*
X166576204Y-107047504D01*
X166575000Y-107023000D01*
X166575000Y-106273000D01*
X166576204Y-106248496D01*
X166579804Y-106224227D01*
X166585765Y-106200429D01*
X166594030Y-106177329D01*
X166604520Y-106155151D01*
X166617133Y-106134107D01*
X166631747Y-106114402D01*
X166648223Y-106096223D01*
X166666402Y-106079747D01*
X166686107Y-106065133D01*
X166707151Y-106052520D01*
X166729329Y-106042030D01*
X166752429Y-106033765D01*
X166776227Y-106027804D01*
X166800496Y-106024204D01*
X166825000Y-106023000D01*
X168975000Y-106023000D01*
X168999504Y-106024204D01*
X168999504Y-106024204D01*
G37*
D13*
X167900000Y-106648000D03*
D12*
G36*
X165299504Y-106024204D02*
G01*
X165323773Y-106027804D01*
X165347571Y-106033765D01*
X165370671Y-106042030D01*
X165392849Y-106052520D01*
X165413893Y-106065133D01*
X165433598Y-106079747D01*
X165451777Y-106096223D01*
X165468253Y-106114402D01*
X165482867Y-106134107D01*
X165495480Y-106155151D01*
X165505970Y-106177329D01*
X165514235Y-106200429D01*
X165520196Y-106224227D01*
X165523796Y-106248496D01*
X165525000Y-106273000D01*
X165525000Y-107023000D01*
X165523796Y-107047504D01*
X165520196Y-107071773D01*
X165514235Y-107095571D01*
X165505970Y-107118671D01*
X165495480Y-107140849D01*
X165482867Y-107161893D01*
X165468253Y-107181598D01*
X165451777Y-107199777D01*
X165433598Y-107216253D01*
X165413893Y-107230867D01*
X165392849Y-107243480D01*
X165370671Y-107253970D01*
X165347571Y-107262235D01*
X165323773Y-107268196D01*
X165299504Y-107271796D01*
X165275000Y-107273000D01*
X163125000Y-107273000D01*
X163100496Y-107271796D01*
X163076227Y-107268196D01*
X163052429Y-107262235D01*
X163029329Y-107253970D01*
X163007151Y-107243480D01*
X162986107Y-107230867D01*
X162966402Y-107216253D01*
X162948223Y-107199777D01*
X162931747Y-107181598D01*
X162917133Y-107161893D01*
X162904520Y-107140849D01*
X162894030Y-107118671D01*
X162885765Y-107095571D01*
X162879804Y-107071773D01*
X162876204Y-107047504D01*
X162875000Y-107023000D01*
X162875000Y-106273000D01*
X162876204Y-106248496D01*
X162879804Y-106224227D01*
X162885765Y-106200429D01*
X162894030Y-106177329D01*
X162904520Y-106155151D01*
X162917133Y-106134107D01*
X162931747Y-106114402D01*
X162948223Y-106096223D01*
X162966402Y-106079747D01*
X162986107Y-106065133D01*
X163007151Y-106052520D01*
X163029329Y-106042030D01*
X163052429Y-106033765D01*
X163076227Y-106027804D01*
X163100496Y-106024204D01*
X163125000Y-106023000D01*
X165275000Y-106023000D01*
X165299504Y-106024204D01*
X165299504Y-106024204D01*
G37*
D13*
X164200000Y-106648000D03*
D12*
G36*
X165299504Y-103224204D02*
G01*
X165323773Y-103227804D01*
X165347571Y-103233765D01*
X165370671Y-103242030D01*
X165392849Y-103252520D01*
X165413893Y-103265133D01*
X165433598Y-103279747D01*
X165451777Y-103296223D01*
X165468253Y-103314402D01*
X165482867Y-103334107D01*
X165495480Y-103355151D01*
X165505970Y-103377329D01*
X165514235Y-103400429D01*
X165520196Y-103424227D01*
X165523796Y-103448496D01*
X165525000Y-103473000D01*
X165525000Y-104223000D01*
X165523796Y-104247504D01*
X165520196Y-104271773D01*
X165514235Y-104295571D01*
X165505970Y-104318671D01*
X165495480Y-104340849D01*
X165482867Y-104361893D01*
X165468253Y-104381598D01*
X165451777Y-104399777D01*
X165433598Y-104416253D01*
X165413893Y-104430867D01*
X165392849Y-104443480D01*
X165370671Y-104453970D01*
X165347571Y-104462235D01*
X165323773Y-104468196D01*
X165299504Y-104471796D01*
X165275000Y-104473000D01*
X163125000Y-104473000D01*
X163100496Y-104471796D01*
X163076227Y-104468196D01*
X163052429Y-104462235D01*
X163029329Y-104453970D01*
X163007151Y-104443480D01*
X162986107Y-104430867D01*
X162966402Y-104416253D01*
X162948223Y-104399777D01*
X162931747Y-104381598D01*
X162917133Y-104361893D01*
X162904520Y-104340849D01*
X162894030Y-104318671D01*
X162885765Y-104295571D01*
X162879804Y-104271773D01*
X162876204Y-104247504D01*
X162875000Y-104223000D01*
X162875000Y-103473000D01*
X162876204Y-103448496D01*
X162879804Y-103424227D01*
X162885765Y-103400429D01*
X162894030Y-103377329D01*
X162904520Y-103355151D01*
X162917133Y-103334107D01*
X162931747Y-103314402D01*
X162948223Y-103296223D01*
X162966402Y-103279747D01*
X162986107Y-103265133D01*
X163007151Y-103252520D01*
X163029329Y-103242030D01*
X163052429Y-103233765D01*
X163076227Y-103227804D01*
X163100496Y-103224204D01*
X163125000Y-103223000D01*
X165275000Y-103223000D01*
X165299504Y-103224204D01*
X165299504Y-103224204D01*
G37*
D13*
X164200000Y-103848000D03*
D12*
G36*
X161799504Y-103224204D02*
G01*
X161823773Y-103227804D01*
X161847571Y-103233765D01*
X161870671Y-103242030D01*
X161892849Y-103252520D01*
X161913893Y-103265133D01*
X161933598Y-103279747D01*
X161951777Y-103296223D01*
X161968253Y-103314402D01*
X161982867Y-103334107D01*
X161995480Y-103355151D01*
X162005970Y-103377329D01*
X162014235Y-103400429D01*
X162020196Y-103424227D01*
X162023796Y-103448496D01*
X162025000Y-103473000D01*
X162025000Y-104223000D01*
X162023796Y-104247504D01*
X162020196Y-104271773D01*
X162014235Y-104295571D01*
X162005970Y-104318671D01*
X161995480Y-104340849D01*
X161982867Y-104361893D01*
X161968253Y-104381598D01*
X161951777Y-104399777D01*
X161933598Y-104416253D01*
X161913893Y-104430867D01*
X161892849Y-104443480D01*
X161870671Y-104453970D01*
X161847571Y-104462235D01*
X161823773Y-104468196D01*
X161799504Y-104471796D01*
X161775000Y-104473000D01*
X159625000Y-104473000D01*
X159600496Y-104471796D01*
X159576227Y-104468196D01*
X159552429Y-104462235D01*
X159529329Y-104453970D01*
X159507151Y-104443480D01*
X159486107Y-104430867D01*
X159466402Y-104416253D01*
X159448223Y-104399777D01*
X159431747Y-104381598D01*
X159417133Y-104361893D01*
X159404520Y-104340849D01*
X159394030Y-104318671D01*
X159385765Y-104295571D01*
X159379804Y-104271773D01*
X159376204Y-104247504D01*
X159375000Y-104223000D01*
X159375000Y-103473000D01*
X159376204Y-103448496D01*
X159379804Y-103424227D01*
X159385765Y-103400429D01*
X159394030Y-103377329D01*
X159404520Y-103355151D01*
X159417133Y-103334107D01*
X159431747Y-103314402D01*
X159448223Y-103296223D01*
X159466402Y-103279747D01*
X159486107Y-103265133D01*
X159507151Y-103252520D01*
X159529329Y-103242030D01*
X159552429Y-103233765D01*
X159576227Y-103227804D01*
X159600496Y-103224204D01*
X159625000Y-103223000D01*
X161775000Y-103223000D01*
X161799504Y-103224204D01*
X161799504Y-103224204D01*
G37*
D13*
X160700000Y-103848000D03*
D12*
G36*
X161799504Y-106024204D02*
G01*
X161823773Y-106027804D01*
X161847571Y-106033765D01*
X161870671Y-106042030D01*
X161892849Y-106052520D01*
X161913893Y-106065133D01*
X161933598Y-106079747D01*
X161951777Y-106096223D01*
X161968253Y-106114402D01*
X161982867Y-106134107D01*
X161995480Y-106155151D01*
X162005970Y-106177329D01*
X162014235Y-106200429D01*
X162020196Y-106224227D01*
X162023796Y-106248496D01*
X162025000Y-106273000D01*
X162025000Y-107023000D01*
X162023796Y-107047504D01*
X162020196Y-107071773D01*
X162014235Y-107095571D01*
X162005970Y-107118671D01*
X161995480Y-107140849D01*
X161982867Y-107161893D01*
X161968253Y-107181598D01*
X161951777Y-107199777D01*
X161933598Y-107216253D01*
X161913893Y-107230867D01*
X161892849Y-107243480D01*
X161870671Y-107253970D01*
X161847571Y-107262235D01*
X161823773Y-107268196D01*
X161799504Y-107271796D01*
X161775000Y-107273000D01*
X159625000Y-107273000D01*
X159600496Y-107271796D01*
X159576227Y-107268196D01*
X159552429Y-107262235D01*
X159529329Y-107253970D01*
X159507151Y-107243480D01*
X159486107Y-107230867D01*
X159466402Y-107216253D01*
X159448223Y-107199777D01*
X159431747Y-107181598D01*
X159417133Y-107161893D01*
X159404520Y-107140849D01*
X159394030Y-107118671D01*
X159385765Y-107095571D01*
X159379804Y-107071773D01*
X159376204Y-107047504D01*
X159375000Y-107023000D01*
X159375000Y-106273000D01*
X159376204Y-106248496D01*
X159379804Y-106224227D01*
X159385765Y-106200429D01*
X159394030Y-106177329D01*
X159404520Y-106155151D01*
X159417133Y-106134107D01*
X159431747Y-106114402D01*
X159448223Y-106096223D01*
X159466402Y-106079747D01*
X159486107Y-106065133D01*
X159507151Y-106052520D01*
X159529329Y-106042030D01*
X159552429Y-106033765D01*
X159576227Y-106027804D01*
X159600496Y-106024204D01*
X159625000Y-106023000D01*
X161775000Y-106023000D01*
X161799504Y-106024204D01*
X161799504Y-106024204D01*
G37*
D13*
X160700000Y-106648000D03*
D12*
G36*
X171076304Y-135745804D02*
G01*
X171100573Y-135749404D01*
X171124371Y-135755365D01*
X171147471Y-135763630D01*
X171169649Y-135774120D01*
X171190693Y-135786733D01*
X171210398Y-135801347D01*
X171228577Y-135817823D01*
X171245053Y-135836002D01*
X171259667Y-135855707D01*
X171272280Y-135876751D01*
X171282770Y-135898929D01*
X171291035Y-135922029D01*
X171296996Y-135945827D01*
X171300596Y-135970096D01*
X171301800Y-135994600D01*
X171301800Y-136744600D01*
X171300596Y-136769104D01*
X171296996Y-136793373D01*
X171291035Y-136817171D01*
X171282770Y-136840271D01*
X171272280Y-136862449D01*
X171259667Y-136883493D01*
X171245053Y-136903198D01*
X171228577Y-136921377D01*
X171210398Y-136937853D01*
X171190693Y-136952467D01*
X171169649Y-136965080D01*
X171147471Y-136975570D01*
X171124371Y-136983835D01*
X171100573Y-136989796D01*
X171076304Y-136993396D01*
X171051800Y-136994600D01*
X168901800Y-136994600D01*
X168877296Y-136993396D01*
X168853027Y-136989796D01*
X168829229Y-136983835D01*
X168806129Y-136975570D01*
X168783951Y-136965080D01*
X168762907Y-136952467D01*
X168743202Y-136937853D01*
X168725023Y-136921377D01*
X168708547Y-136903198D01*
X168693933Y-136883493D01*
X168681320Y-136862449D01*
X168670830Y-136840271D01*
X168662565Y-136817171D01*
X168656604Y-136793373D01*
X168653004Y-136769104D01*
X168651800Y-136744600D01*
X168651800Y-135994600D01*
X168653004Y-135970096D01*
X168656604Y-135945827D01*
X168662565Y-135922029D01*
X168670830Y-135898929D01*
X168681320Y-135876751D01*
X168693933Y-135855707D01*
X168708547Y-135836002D01*
X168725023Y-135817823D01*
X168743202Y-135801347D01*
X168762907Y-135786733D01*
X168783951Y-135774120D01*
X168806129Y-135763630D01*
X168829229Y-135755365D01*
X168853027Y-135749404D01*
X168877296Y-135745804D01*
X168901800Y-135744600D01*
X171051800Y-135744600D01*
X171076304Y-135745804D01*
X171076304Y-135745804D01*
G37*
D13*
X169976800Y-136369600D03*
D12*
G36*
X171076304Y-138545804D02*
G01*
X171100573Y-138549404D01*
X171124371Y-138555365D01*
X171147471Y-138563630D01*
X171169649Y-138574120D01*
X171190693Y-138586733D01*
X171210398Y-138601347D01*
X171228577Y-138617823D01*
X171245053Y-138636002D01*
X171259667Y-138655707D01*
X171272280Y-138676751D01*
X171282770Y-138698929D01*
X171291035Y-138722029D01*
X171296996Y-138745827D01*
X171300596Y-138770096D01*
X171301800Y-138794600D01*
X171301800Y-139544600D01*
X171300596Y-139569104D01*
X171296996Y-139593373D01*
X171291035Y-139617171D01*
X171282770Y-139640271D01*
X171272280Y-139662449D01*
X171259667Y-139683493D01*
X171245053Y-139703198D01*
X171228577Y-139721377D01*
X171210398Y-139737853D01*
X171190693Y-139752467D01*
X171169649Y-139765080D01*
X171147471Y-139775570D01*
X171124371Y-139783835D01*
X171100573Y-139789796D01*
X171076304Y-139793396D01*
X171051800Y-139794600D01*
X168901800Y-139794600D01*
X168877296Y-139793396D01*
X168853027Y-139789796D01*
X168829229Y-139783835D01*
X168806129Y-139775570D01*
X168783951Y-139765080D01*
X168762907Y-139752467D01*
X168743202Y-139737853D01*
X168725023Y-139721377D01*
X168708547Y-139703198D01*
X168693933Y-139683493D01*
X168681320Y-139662449D01*
X168670830Y-139640271D01*
X168662565Y-139617171D01*
X168656604Y-139593373D01*
X168653004Y-139569104D01*
X168651800Y-139544600D01*
X168651800Y-138794600D01*
X168653004Y-138770096D01*
X168656604Y-138745827D01*
X168662565Y-138722029D01*
X168670830Y-138698929D01*
X168681320Y-138676751D01*
X168693933Y-138655707D01*
X168708547Y-138636002D01*
X168725023Y-138617823D01*
X168743202Y-138601347D01*
X168762907Y-138586733D01*
X168783951Y-138574120D01*
X168806129Y-138563630D01*
X168829229Y-138555365D01*
X168853027Y-138549404D01*
X168877296Y-138545804D01*
X168901800Y-138544600D01*
X171051800Y-138544600D01*
X171076304Y-138545804D01*
X171076304Y-138545804D01*
G37*
D13*
X169976800Y-139169600D03*
D12*
G36*
X177518142Y-131621374D02*
G01*
X177541803Y-131624884D01*
X177565007Y-131630696D01*
X177587529Y-131638754D01*
X177609153Y-131648982D01*
X177629670Y-131661279D01*
X177648883Y-131675529D01*
X177666607Y-131691593D01*
X177682671Y-131709317D01*
X177696921Y-131728530D01*
X177709218Y-131749047D01*
X177719446Y-131770671D01*
X177727504Y-131793193D01*
X177733316Y-131816397D01*
X177736826Y-131840058D01*
X177738000Y-131863950D01*
X177738000Y-132351450D01*
X177736826Y-132375342D01*
X177733316Y-132399003D01*
X177727504Y-132422207D01*
X177719446Y-132444729D01*
X177709218Y-132466353D01*
X177696921Y-132486870D01*
X177682671Y-132506083D01*
X177666607Y-132523807D01*
X177648883Y-132539871D01*
X177629670Y-132554121D01*
X177609153Y-132566418D01*
X177587529Y-132576646D01*
X177565007Y-132584704D01*
X177541803Y-132590516D01*
X177518142Y-132594026D01*
X177494250Y-132595200D01*
X176581750Y-132595200D01*
X176557858Y-132594026D01*
X176534197Y-132590516D01*
X176510993Y-132584704D01*
X176488471Y-132576646D01*
X176466847Y-132566418D01*
X176446330Y-132554121D01*
X176427117Y-132539871D01*
X176409393Y-132523807D01*
X176393329Y-132506083D01*
X176379079Y-132486870D01*
X176366782Y-132466353D01*
X176356554Y-132444729D01*
X176348496Y-132422207D01*
X176342684Y-132399003D01*
X176339174Y-132375342D01*
X176338000Y-132351450D01*
X176338000Y-131863950D01*
X176339174Y-131840058D01*
X176342684Y-131816397D01*
X176348496Y-131793193D01*
X176356554Y-131770671D01*
X176366782Y-131749047D01*
X176379079Y-131728530D01*
X176393329Y-131709317D01*
X176409393Y-131691593D01*
X176427117Y-131675529D01*
X176446330Y-131661279D01*
X176466847Y-131648982D01*
X176488471Y-131638754D01*
X176510993Y-131630696D01*
X176534197Y-131624884D01*
X176557858Y-131621374D01*
X176581750Y-131620200D01*
X177494250Y-131620200D01*
X177518142Y-131621374D01*
X177518142Y-131621374D01*
G37*
D14*
X177038000Y-132107700D03*
D12*
G36*
X177518142Y-133496374D02*
G01*
X177541803Y-133499884D01*
X177565007Y-133505696D01*
X177587529Y-133513754D01*
X177609153Y-133523982D01*
X177629670Y-133536279D01*
X177648883Y-133550529D01*
X177666607Y-133566593D01*
X177682671Y-133584317D01*
X177696921Y-133603530D01*
X177709218Y-133624047D01*
X177719446Y-133645671D01*
X177727504Y-133668193D01*
X177733316Y-133691397D01*
X177736826Y-133715058D01*
X177738000Y-133738950D01*
X177738000Y-134226450D01*
X177736826Y-134250342D01*
X177733316Y-134274003D01*
X177727504Y-134297207D01*
X177719446Y-134319729D01*
X177709218Y-134341353D01*
X177696921Y-134361870D01*
X177682671Y-134381083D01*
X177666607Y-134398807D01*
X177648883Y-134414871D01*
X177629670Y-134429121D01*
X177609153Y-134441418D01*
X177587529Y-134451646D01*
X177565007Y-134459704D01*
X177541803Y-134465516D01*
X177518142Y-134469026D01*
X177494250Y-134470200D01*
X176581750Y-134470200D01*
X176557858Y-134469026D01*
X176534197Y-134465516D01*
X176510993Y-134459704D01*
X176488471Y-134451646D01*
X176466847Y-134441418D01*
X176446330Y-134429121D01*
X176427117Y-134414871D01*
X176409393Y-134398807D01*
X176393329Y-134381083D01*
X176379079Y-134361870D01*
X176366782Y-134341353D01*
X176356554Y-134319729D01*
X176348496Y-134297207D01*
X176342684Y-134274003D01*
X176339174Y-134250342D01*
X176338000Y-134226450D01*
X176338000Y-133738950D01*
X176339174Y-133715058D01*
X176342684Y-133691397D01*
X176348496Y-133668193D01*
X176356554Y-133645671D01*
X176366782Y-133624047D01*
X176379079Y-133603530D01*
X176393329Y-133584317D01*
X176409393Y-133566593D01*
X176427117Y-133550529D01*
X176446330Y-133536279D01*
X176466847Y-133523982D01*
X176488471Y-133513754D01*
X176510993Y-133505696D01*
X176534197Y-133499884D01*
X176557858Y-133496374D01*
X176581750Y-133495200D01*
X177494250Y-133495200D01*
X177518142Y-133496374D01*
X177518142Y-133496374D01*
G37*
D14*
X177038000Y-133982700D03*
D12*
G36*
X168794342Y-130847774D02*
G01*
X168818003Y-130851284D01*
X168841207Y-130857096D01*
X168863729Y-130865154D01*
X168885353Y-130875382D01*
X168905870Y-130887679D01*
X168925083Y-130901929D01*
X168942807Y-130917993D01*
X168958871Y-130935717D01*
X168973121Y-130954930D01*
X168985418Y-130975447D01*
X168995646Y-130997071D01*
X169003704Y-131019593D01*
X169009516Y-131042797D01*
X169013026Y-131066458D01*
X169014200Y-131090350D01*
X169014200Y-132002850D01*
X169013026Y-132026742D01*
X169009516Y-132050403D01*
X169003704Y-132073607D01*
X168995646Y-132096129D01*
X168985418Y-132117753D01*
X168973121Y-132138270D01*
X168958871Y-132157483D01*
X168942807Y-132175207D01*
X168925083Y-132191271D01*
X168905870Y-132205521D01*
X168885353Y-132217818D01*
X168863729Y-132228046D01*
X168841207Y-132236104D01*
X168818003Y-132241916D01*
X168794342Y-132245426D01*
X168770450Y-132246600D01*
X168282950Y-132246600D01*
X168259058Y-132245426D01*
X168235397Y-132241916D01*
X168212193Y-132236104D01*
X168189671Y-132228046D01*
X168168047Y-132217818D01*
X168147530Y-132205521D01*
X168128317Y-132191271D01*
X168110593Y-132175207D01*
X168094529Y-132157483D01*
X168080279Y-132138270D01*
X168067982Y-132117753D01*
X168057754Y-132096129D01*
X168049696Y-132073607D01*
X168043884Y-132050403D01*
X168040374Y-132026742D01*
X168039200Y-132002850D01*
X168039200Y-131090350D01*
X168040374Y-131066458D01*
X168043884Y-131042797D01*
X168049696Y-131019593D01*
X168057754Y-130997071D01*
X168067982Y-130975447D01*
X168080279Y-130954930D01*
X168094529Y-130935717D01*
X168110593Y-130917993D01*
X168128317Y-130901929D01*
X168147530Y-130887679D01*
X168168047Y-130875382D01*
X168189671Y-130865154D01*
X168212193Y-130857096D01*
X168235397Y-130851284D01*
X168259058Y-130847774D01*
X168282950Y-130846600D01*
X168770450Y-130846600D01*
X168794342Y-130847774D01*
X168794342Y-130847774D01*
G37*
D14*
X168526700Y-131546600D03*
D12*
G36*
X166919342Y-130847774D02*
G01*
X166943003Y-130851284D01*
X166966207Y-130857096D01*
X166988729Y-130865154D01*
X167010353Y-130875382D01*
X167030870Y-130887679D01*
X167050083Y-130901929D01*
X167067807Y-130917993D01*
X167083871Y-130935717D01*
X167098121Y-130954930D01*
X167110418Y-130975447D01*
X167120646Y-130997071D01*
X167128704Y-131019593D01*
X167134516Y-131042797D01*
X167138026Y-131066458D01*
X167139200Y-131090350D01*
X167139200Y-132002850D01*
X167138026Y-132026742D01*
X167134516Y-132050403D01*
X167128704Y-132073607D01*
X167120646Y-132096129D01*
X167110418Y-132117753D01*
X167098121Y-132138270D01*
X167083871Y-132157483D01*
X167067807Y-132175207D01*
X167050083Y-132191271D01*
X167030870Y-132205521D01*
X167010353Y-132217818D01*
X166988729Y-132228046D01*
X166966207Y-132236104D01*
X166943003Y-132241916D01*
X166919342Y-132245426D01*
X166895450Y-132246600D01*
X166407950Y-132246600D01*
X166384058Y-132245426D01*
X166360397Y-132241916D01*
X166337193Y-132236104D01*
X166314671Y-132228046D01*
X166293047Y-132217818D01*
X166272530Y-132205521D01*
X166253317Y-132191271D01*
X166235593Y-132175207D01*
X166219529Y-132157483D01*
X166205279Y-132138270D01*
X166192982Y-132117753D01*
X166182754Y-132096129D01*
X166174696Y-132073607D01*
X166168884Y-132050403D01*
X166165374Y-132026742D01*
X166164200Y-132002850D01*
X166164200Y-131090350D01*
X166165374Y-131066458D01*
X166168884Y-131042797D01*
X166174696Y-131019593D01*
X166182754Y-130997071D01*
X166192982Y-130975447D01*
X166205279Y-130954930D01*
X166219529Y-130935717D01*
X166235593Y-130917993D01*
X166253317Y-130901929D01*
X166272530Y-130887679D01*
X166293047Y-130875382D01*
X166314671Y-130865154D01*
X166337193Y-130857096D01*
X166360397Y-130851284D01*
X166384058Y-130847774D01*
X166407950Y-130846600D01*
X166895450Y-130846600D01*
X166919342Y-130847774D01*
X166919342Y-130847774D01*
G37*
D14*
X166651700Y-131546600D03*
D12*
G36*
X176753691Y-101392053D02*
G01*
X176774926Y-101395203D01*
X176795750Y-101400419D01*
X176815962Y-101407651D01*
X176835368Y-101416830D01*
X176853781Y-101427866D01*
X176871024Y-101440654D01*
X176886930Y-101455070D01*
X176901346Y-101470976D01*
X176914134Y-101488219D01*
X176925170Y-101506632D01*
X176934349Y-101526038D01*
X176941581Y-101546250D01*
X176946797Y-101567074D01*
X176949947Y-101588309D01*
X176951000Y-101609750D01*
X176951000Y-102047250D01*
X176949947Y-102068691D01*
X176946797Y-102089926D01*
X176941581Y-102110750D01*
X176934349Y-102130962D01*
X176925170Y-102150368D01*
X176914134Y-102168781D01*
X176901346Y-102186024D01*
X176886930Y-102201930D01*
X176871024Y-102216346D01*
X176853781Y-102229134D01*
X176835368Y-102240170D01*
X176815962Y-102249349D01*
X176795750Y-102256581D01*
X176774926Y-102261797D01*
X176753691Y-102264947D01*
X176732250Y-102266000D01*
X176219750Y-102266000D01*
X176198309Y-102264947D01*
X176177074Y-102261797D01*
X176156250Y-102256581D01*
X176136038Y-102249349D01*
X176116632Y-102240170D01*
X176098219Y-102229134D01*
X176080976Y-102216346D01*
X176065070Y-102201930D01*
X176050654Y-102186024D01*
X176037866Y-102168781D01*
X176026830Y-102150368D01*
X176017651Y-102130962D01*
X176010419Y-102110750D01*
X176005203Y-102089926D01*
X176002053Y-102068691D01*
X176001000Y-102047250D01*
X176001000Y-101609750D01*
X176002053Y-101588309D01*
X176005203Y-101567074D01*
X176010419Y-101546250D01*
X176017651Y-101526038D01*
X176026830Y-101506632D01*
X176037866Y-101488219D01*
X176050654Y-101470976D01*
X176065070Y-101455070D01*
X176080976Y-101440654D01*
X176098219Y-101427866D01*
X176116632Y-101416830D01*
X176136038Y-101407651D01*
X176156250Y-101400419D01*
X176177074Y-101395203D01*
X176198309Y-101392053D01*
X176219750Y-101391000D01*
X176732250Y-101391000D01*
X176753691Y-101392053D01*
X176753691Y-101392053D01*
G37*
D15*
X176476000Y-101828500D03*
D12*
G36*
X176753691Y-102967053D02*
G01*
X176774926Y-102970203D01*
X176795750Y-102975419D01*
X176815962Y-102982651D01*
X176835368Y-102991830D01*
X176853781Y-103002866D01*
X176871024Y-103015654D01*
X176886930Y-103030070D01*
X176901346Y-103045976D01*
X176914134Y-103063219D01*
X176925170Y-103081632D01*
X176934349Y-103101038D01*
X176941581Y-103121250D01*
X176946797Y-103142074D01*
X176949947Y-103163309D01*
X176951000Y-103184750D01*
X176951000Y-103622250D01*
X176949947Y-103643691D01*
X176946797Y-103664926D01*
X176941581Y-103685750D01*
X176934349Y-103705962D01*
X176925170Y-103725368D01*
X176914134Y-103743781D01*
X176901346Y-103761024D01*
X176886930Y-103776930D01*
X176871024Y-103791346D01*
X176853781Y-103804134D01*
X176835368Y-103815170D01*
X176815962Y-103824349D01*
X176795750Y-103831581D01*
X176774926Y-103836797D01*
X176753691Y-103839947D01*
X176732250Y-103841000D01*
X176219750Y-103841000D01*
X176198309Y-103839947D01*
X176177074Y-103836797D01*
X176156250Y-103831581D01*
X176136038Y-103824349D01*
X176116632Y-103815170D01*
X176098219Y-103804134D01*
X176080976Y-103791346D01*
X176065070Y-103776930D01*
X176050654Y-103761024D01*
X176037866Y-103743781D01*
X176026830Y-103725368D01*
X176017651Y-103705962D01*
X176010419Y-103685750D01*
X176005203Y-103664926D01*
X176002053Y-103643691D01*
X176001000Y-103622250D01*
X176001000Y-103184750D01*
X176002053Y-103163309D01*
X176005203Y-103142074D01*
X176010419Y-103121250D01*
X176017651Y-103101038D01*
X176026830Y-103081632D01*
X176037866Y-103063219D01*
X176050654Y-103045976D01*
X176065070Y-103030070D01*
X176080976Y-103015654D01*
X176098219Y-103002866D01*
X176116632Y-102991830D01*
X176136038Y-102982651D01*
X176156250Y-102975419D01*
X176177074Y-102970203D01*
X176198309Y-102967053D01*
X176219750Y-102966000D01*
X176732250Y-102966000D01*
X176753691Y-102967053D01*
X176753691Y-102967053D01*
G37*
D15*
X176476000Y-103403500D03*
D12*
G36*
X180351691Y-99602053D02*
G01*
X180372926Y-99605203D01*
X180393750Y-99610419D01*
X180413962Y-99617651D01*
X180433368Y-99626830D01*
X180451781Y-99637866D01*
X180469024Y-99650654D01*
X180484930Y-99665070D01*
X180499346Y-99680976D01*
X180512134Y-99698219D01*
X180523170Y-99716632D01*
X180532349Y-99736038D01*
X180539581Y-99756250D01*
X180544797Y-99777074D01*
X180547947Y-99798309D01*
X180549000Y-99819750D01*
X180549000Y-100332250D01*
X180547947Y-100353691D01*
X180544797Y-100374926D01*
X180539581Y-100395750D01*
X180532349Y-100415962D01*
X180523170Y-100435368D01*
X180512134Y-100453781D01*
X180499346Y-100471024D01*
X180484930Y-100486930D01*
X180469024Y-100501346D01*
X180451781Y-100514134D01*
X180433368Y-100525170D01*
X180413962Y-100534349D01*
X180393750Y-100541581D01*
X180372926Y-100546797D01*
X180351691Y-100549947D01*
X180330250Y-100551000D01*
X179892750Y-100551000D01*
X179871309Y-100549947D01*
X179850074Y-100546797D01*
X179829250Y-100541581D01*
X179809038Y-100534349D01*
X179789632Y-100525170D01*
X179771219Y-100514134D01*
X179753976Y-100501346D01*
X179738070Y-100486930D01*
X179723654Y-100471024D01*
X179710866Y-100453781D01*
X179699830Y-100435368D01*
X179690651Y-100415962D01*
X179683419Y-100395750D01*
X179678203Y-100374926D01*
X179675053Y-100353691D01*
X179674000Y-100332250D01*
X179674000Y-99819750D01*
X179675053Y-99798309D01*
X179678203Y-99777074D01*
X179683419Y-99756250D01*
X179690651Y-99736038D01*
X179699830Y-99716632D01*
X179710866Y-99698219D01*
X179723654Y-99680976D01*
X179738070Y-99665070D01*
X179753976Y-99650654D01*
X179771219Y-99637866D01*
X179789632Y-99626830D01*
X179809038Y-99617651D01*
X179829250Y-99610419D01*
X179850074Y-99605203D01*
X179871309Y-99602053D01*
X179892750Y-99601000D01*
X180330250Y-99601000D01*
X180351691Y-99602053D01*
X180351691Y-99602053D01*
G37*
D15*
X180111500Y-100076000D03*
D12*
G36*
X178776691Y-99602053D02*
G01*
X178797926Y-99605203D01*
X178818750Y-99610419D01*
X178838962Y-99617651D01*
X178858368Y-99626830D01*
X178876781Y-99637866D01*
X178894024Y-99650654D01*
X178909930Y-99665070D01*
X178924346Y-99680976D01*
X178937134Y-99698219D01*
X178948170Y-99716632D01*
X178957349Y-99736038D01*
X178964581Y-99756250D01*
X178969797Y-99777074D01*
X178972947Y-99798309D01*
X178974000Y-99819750D01*
X178974000Y-100332250D01*
X178972947Y-100353691D01*
X178969797Y-100374926D01*
X178964581Y-100395750D01*
X178957349Y-100415962D01*
X178948170Y-100435368D01*
X178937134Y-100453781D01*
X178924346Y-100471024D01*
X178909930Y-100486930D01*
X178894024Y-100501346D01*
X178876781Y-100514134D01*
X178858368Y-100525170D01*
X178838962Y-100534349D01*
X178818750Y-100541581D01*
X178797926Y-100546797D01*
X178776691Y-100549947D01*
X178755250Y-100551000D01*
X178317750Y-100551000D01*
X178296309Y-100549947D01*
X178275074Y-100546797D01*
X178254250Y-100541581D01*
X178234038Y-100534349D01*
X178214632Y-100525170D01*
X178196219Y-100514134D01*
X178178976Y-100501346D01*
X178163070Y-100486930D01*
X178148654Y-100471024D01*
X178135866Y-100453781D01*
X178124830Y-100435368D01*
X178115651Y-100415962D01*
X178108419Y-100395750D01*
X178103203Y-100374926D01*
X178100053Y-100353691D01*
X178099000Y-100332250D01*
X178099000Y-99819750D01*
X178100053Y-99798309D01*
X178103203Y-99777074D01*
X178108419Y-99756250D01*
X178115651Y-99736038D01*
X178124830Y-99716632D01*
X178135866Y-99698219D01*
X178148654Y-99680976D01*
X178163070Y-99665070D01*
X178178976Y-99650654D01*
X178196219Y-99637866D01*
X178214632Y-99626830D01*
X178234038Y-99617651D01*
X178254250Y-99610419D01*
X178275074Y-99605203D01*
X178296309Y-99602053D01*
X178317750Y-99601000D01*
X178755250Y-99601000D01*
X178776691Y-99602053D01*
X178776691Y-99602053D01*
G37*
D15*
X178536500Y-100076000D03*
D12*
G36*
X175041691Y-97836053D02*
G01*
X175062926Y-97839203D01*
X175083750Y-97844419D01*
X175103962Y-97851651D01*
X175123368Y-97860830D01*
X175141781Y-97871866D01*
X175159024Y-97884654D01*
X175174930Y-97899070D01*
X175189346Y-97914976D01*
X175202134Y-97932219D01*
X175213170Y-97950632D01*
X175222349Y-97970038D01*
X175229581Y-97990250D01*
X175234797Y-98011074D01*
X175237947Y-98032309D01*
X175239000Y-98053750D01*
X175239000Y-98491250D01*
X175237947Y-98512691D01*
X175234797Y-98533926D01*
X175229581Y-98554750D01*
X175222349Y-98574962D01*
X175213170Y-98594368D01*
X175202134Y-98612781D01*
X175189346Y-98630024D01*
X175174930Y-98645930D01*
X175159024Y-98660346D01*
X175141781Y-98673134D01*
X175123368Y-98684170D01*
X175103962Y-98693349D01*
X175083750Y-98700581D01*
X175062926Y-98705797D01*
X175041691Y-98708947D01*
X175020250Y-98710000D01*
X174507750Y-98710000D01*
X174486309Y-98708947D01*
X174465074Y-98705797D01*
X174444250Y-98700581D01*
X174424038Y-98693349D01*
X174404632Y-98684170D01*
X174386219Y-98673134D01*
X174368976Y-98660346D01*
X174353070Y-98645930D01*
X174338654Y-98630024D01*
X174325866Y-98612781D01*
X174314830Y-98594368D01*
X174305651Y-98574962D01*
X174298419Y-98554750D01*
X174293203Y-98533926D01*
X174290053Y-98512691D01*
X174289000Y-98491250D01*
X174289000Y-98053750D01*
X174290053Y-98032309D01*
X174293203Y-98011074D01*
X174298419Y-97990250D01*
X174305651Y-97970038D01*
X174314830Y-97950632D01*
X174325866Y-97932219D01*
X174338654Y-97914976D01*
X174353070Y-97899070D01*
X174368976Y-97884654D01*
X174386219Y-97871866D01*
X174404632Y-97860830D01*
X174424038Y-97851651D01*
X174444250Y-97844419D01*
X174465074Y-97839203D01*
X174486309Y-97836053D01*
X174507750Y-97835000D01*
X175020250Y-97835000D01*
X175041691Y-97836053D01*
X175041691Y-97836053D01*
G37*
D15*
X174764000Y-98272500D03*
D12*
G36*
X175041691Y-99411053D02*
G01*
X175062926Y-99414203D01*
X175083750Y-99419419D01*
X175103962Y-99426651D01*
X175123368Y-99435830D01*
X175141781Y-99446866D01*
X175159024Y-99459654D01*
X175174930Y-99474070D01*
X175189346Y-99489976D01*
X175202134Y-99507219D01*
X175213170Y-99525632D01*
X175222349Y-99545038D01*
X175229581Y-99565250D01*
X175234797Y-99586074D01*
X175237947Y-99607309D01*
X175239000Y-99628750D01*
X175239000Y-100066250D01*
X175237947Y-100087691D01*
X175234797Y-100108926D01*
X175229581Y-100129750D01*
X175222349Y-100149962D01*
X175213170Y-100169368D01*
X175202134Y-100187781D01*
X175189346Y-100205024D01*
X175174930Y-100220930D01*
X175159024Y-100235346D01*
X175141781Y-100248134D01*
X175123368Y-100259170D01*
X175103962Y-100268349D01*
X175083750Y-100275581D01*
X175062926Y-100280797D01*
X175041691Y-100283947D01*
X175020250Y-100285000D01*
X174507750Y-100285000D01*
X174486309Y-100283947D01*
X174465074Y-100280797D01*
X174444250Y-100275581D01*
X174424038Y-100268349D01*
X174404632Y-100259170D01*
X174386219Y-100248134D01*
X174368976Y-100235346D01*
X174353070Y-100220930D01*
X174338654Y-100205024D01*
X174325866Y-100187781D01*
X174314830Y-100169368D01*
X174305651Y-100149962D01*
X174298419Y-100129750D01*
X174293203Y-100108926D01*
X174290053Y-100087691D01*
X174289000Y-100066250D01*
X174289000Y-99628750D01*
X174290053Y-99607309D01*
X174293203Y-99586074D01*
X174298419Y-99565250D01*
X174305651Y-99545038D01*
X174314830Y-99525632D01*
X174325866Y-99507219D01*
X174338654Y-99489976D01*
X174353070Y-99474070D01*
X174368976Y-99459654D01*
X174386219Y-99446866D01*
X174404632Y-99435830D01*
X174424038Y-99426651D01*
X174444250Y-99419419D01*
X174465074Y-99414203D01*
X174486309Y-99411053D01*
X174507750Y-99410000D01*
X175020250Y-99410000D01*
X175041691Y-99411053D01*
X175041691Y-99411053D01*
G37*
D15*
X174764000Y-99847500D03*
D12*
G36*
X172727691Y-99602053D02*
G01*
X172748926Y-99605203D01*
X172769750Y-99610419D01*
X172789962Y-99617651D01*
X172809368Y-99626830D01*
X172827781Y-99637866D01*
X172845024Y-99650654D01*
X172860930Y-99665070D01*
X172875346Y-99680976D01*
X172888134Y-99698219D01*
X172899170Y-99716632D01*
X172908349Y-99736038D01*
X172915581Y-99756250D01*
X172920797Y-99777074D01*
X172923947Y-99798309D01*
X172925000Y-99819750D01*
X172925000Y-100332250D01*
X172923947Y-100353691D01*
X172920797Y-100374926D01*
X172915581Y-100395750D01*
X172908349Y-100415962D01*
X172899170Y-100435368D01*
X172888134Y-100453781D01*
X172875346Y-100471024D01*
X172860930Y-100486930D01*
X172845024Y-100501346D01*
X172827781Y-100514134D01*
X172809368Y-100525170D01*
X172789962Y-100534349D01*
X172769750Y-100541581D01*
X172748926Y-100546797D01*
X172727691Y-100549947D01*
X172706250Y-100551000D01*
X172268750Y-100551000D01*
X172247309Y-100549947D01*
X172226074Y-100546797D01*
X172205250Y-100541581D01*
X172185038Y-100534349D01*
X172165632Y-100525170D01*
X172147219Y-100514134D01*
X172129976Y-100501346D01*
X172114070Y-100486930D01*
X172099654Y-100471024D01*
X172086866Y-100453781D01*
X172075830Y-100435368D01*
X172066651Y-100415962D01*
X172059419Y-100395750D01*
X172054203Y-100374926D01*
X172051053Y-100353691D01*
X172050000Y-100332250D01*
X172050000Y-99819750D01*
X172051053Y-99798309D01*
X172054203Y-99777074D01*
X172059419Y-99756250D01*
X172066651Y-99736038D01*
X172075830Y-99716632D01*
X172086866Y-99698219D01*
X172099654Y-99680976D01*
X172114070Y-99665070D01*
X172129976Y-99650654D01*
X172147219Y-99637866D01*
X172165632Y-99626830D01*
X172185038Y-99617651D01*
X172205250Y-99610419D01*
X172226074Y-99605203D01*
X172247309Y-99602053D01*
X172268750Y-99601000D01*
X172706250Y-99601000D01*
X172727691Y-99602053D01*
X172727691Y-99602053D01*
G37*
D15*
X172487500Y-100076000D03*
D12*
G36*
X171152691Y-99602053D02*
G01*
X171173926Y-99605203D01*
X171194750Y-99610419D01*
X171214962Y-99617651D01*
X171234368Y-99626830D01*
X171252781Y-99637866D01*
X171270024Y-99650654D01*
X171285930Y-99665070D01*
X171300346Y-99680976D01*
X171313134Y-99698219D01*
X171324170Y-99716632D01*
X171333349Y-99736038D01*
X171340581Y-99756250D01*
X171345797Y-99777074D01*
X171348947Y-99798309D01*
X171350000Y-99819750D01*
X171350000Y-100332250D01*
X171348947Y-100353691D01*
X171345797Y-100374926D01*
X171340581Y-100395750D01*
X171333349Y-100415962D01*
X171324170Y-100435368D01*
X171313134Y-100453781D01*
X171300346Y-100471024D01*
X171285930Y-100486930D01*
X171270024Y-100501346D01*
X171252781Y-100514134D01*
X171234368Y-100525170D01*
X171214962Y-100534349D01*
X171194750Y-100541581D01*
X171173926Y-100546797D01*
X171152691Y-100549947D01*
X171131250Y-100551000D01*
X170693750Y-100551000D01*
X170672309Y-100549947D01*
X170651074Y-100546797D01*
X170630250Y-100541581D01*
X170610038Y-100534349D01*
X170590632Y-100525170D01*
X170572219Y-100514134D01*
X170554976Y-100501346D01*
X170539070Y-100486930D01*
X170524654Y-100471024D01*
X170511866Y-100453781D01*
X170500830Y-100435368D01*
X170491651Y-100415962D01*
X170484419Y-100395750D01*
X170479203Y-100374926D01*
X170476053Y-100353691D01*
X170475000Y-100332250D01*
X170475000Y-99819750D01*
X170476053Y-99798309D01*
X170479203Y-99777074D01*
X170484419Y-99756250D01*
X170491651Y-99736038D01*
X170500830Y-99716632D01*
X170511866Y-99698219D01*
X170524654Y-99680976D01*
X170539070Y-99665070D01*
X170554976Y-99650654D01*
X170572219Y-99637866D01*
X170590632Y-99626830D01*
X170610038Y-99617651D01*
X170630250Y-99610419D01*
X170651074Y-99605203D01*
X170672309Y-99602053D01*
X170693750Y-99601000D01*
X171131250Y-99601000D01*
X171152691Y-99602053D01*
X171152691Y-99602053D01*
G37*
D15*
X170912500Y-100076000D03*
D12*
G36*
X175029691Y-102967053D02*
G01*
X175050926Y-102970203D01*
X175071750Y-102975419D01*
X175091962Y-102982651D01*
X175111368Y-102991830D01*
X175129781Y-103002866D01*
X175147024Y-103015654D01*
X175162930Y-103030070D01*
X175177346Y-103045976D01*
X175190134Y-103063219D01*
X175201170Y-103081632D01*
X175210349Y-103101038D01*
X175217581Y-103121250D01*
X175222797Y-103142074D01*
X175225947Y-103163309D01*
X175227000Y-103184750D01*
X175227000Y-103622250D01*
X175225947Y-103643691D01*
X175222797Y-103664926D01*
X175217581Y-103685750D01*
X175210349Y-103705962D01*
X175201170Y-103725368D01*
X175190134Y-103743781D01*
X175177346Y-103761024D01*
X175162930Y-103776930D01*
X175147024Y-103791346D01*
X175129781Y-103804134D01*
X175111368Y-103815170D01*
X175091962Y-103824349D01*
X175071750Y-103831581D01*
X175050926Y-103836797D01*
X175029691Y-103839947D01*
X175008250Y-103841000D01*
X174495750Y-103841000D01*
X174474309Y-103839947D01*
X174453074Y-103836797D01*
X174432250Y-103831581D01*
X174412038Y-103824349D01*
X174392632Y-103815170D01*
X174374219Y-103804134D01*
X174356976Y-103791346D01*
X174341070Y-103776930D01*
X174326654Y-103761024D01*
X174313866Y-103743781D01*
X174302830Y-103725368D01*
X174293651Y-103705962D01*
X174286419Y-103685750D01*
X174281203Y-103664926D01*
X174278053Y-103643691D01*
X174277000Y-103622250D01*
X174277000Y-103184750D01*
X174278053Y-103163309D01*
X174281203Y-103142074D01*
X174286419Y-103121250D01*
X174293651Y-103101038D01*
X174302830Y-103081632D01*
X174313866Y-103063219D01*
X174326654Y-103045976D01*
X174341070Y-103030070D01*
X174356976Y-103015654D01*
X174374219Y-103002866D01*
X174392632Y-102991830D01*
X174412038Y-102982651D01*
X174432250Y-102975419D01*
X174453074Y-102970203D01*
X174474309Y-102967053D01*
X174495750Y-102966000D01*
X175008250Y-102966000D01*
X175029691Y-102967053D01*
X175029691Y-102967053D01*
G37*
D15*
X174752000Y-103403500D03*
D12*
G36*
X175029691Y-101392053D02*
G01*
X175050926Y-101395203D01*
X175071750Y-101400419D01*
X175091962Y-101407651D01*
X175111368Y-101416830D01*
X175129781Y-101427866D01*
X175147024Y-101440654D01*
X175162930Y-101455070D01*
X175177346Y-101470976D01*
X175190134Y-101488219D01*
X175201170Y-101506632D01*
X175210349Y-101526038D01*
X175217581Y-101546250D01*
X175222797Y-101567074D01*
X175225947Y-101588309D01*
X175227000Y-101609750D01*
X175227000Y-102047250D01*
X175225947Y-102068691D01*
X175222797Y-102089926D01*
X175217581Y-102110750D01*
X175210349Y-102130962D01*
X175201170Y-102150368D01*
X175190134Y-102168781D01*
X175177346Y-102186024D01*
X175162930Y-102201930D01*
X175147024Y-102216346D01*
X175129781Y-102229134D01*
X175111368Y-102240170D01*
X175091962Y-102249349D01*
X175071750Y-102256581D01*
X175050926Y-102261797D01*
X175029691Y-102264947D01*
X175008250Y-102266000D01*
X174495750Y-102266000D01*
X174474309Y-102264947D01*
X174453074Y-102261797D01*
X174432250Y-102256581D01*
X174412038Y-102249349D01*
X174392632Y-102240170D01*
X174374219Y-102229134D01*
X174356976Y-102216346D01*
X174341070Y-102201930D01*
X174326654Y-102186024D01*
X174313866Y-102168781D01*
X174302830Y-102150368D01*
X174293651Y-102130962D01*
X174286419Y-102110750D01*
X174281203Y-102089926D01*
X174278053Y-102068691D01*
X174277000Y-102047250D01*
X174277000Y-101609750D01*
X174278053Y-101588309D01*
X174281203Y-101567074D01*
X174286419Y-101546250D01*
X174293651Y-101526038D01*
X174302830Y-101506632D01*
X174313866Y-101488219D01*
X174326654Y-101470976D01*
X174341070Y-101455070D01*
X174356976Y-101440654D01*
X174374219Y-101427866D01*
X174392632Y-101416830D01*
X174412038Y-101407651D01*
X174432250Y-101400419D01*
X174453074Y-101395203D01*
X174474309Y-101392053D01*
X174495750Y-101391000D01*
X175008250Y-101391000D01*
X175029691Y-101392053D01*
X175029691Y-101392053D01*
G37*
D15*
X174752000Y-101828500D03*
D12*
G36*
X178776691Y-101634053D02*
G01*
X178797926Y-101637203D01*
X178818750Y-101642419D01*
X178838962Y-101649651D01*
X178858368Y-101658830D01*
X178876781Y-101669866D01*
X178894024Y-101682654D01*
X178909930Y-101697070D01*
X178924346Y-101712976D01*
X178937134Y-101730219D01*
X178948170Y-101748632D01*
X178957349Y-101768038D01*
X178964581Y-101788250D01*
X178969797Y-101809074D01*
X178972947Y-101830309D01*
X178974000Y-101851750D01*
X178974000Y-102364250D01*
X178972947Y-102385691D01*
X178969797Y-102406926D01*
X178964581Y-102427750D01*
X178957349Y-102447962D01*
X178948170Y-102467368D01*
X178937134Y-102485781D01*
X178924346Y-102503024D01*
X178909930Y-102518930D01*
X178894024Y-102533346D01*
X178876781Y-102546134D01*
X178858368Y-102557170D01*
X178838962Y-102566349D01*
X178818750Y-102573581D01*
X178797926Y-102578797D01*
X178776691Y-102581947D01*
X178755250Y-102583000D01*
X178317750Y-102583000D01*
X178296309Y-102581947D01*
X178275074Y-102578797D01*
X178254250Y-102573581D01*
X178234038Y-102566349D01*
X178214632Y-102557170D01*
X178196219Y-102546134D01*
X178178976Y-102533346D01*
X178163070Y-102518930D01*
X178148654Y-102503024D01*
X178135866Y-102485781D01*
X178124830Y-102467368D01*
X178115651Y-102447962D01*
X178108419Y-102427750D01*
X178103203Y-102406926D01*
X178100053Y-102385691D01*
X178099000Y-102364250D01*
X178099000Y-101851750D01*
X178100053Y-101830309D01*
X178103203Y-101809074D01*
X178108419Y-101788250D01*
X178115651Y-101768038D01*
X178124830Y-101748632D01*
X178135866Y-101730219D01*
X178148654Y-101712976D01*
X178163070Y-101697070D01*
X178178976Y-101682654D01*
X178196219Y-101669866D01*
X178214632Y-101658830D01*
X178234038Y-101649651D01*
X178254250Y-101642419D01*
X178275074Y-101637203D01*
X178296309Y-101634053D01*
X178317750Y-101633000D01*
X178755250Y-101633000D01*
X178776691Y-101634053D01*
X178776691Y-101634053D01*
G37*
D15*
X178536500Y-102108000D03*
D12*
G36*
X180351691Y-101634053D02*
G01*
X180372926Y-101637203D01*
X180393750Y-101642419D01*
X180413962Y-101649651D01*
X180433368Y-101658830D01*
X180451781Y-101669866D01*
X180469024Y-101682654D01*
X180484930Y-101697070D01*
X180499346Y-101712976D01*
X180512134Y-101730219D01*
X180523170Y-101748632D01*
X180532349Y-101768038D01*
X180539581Y-101788250D01*
X180544797Y-101809074D01*
X180547947Y-101830309D01*
X180549000Y-101851750D01*
X180549000Y-102364250D01*
X180547947Y-102385691D01*
X180544797Y-102406926D01*
X180539581Y-102427750D01*
X180532349Y-102447962D01*
X180523170Y-102467368D01*
X180512134Y-102485781D01*
X180499346Y-102503024D01*
X180484930Y-102518930D01*
X180469024Y-102533346D01*
X180451781Y-102546134D01*
X180433368Y-102557170D01*
X180413962Y-102566349D01*
X180393750Y-102573581D01*
X180372926Y-102578797D01*
X180351691Y-102581947D01*
X180330250Y-102583000D01*
X179892750Y-102583000D01*
X179871309Y-102581947D01*
X179850074Y-102578797D01*
X179829250Y-102573581D01*
X179809038Y-102566349D01*
X179789632Y-102557170D01*
X179771219Y-102546134D01*
X179753976Y-102533346D01*
X179738070Y-102518930D01*
X179723654Y-102503024D01*
X179710866Y-102485781D01*
X179699830Y-102467368D01*
X179690651Y-102447962D01*
X179683419Y-102427750D01*
X179678203Y-102406926D01*
X179675053Y-102385691D01*
X179674000Y-102364250D01*
X179674000Y-101851750D01*
X179675053Y-101830309D01*
X179678203Y-101809074D01*
X179683419Y-101788250D01*
X179690651Y-101768038D01*
X179699830Y-101748632D01*
X179710866Y-101730219D01*
X179723654Y-101712976D01*
X179738070Y-101697070D01*
X179753976Y-101682654D01*
X179771219Y-101669866D01*
X179789632Y-101658830D01*
X179809038Y-101649651D01*
X179829250Y-101642419D01*
X179850074Y-101637203D01*
X179871309Y-101634053D01*
X179892750Y-101633000D01*
X180330250Y-101633000D01*
X180351691Y-101634053D01*
X180351691Y-101634053D01*
G37*
D15*
X180111500Y-102108000D03*
D12*
G36*
X177061691Y-97836053D02*
G01*
X177082926Y-97839203D01*
X177103750Y-97844419D01*
X177123962Y-97851651D01*
X177143368Y-97860830D01*
X177161781Y-97871866D01*
X177179024Y-97884654D01*
X177194930Y-97899070D01*
X177209346Y-97914976D01*
X177222134Y-97932219D01*
X177233170Y-97950632D01*
X177242349Y-97970038D01*
X177249581Y-97990250D01*
X177254797Y-98011074D01*
X177257947Y-98032309D01*
X177259000Y-98053750D01*
X177259000Y-98491250D01*
X177257947Y-98512691D01*
X177254797Y-98533926D01*
X177249581Y-98554750D01*
X177242349Y-98574962D01*
X177233170Y-98594368D01*
X177222134Y-98612781D01*
X177209346Y-98630024D01*
X177194930Y-98645930D01*
X177179024Y-98660346D01*
X177161781Y-98673134D01*
X177143368Y-98684170D01*
X177123962Y-98693349D01*
X177103750Y-98700581D01*
X177082926Y-98705797D01*
X177061691Y-98708947D01*
X177040250Y-98710000D01*
X176527750Y-98710000D01*
X176506309Y-98708947D01*
X176485074Y-98705797D01*
X176464250Y-98700581D01*
X176444038Y-98693349D01*
X176424632Y-98684170D01*
X176406219Y-98673134D01*
X176388976Y-98660346D01*
X176373070Y-98645930D01*
X176358654Y-98630024D01*
X176345866Y-98612781D01*
X176334830Y-98594368D01*
X176325651Y-98574962D01*
X176318419Y-98554750D01*
X176313203Y-98533926D01*
X176310053Y-98512691D01*
X176309000Y-98491250D01*
X176309000Y-98053750D01*
X176310053Y-98032309D01*
X176313203Y-98011074D01*
X176318419Y-97990250D01*
X176325651Y-97970038D01*
X176334830Y-97950632D01*
X176345866Y-97932219D01*
X176358654Y-97914976D01*
X176373070Y-97899070D01*
X176388976Y-97884654D01*
X176406219Y-97871866D01*
X176424632Y-97860830D01*
X176444038Y-97851651D01*
X176464250Y-97844419D01*
X176485074Y-97839203D01*
X176506309Y-97836053D01*
X176527750Y-97835000D01*
X177040250Y-97835000D01*
X177061691Y-97836053D01*
X177061691Y-97836053D01*
G37*
D15*
X176784000Y-98272500D03*
D12*
G36*
X177061691Y-99411053D02*
G01*
X177082926Y-99414203D01*
X177103750Y-99419419D01*
X177123962Y-99426651D01*
X177143368Y-99435830D01*
X177161781Y-99446866D01*
X177179024Y-99459654D01*
X177194930Y-99474070D01*
X177209346Y-99489976D01*
X177222134Y-99507219D01*
X177233170Y-99525632D01*
X177242349Y-99545038D01*
X177249581Y-99565250D01*
X177254797Y-99586074D01*
X177257947Y-99607309D01*
X177259000Y-99628750D01*
X177259000Y-100066250D01*
X177257947Y-100087691D01*
X177254797Y-100108926D01*
X177249581Y-100129750D01*
X177242349Y-100149962D01*
X177233170Y-100169368D01*
X177222134Y-100187781D01*
X177209346Y-100205024D01*
X177194930Y-100220930D01*
X177179024Y-100235346D01*
X177161781Y-100248134D01*
X177143368Y-100259170D01*
X177123962Y-100268349D01*
X177103750Y-100275581D01*
X177082926Y-100280797D01*
X177061691Y-100283947D01*
X177040250Y-100285000D01*
X176527750Y-100285000D01*
X176506309Y-100283947D01*
X176485074Y-100280797D01*
X176464250Y-100275581D01*
X176444038Y-100268349D01*
X176424632Y-100259170D01*
X176406219Y-100248134D01*
X176388976Y-100235346D01*
X176373070Y-100220930D01*
X176358654Y-100205024D01*
X176345866Y-100187781D01*
X176334830Y-100169368D01*
X176325651Y-100149962D01*
X176318419Y-100129750D01*
X176313203Y-100108926D01*
X176310053Y-100087691D01*
X176309000Y-100066250D01*
X176309000Y-99628750D01*
X176310053Y-99607309D01*
X176313203Y-99586074D01*
X176318419Y-99565250D01*
X176325651Y-99545038D01*
X176334830Y-99525632D01*
X176345866Y-99507219D01*
X176358654Y-99489976D01*
X176373070Y-99474070D01*
X176388976Y-99459654D01*
X176406219Y-99446866D01*
X176424632Y-99435830D01*
X176444038Y-99426651D01*
X176464250Y-99419419D01*
X176485074Y-99414203D01*
X176506309Y-99411053D01*
X176527750Y-99410000D01*
X177040250Y-99410000D01*
X177061691Y-99411053D01*
X177061691Y-99411053D01*
G37*
D15*
X176784000Y-99847500D03*
D12*
G36*
X172727691Y-101626053D02*
G01*
X172748926Y-101629203D01*
X172769750Y-101634419D01*
X172789962Y-101641651D01*
X172809368Y-101650830D01*
X172827781Y-101661866D01*
X172845024Y-101674654D01*
X172860930Y-101689070D01*
X172875346Y-101704976D01*
X172888134Y-101722219D01*
X172899170Y-101740632D01*
X172908349Y-101760038D01*
X172915581Y-101780250D01*
X172920797Y-101801074D01*
X172923947Y-101822309D01*
X172925000Y-101843750D01*
X172925000Y-102356250D01*
X172923947Y-102377691D01*
X172920797Y-102398926D01*
X172915581Y-102419750D01*
X172908349Y-102439962D01*
X172899170Y-102459368D01*
X172888134Y-102477781D01*
X172875346Y-102495024D01*
X172860930Y-102510930D01*
X172845024Y-102525346D01*
X172827781Y-102538134D01*
X172809368Y-102549170D01*
X172789962Y-102558349D01*
X172769750Y-102565581D01*
X172748926Y-102570797D01*
X172727691Y-102573947D01*
X172706250Y-102575000D01*
X172268750Y-102575000D01*
X172247309Y-102573947D01*
X172226074Y-102570797D01*
X172205250Y-102565581D01*
X172185038Y-102558349D01*
X172165632Y-102549170D01*
X172147219Y-102538134D01*
X172129976Y-102525346D01*
X172114070Y-102510930D01*
X172099654Y-102495024D01*
X172086866Y-102477781D01*
X172075830Y-102459368D01*
X172066651Y-102439962D01*
X172059419Y-102419750D01*
X172054203Y-102398926D01*
X172051053Y-102377691D01*
X172050000Y-102356250D01*
X172050000Y-101843750D01*
X172051053Y-101822309D01*
X172054203Y-101801074D01*
X172059419Y-101780250D01*
X172066651Y-101760038D01*
X172075830Y-101740632D01*
X172086866Y-101722219D01*
X172099654Y-101704976D01*
X172114070Y-101689070D01*
X172129976Y-101674654D01*
X172147219Y-101661866D01*
X172165632Y-101650830D01*
X172185038Y-101641651D01*
X172205250Y-101634419D01*
X172226074Y-101629203D01*
X172247309Y-101626053D01*
X172268750Y-101625000D01*
X172706250Y-101625000D01*
X172727691Y-101626053D01*
X172727691Y-101626053D01*
G37*
D15*
X172487500Y-102100000D03*
D12*
G36*
X171152691Y-101626053D02*
G01*
X171173926Y-101629203D01*
X171194750Y-101634419D01*
X171214962Y-101641651D01*
X171234368Y-101650830D01*
X171252781Y-101661866D01*
X171270024Y-101674654D01*
X171285930Y-101689070D01*
X171300346Y-101704976D01*
X171313134Y-101722219D01*
X171324170Y-101740632D01*
X171333349Y-101760038D01*
X171340581Y-101780250D01*
X171345797Y-101801074D01*
X171348947Y-101822309D01*
X171350000Y-101843750D01*
X171350000Y-102356250D01*
X171348947Y-102377691D01*
X171345797Y-102398926D01*
X171340581Y-102419750D01*
X171333349Y-102439962D01*
X171324170Y-102459368D01*
X171313134Y-102477781D01*
X171300346Y-102495024D01*
X171285930Y-102510930D01*
X171270024Y-102525346D01*
X171252781Y-102538134D01*
X171234368Y-102549170D01*
X171214962Y-102558349D01*
X171194750Y-102565581D01*
X171173926Y-102570797D01*
X171152691Y-102573947D01*
X171131250Y-102575000D01*
X170693750Y-102575000D01*
X170672309Y-102573947D01*
X170651074Y-102570797D01*
X170630250Y-102565581D01*
X170610038Y-102558349D01*
X170590632Y-102549170D01*
X170572219Y-102538134D01*
X170554976Y-102525346D01*
X170539070Y-102510930D01*
X170524654Y-102495024D01*
X170511866Y-102477781D01*
X170500830Y-102459368D01*
X170491651Y-102439962D01*
X170484419Y-102419750D01*
X170479203Y-102398926D01*
X170476053Y-102377691D01*
X170475000Y-102356250D01*
X170475000Y-101843750D01*
X170476053Y-101822309D01*
X170479203Y-101801074D01*
X170484419Y-101780250D01*
X170491651Y-101760038D01*
X170500830Y-101740632D01*
X170511866Y-101722219D01*
X170524654Y-101704976D01*
X170539070Y-101689070D01*
X170554976Y-101674654D01*
X170572219Y-101661866D01*
X170590632Y-101650830D01*
X170610038Y-101641651D01*
X170630250Y-101634419D01*
X170651074Y-101629203D01*
X170672309Y-101626053D01*
X170693750Y-101625000D01*
X171131250Y-101625000D01*
X171152691Y-101626053D01*
X171152691Y-101626053D01*
G37*
D15*
X170912500Y-102100000D03*
D12*
G36*
X166930142Y-108653174D02*
G01*
X166953803Y-108656684D01*
X166977007Y-108662496D01*
X166999529Y-108670554D01*
X167021153Y-108680782D01*
X167041670Y-108693079D01*
X167060883Y-108707329D01*
X167078607Y-108723393D01*
X167094671Y-108741117D01*
X167108921Y-108760330D01*
X167121218Y-108780847D01*
X167131446Y-108802471D01*
X167139504Y-108824993D01*
X167145316Y-108848197D01*
X167148826Y-108871858D01*
X167150000Y-108895750D01*
X167150000Y-109808250D01*
X167148826Y-109832142D01*
X167145316Y-109855803D01*
X167139504Y-109879007D01*
X167131446Y-109901529D01*
X167121218Y-109923153D01*
X167108921Y-109943670D01*
X167094671Y-109962883D01*
X167078607Y-109980607D01*
X167060883Y-109996671D01*
X167041670Y-110010921D01*
X167021153Y-110023218D01*
X166999529Y-110033446D01*
X166977007Y-110041504D01*
X166953803Y-110047316D01*
X166930142Y-110050826D01*
X166906250Y-110052000D01*
X166418750Y-110052000D01*
X166394858Y-110050826D01*
X166371197Y-110047316D01*
X166347993Y-110041504D01*
X166325471Y-110033446D01*
X166303847Y-110023218D01*
X166283330Y-110010921D01*
X166264117Y-109996671D01*
X166246393Y-109980607D01*
X166230329Y-109962883D01*
X166216079Y-109943670D01*
X166203782Y-109923153D01*
X166193554Y-109901529D01*
X166185496Y-109879007D01*
X166179684Y-109855803D01*
X166176174Y-109832142D01*
X166175000Y-109808250D01*
X166175000Y-108895750D01*
X166176174Y-108871858D01*
X166179684Y-108848197D01*
X166185496Y-108824993D01*
X166193554Y-108802471D01*
X166203782Y-108780847D01*
X166216079Y-108760330D01*
X166230329Y-108741117D01*
X166246393Y-108723393D01*
X166264117Y-108707329D01*
X166283330Y-108693079D01*
X166303847Y-108680782D01*
X166325471Y-108670554D01*
X166347993Y-108662496D01*
X166371197Y-108656684D01*
X166394858Y-108653174D01*
X166418750Y-108652000D01*
X166906250Y-108652000D01*
X166930142Y-108653174D01*
X166930142Y-108653174D01*
G37*
D14*
X166662500Y-109352000D03*
D12*
G36*
X168805142Y-108653174D02*
G01*
X168828803Y-108656684D01*
X168852007Y-108662496D01*
X168874529Y-108670554D01*
X168896153Y-108680782D01*
X168916670Y-108693079D01*
X168935883Y-108707329D01*
X168953607Y-108723393D01*
X168969671Y-108741117D01*
X168983921Y-108760330D01*
X168996218Y-108780847D01*
X169006446Y-108802471D01*
X169014504Y-108824993D01*
X169020316Y-108848197D01*
X169023826Y-108871858D01*
X169025000Y-108895750D01*
X169025000Y-109808250D01*
X169023826Y-109832142D01*
X169020316Y-109855803D01*
X169014504Y-109879007D01*
X169006446Y-109901529D01*
X168996218Y-109923153D01*
X168983921Y-109943670D01*
X168969671Y-109962883D01*
X168953607Y-109980607D01*
X168935883Y-109996671D01*
X168916670Y-110010921D01*
X168896153Y-110023218D01*
X168874529Y-110033446D01*
X168852007Y-110041504D01*
X168828803Y-110047316D01*
X168805142Y-110050826D01*
X168781250Y-110052000D01*
X168293750Y-110052000D01*
X168269858Y-110050826D01*
X168246197Y-110047316D01*
X168222993Y-110041504D01*
X168200471Y-110033446D01*
X168178847Y-110023218D01*
X168158330Y-110010921D01*
X168139117Y-109996671D01*
X168121393Y-109980607D01*
X168105329Y-109962883D01*
X168091079Y-109943670D01*
X168078782Y-109923153D01*
X168068554Y-109901529D01*
X168060496Y-109879007D01*
X168054684Y-109855803D01*
X168051174Y-109832142D01*
X168050000Y-109808250D01*
X168050000Y-108895750D01*
X168051174Y-108871858D01*
X168054684Y-108848197D01*
X168060496Y-108824993D01*
X168068554Y-108802471D01*
X168078782Y-108780847D01*
X168091079Y-108760330D01*
X168105329Y-108741117D01*
X168121393Y-108723393D01*
X168139117Y-108707329D01*
X168158330Y-108693079D01*
X168178847Y-108680782D01*
X168200471Y-108670554D01*
X168222993Y-108662496D01*
X168246197Y-108656684D01*
X168269858Y-108653174D01*
X168293750Y-108652000D01*
X168781250Y-108652000D01*
X168805142Y-108653174D01*
X168805142Y-108653174D01*
G37*
D14*
X168537500Y-109352000D03*
D16*
X180900000Y-106450000D03*
X180900000Y-109750000D03*
D12*
G36*
X183677691Y-107751053D02*
G01*
X183698926Y-107754203D01*
X183719750Y-107759419D01*
X183739962Y-107766651D01*
X183759368Y-107775830D01*
X183777781Y-107786866D01*
X183795024Y-107799654D01*
X183810930Y-107814070D01*
X183825346Y-107829976D01*
X183838134Y-107847219D01*
X183849170Y-107865632D01*
X183858349Y-107885038D01*
X183865581Y-107905250D01*
X183870797Y-107926074D01*
X183873947Y-107947309D01*
X183875000Y-107968750D01*
X183875000Y-108406250D01*
X183873947Y-108427691D01*
X183870797Y-108448926D01*
X183865581Y-108469750D01*
X183858349Y-108489962D01*
X183849170Y-108509368D01*
X183838134Y-108527781D01*
X183825346Y-108545024D01*
X183810930Y-108560930D01*
X183795024Y-108575346D01*
X183777781Y-108588134D01*
X183759368Y-108599170D01*
X183739962Y-108608349D01*
X183719750Y-108615581D01*
X183698926Y-108620797D01*
X183677691Y-108623947D01*
X183656250Y-108625000D01*
X183143750Y-108625000D01*
X183122309Y-108623947D01*
X183101074Y-108620797D01*
X183080250Y-108615581D01*
X183060038Y-108608349D01*
X183040632Y-108599170D01*
X183022219Y-108588134D01*
X183004976Y-108575346D01*
X182989070Y-108560930D01*
X182974654Y-108545024D01*
X182961866Y-108527781D01*
X182950830Y-108509368D01*
X182941651Y-108489962D01*
X182934419Y-108469750D01*
X182929203Y-108448926D01*
X182926053Y-108427691D01*
X182925000Y-108406250D01*
X182925000Y-107968750D01*
X182926053Y-107947309D01*
X182929203Y-107926074D01*
X182934419Y-107905250D01*
X182941651Y-107885038D01*
X182950830Y-107865632D01*
X182961866Y-107847219D01*
X182974654Y-107829976D01*
X182989070Y-107814070D01*
X183004976Y-107799654D01*
X183022219Y-107786866D01*
X183040632Y-107775830D01*
X183060038Y-107766651D01*
X183080250Y-107759419D01*
X183101074Y-107754203D01*
X183122309Y-107751053D01*
X183143750Y-107750000D01*
X183656250Y-107750000D01*
X183677691Y-107751053D01*
X183677691Y-107751053D01*
G37*
D15*
X183400000Y-108187500D03*
D12*
G36*
X183677691Y-106176053D02*
G01*
X183698926Y-106179203D01*
X183719750Y-106184419D01*
X183739962Y-106191651D01*
X183759368Y-106200830D01*
X183777781Y-106211866D01*
X183795024Y-106224654D01*
X183810930Y-106239070D01*
X183825346Y-106254976D01*
X183838134Y-106272219D01*
X183849170Y-106290632D01*
X183858349Y-106310038D01*
X183865581Y-106330250D01*
X183870797Y-106351074D01*
X183873947Y-106372309D01*
X183875000Y-106393750D01*
X183875000Y-106831250D01*
X183873947Y-106852691D01*
X183870797Y-106873926D01*
X183865581Y-106894750D01*
X183858349Y-106914962D01*
X183849170Y-106934368D01*
X183838134Y-106952781D01*
X183825346Y-106970024D01*
X183810930Y-106985930D01*
X183795024Y-107000346D01*
X183777781Y-107013134D01*
X183759368Y-107024170D01*
X183739962Y-107033349D01*
X183719750Y-107040581D01*
X183698926Y-107045797D01*
X183677691Y-107048947D01*
X183656250Y-107050000D01*
X183143750Y-107050000D01*
X183122309Y-107048947D01*
X183101074Y-107045797D01*
X183080250Y-107040581D01*
X183060038Y-107033349D01*
X183040632Y-107024170D01*
X183022219Y-107013134D01*
X183004976Y-107000346D01*
X182989070Y-106985930D01*
X182974654Y-106970024D01*
X182961866Y-106952781D01*
X182950830Y-106934368D01*
X182941651Y-106914962D01*
X182934419Y-106894750D01*
X182929203Y-106873926D01*
X182926053Y-106852691D01*
X182925000Y-106831250D01*
X182925000Y-106393750D01*
X182926053Y-106372309D01*
X182929203Y-106351074D01*
X182934419Y-106330250D01*
X182941651Y-106310038D01*
X182950830Y-106290632D01*
X182961866Y-106272219D01*
X182974654Y-106254976D01*
X182989070Y-106239070D01*
X183004976Y-106224654D01*
X183022219Y-106211866D01*
X183040632Y-106200830D01*
X183060038Y-106191651D01*
X183080250Y-106184419D01*
X183101074Y-106179203D01*
X183122309Y-106176053D01*
X183143750Y-106175000D01*
X183656250Y-106175000D01*
X183677691Y-106176053D01*
X183677691Y-106176053D01*
G37*
D15*
X183400000Y-106612500D03*
D12*
G36*
X162685291Y-131008453D02*
G01*
X162706526Y-131011603D01*
X162727350Y-131016819D01*
X162747562Y-131024051D01*
X162766968Y-131033230D01*
X162785381Y-131044266D01*
X162802624Y-131057054D01*
X162818530Y-131071470D01*
X162832946Y-131087376D01*
X162845734Y-131104619D01*
X162856770Y-131123032D01*
X162865949Y-131142438D01*
X162873181Y-131162650D01*
X162878397Y-131183474D01*
X162881547Y-131204709D01*
X162882600Y-131226150D01*
X162882600Y-131663650D01*
X162881547Y-131685091D01*
X162878397Y-131706326D01*
X162873181Y-131727150D01*
X162865949Y-131747362D01*
X162856770Y-131766768D01*
X162845734Y-131785181D01*
X162832946Y-131802424D01*
X162818530Y-131818330D01*
X162802624Y-131832746D01*
X162785381Y-131845534D01*
X162766968Y-131856570D01*
X162747562Y-131865749D01*
X162727350Y-131872981D01*
X162706526Y-131878197D01*
X162685291Y-131881347D01*
X162663850Y-131882400D01*
X162151350Y-131882400D01*
X162129909Y-131881347D01*
X162108674Y-131878197D01*
X162087850Y-131872981D01*
X162067638Y-131865749D01*
X162048232Y-131856570D01*
X162029819Y-131845534D01*
X162012576Y-131832746D01*
X161996670Y-131818330D01*
X161982254Y-131802424D01*
X161969466Y-131785181D01*
X161958430Y-131766768D01*
X161949251Y-131747362D01*
X161942019Y-131727150D01*
X161936803Y-131706326D01*
X161933653Y-131685091D01*
X161932600Y-131663650D01*
X161932600Y-131226150D01*
X161933653Y-131204709D01*
X161936803Y-131183474D01*
X161942019Y-131162650D01*
X161949251Y-131142438D01*
X161958430Y-131123032D01*
X161969466Y-131104619D01*
X161982254Y-131087376D01*
X161996670Y-131071470D01*
X162012576Y-131057054D01*
X162029819Y-131044266D01*
X162048232Y-131033230D01*
X162067638Y-131024051D01*
X162087850Y-131016819D01*
X162108674Y-131011603D01*
X162129909Y-131008453D01*
X162151350Y-131007400D01*
X162663850Y-131007400D01*
X162685291Y-131008453D01*
X162685291Y-131008453D01*
G37*
D15*
X162407600Y-131444900D03*
D12*
G36*
X162685291Y-132583453D02*
G01*
X162706526Y-132586603D01*
X162727350Y-132591819D01*
X162747562Y-132599051D01*
X162766968Y-132608230D01*
X162785381Y-132619266D01*
X162802624Y-132632054D01*
X162818530Y-132646470D01*
X162832946Y-132662376D01*
X162845734Y-132679619D01*
X162856770Y-132698032D01*
X162865949Y-132717438D01*
X162873181Y-132737650D01*
X162878397Y-132758474D01*
X162881547Y-132779709D01*
X162882600Y-132801150D01*
X162882600Y-133238650D01*
X162881547Y-133260091D01*
X162878397Y-133281326D01*
X162873181Y-133302150D01*
X162865949Y-133322362D01*
X162856770Y-133341768D01*
X162845734Y-133360181D01*
X162832946Y-133377424D01*
X162818530Y-133393330D01*
X162802624Y-133407746D01*
X162785381Y-133420534D01*
X162766968Y-133431570D01*
X162747562Y-133440749D01*
X162727350Y-133447981D01*
X162706526Y-133453197D01*
X162685291Y-133456347D01*
X162663850Y-133457400D01*
X162151350Y-133457400D01*
X162129909Y-133456347D01*
X162108674Y-133453197D01*
X162087850Y-133447981D01*
X162067638Y-133440749D01*
X162048232Y-133431570D01*
X162029819Y-133420534D01*
X162012576Y-133407746D01*
X161996670Y-133393330D01*
X161982254Y-133377424D01*
X161969466Y-133360181D01*
X161958430Y-133341768D01*
X161949251Y-133322362D01*
X161942019Y-133302150D01*
X161936803Y-133281326D01*
X161933653Y-133260091D01*
X161932600Y-133238650D01*
X161932600Y-132801150D01*
X161933653Y-132779709D01*
X161936803Y-132758474D01*
X161942019Y-132737650D01*
X161949251Y-132717438D01*
X161958430Y-132698032D01*
X161969466Y-132679619D01*
X161982254Y-132662376D01*
X161996670Y-132646470D01*
X162012576Y-132632054D01*
X162029819Y-132619266D01*
X162048232Y-132608230D01*
X162067638Y-132599051D01*
X162087850Y-132591819D01*
X162108674Y-132586603D01*
X162129909Y-132583453D01*
X162151350Y-132582400D01*
X162663850Y-132582400D01*
X162685291Y-132583453D01*
X162685291Y-132583453D01*
G37*
D15*
X162407600Y-133019900D03*
D12*
G36*
X168680142Y-98144174D02*
G01*
X168703803Y-98147684D01*
X168727007Y-98153496D01*
X168749529Y-98161554D01*
X168771153Y-98171782D01*
X168791670Y-98184079D01*
X168810883Y-98198329D01*
X168828607Y-98214393D01*
X168844671Y-98232117D01*
X168858921Y-98251330D01*
X168871218Y-98271847D01*
X168881446Y-98293471D01*
X168889504Y-98315993D01*
X168895316Y-98339197D01*
X168898826Y-98362858D01*
X168900000Y-98386750D01*
X168900000Y-98874250D01*
X168898826Y-98898142D01*
X168895316Y-98921803D01*
X168889504Y-98945007D01*
X168881446Y-98967529D01*
X168871218Y-98989153D01*
X168858921Y-99009670D01*
X168844671Y-99028883D01*
X168828607Y-99046607D01*
X168810883Y-99062671D01*
X168791670Y-99076921D01*
X168771153Y-99089218D01*
X168749529Y-99099446D01*
X168727007Y-99107504D01*
X168703803Y-99113316D01*
X168680142Y-99116826D01*
X168656250Y-99118000D01*
X167743750Y-99118000D01*
X167719858Y-99116826D01*
X167696197Y-99113316D01*
X167672993Y-99107504D01*
X167650471Y-99099446D01*
X167628847Y-99089218D01*
X167608330Y-99076921D01*
X167589117Y-99062671D01*
X167571393Y-99046607D01*
X167555329Y-99028883D01*
X167541079Y-99009670D01*
X167528782Y-98989153D01*
X167518554Y-98967529D01*
X167510496Y-98945007D01*
X167504684Y-98921803D01*
X167501174Y-98898142D01*
X167500000Y-98874250D01*
X167500000Y-98386750D01*
X167501174Y-98362858D01*
X167504684Y-98339197D01*
X167510496Y-98315993D01*
X167518554Y-98293471D01*
X167528782Y-98271847D01*
X167541079Y-98251330D01*
X167555329Y-98232117D01*
X167571393Y-98214393D01*
X167589117Y-98198329D01*
X167608330Y-98184079D01*
X167628847Y-98171782D01*
X167650471Y-98161554D01*
X167672993Y-98153496D01*
X167696197Y-98147684D01*
X167719858Y-98144174D01*
X167743750Y-98143000D01*
X168656250Y-98143000D01*
X168680142Y-98144174D01*
X168680142Y-98144174D01*
G37*
D14*
X168200000Y-98630500D03*
D12*
G36*
X168680142Y-100019174D02*
G01*
X168703803Y-100022684D01*
X168727007Y-100028496D01*
X168749529Y-100036554D01*
X168771153Y-100046782D01*
X168791670Y-100059079D01*
X168810883Y-100073329D01*
X168828607Y-100089393D01*
X168844671Y-100107117D01*
X168858921Y-100126330D01*
X168871218Y-100146847D01*
X168881446Y-100168471D01*
X168889504Y-100190993D01*
X168895316Y-100214197D01*
X168898826Y-100237858D01*
X168900000Y-100261750D01*
X168900000Y-100749250D01*
X168898826Y-100773142D01*
X168895316Y-100796803D01*
X168889504Y-100820007D01*
X168881446Y-100842529D01*
X168871218Y-100864153D01*
X168858921Y-100884670D01*
X168844671Y-100903883D01*
X168828607Y-100921607D01*
X168810883Y-100937671D01*
X168791670Y-100951921D01*
X168771153Y-100964218D01*
X168749529Y-100974446D01*
X168727007Y-100982504D01*
X168703803Y-100988316D01*
X168680142Y-100991826D01*
X168656250Y-100993000D01*
X167743750Y-100993000D01*
X167719858Y-100991826D01*
X167696197Y-100988316D01*
X167672993Y-100982504D01*
X167650471Y-100974446D01*
X167628847Y-100964218D01*
X167608330Y-100951921D01*
X167589117Y-100937671D01*
X167571393Y-100921607D01*
X167555329Y-100903883D01*
X167541079Y-100884670D01*
X167528782Y-100864153D01*
X167518554Y-100842529D01*
X167510496Y-100820007D01*
X167504684Y-100796803D01*
X167501174Y-100773142D01*
X167500000Y-100749250D01*
X167500000Y-100261750D01*
X167501174Y-100237858D01*
X167504684Y-100214197D01*
X167510496Y-100190993D01*
X167518554Y-100168471D01*
X167528782Y-100146847D01*
X167541079Y-100126330D01*
X167555329Y-100107117D01*
X167571393Y-100089393D01*
X167589117Y-100073329D01*
X167608330Y-100059079D01*
X167628847Y-100046782D01*
X167650471Y-100036554D01*
X167672993Y-100028496D01*
X167696197Y-100022684D01*
X167719858Y-100019174D01*
X167743750Y-100018000D01*
X168656250Y-100018000D01*
X168680142Y-100019174D01*
X168680142Y-100019174D01*
G37*
D14*
X168200000Y-100505500D03*
D12*
G36*
X172184142Y-96384674D02*
G01*
X172207803Y-96388184D01*
X172231007Y-96393996D01*
X172253529Y-96402054D01*
X172275153Y-96412282D01*
X172295670Y-96424579D01*
X172314883Y-96438829D01*
X172332607Y-96454893D01*
X172348671Y-96472617D01*
X172362921Y-96491830D01*
X172375218Y-96512347D01*
X172385446Y-96533971D01*
X172393504Y-96556493D01*
X172399316Y-96579697D01*
X172402826Y-96603358D01*
X172404000Y-96627250D01*
X172404000Y-97114750D01*
X172402826Y-97138642D01*
X172399316Y-97162303D01*
X172393504Y-97185507D01*
X172385446Y-97208029D01*
X172375218Y-97229653D01*
X172362921Y-97250170D01*
X172348671Y-97269383D01*
X172332607Y-97287107D01*
X172314883Y-97303171D01*
X172295670Y-97317421D01*
X172275153Y-97329718D01*
X172253529Y-97339946D01*
X172231007Y-97348004D01*
X172207803Y-97353816D01*
X172184142Y-97357326D01*
X172160250Y-97358500D01*
X171247750Y-97358500D01*
X171223858Y-97357326D01*
X171200197Y-97353816D01*
X171176993Y-97348004D01*
X171154471Y-97339946D01*
X171132847Y-97329718D01*
X171112330Y-97317421D01*
X171093117Y-97303171D01*
X171075393Y-97287107D01*
X171059329Y-97269383D01*
X171045079Y-97250170D01*
X171032782Y-97229653D01*
X171022554Y-97208029D01*
X171014496Y-97185507D01*
X171008684Y-97162303D01*
X171005174Y-97138642D01*
X171004000Y-97114750D01*
X171004000Y-96627250D01*
X171005174Y-96603358D01*
X171008684Y-96579697D01*
X171014496Y-96556493D01*
X171022554Y-96533971D01*
X171032782Y-96512347D01*
X171045079Y-96491830D01*
X171059329Y-96472617D01*
X171075393Y-96454893D01*
X171093117Y-96438829D01*
X171112330Y-96424579D01*
X171132847Y-96412282D01*
X171154471Y-96402054D01*
X171176993Y-96393996D01*
X171200197Y-96388184D01*
X171223858Y-96384674D01*
X171247750Y-96383500D01*
X172160250Y-96383500D01*
X172184142Y-96384674D01*
X172184142Y-96384674D01*
G37*
D14*
X171704000Y-96871000D03*
D12*
G36*
X172184142Y-94509674D02*
G01*
X172207803Y-94513184D01*
X172231007Y-94518996D01*
X172253529Y-94527054D01*
X172275153Y-94537282D01*
X172295670Y-94549579D01*
X172314883Y-94563829D01*
X172332607Y-94579893D01*
X172348671Y-94597617D01*
X172362921Y-94616830D01*
X172375218Y-94637347D01*
X172385446Y-94658971D01*
X172393504Y-94681493D01*
X172399316Y-94704697D01*
X172402826Y-94728358D01*
X172404000Y-94752250D01*
X172404000Y-95239750D01*
X172402826Y-95263642D01*
X172399316Y-95287303D01*
X172393504Y-95310507D01*
X172385446Y-95333029D01*
X172375218Y-95354653D01*
X172362921Y-95375170D01*
X172348671Y-95394383D01*
X172332607Y-95412107D01*
X172314883Y-95428171D01*
X172295670Y-95442421D01*
X172275153Y-95454718D01*
X172253529Y-95464946D01*
X172231007Y-95473004D01*
X172207803Y-95478816D01*
X172184142Y-95482326D01*
X172160250Y-95483500D01*
X171247750Y-95483500D01*
X171223858Y-95482326D01*
X171200197Y-95478816D01*
X171176993Y-95473004D01*
X171154471Y-95464946D01*
X171132847Y-95454718D01*
X171112330Y-95442421D01*
X171093117Y-95428171D01*
X171075393Y-95412107D01*
X171059329Y-95394383D01*
X171045079Y-95375170D01*
X171032782Y-95354653D01*
X171022554Y-95333029D01*
X171014496Y-95310507D01*
X171008684Y-95287303D01*
X171005174Y-95263642D01*
X171004000Y-95239750D01*
X171004000Y-94752250D01*
X171005174Y-94728358D01*
X171008684Y-94704697D01*
X171014496Y-94681493D01*
X171022554Y-94658971D01*
X171032782Y-94637347D01*
X171045079Y-94616830D01*
X171059329Y-94597617D01*
X171075393Y-94579893D01*
X171093117Y-94563829D01*
X171112330Y-94549579D01*
X171132847Y-94537282D01*
X171154471Y-94527054D01*
X171176993Y-94518996D01*
X171200197Y-94513184D01*
X171223858Y-94509674D01*
X171247750Y-94508500D01*
X172160250Y-94508500D01*
X172184142Y-94509674D01*
X172184142Y-94509674D01*
G37*
D14*
X171704000Y-94996000D03*
D12*
G36*
X174216142Y-90953674D02*
G01*
X174239803Y-90957184D01*
X174263007Y-90962996D01*
X174285529Y-90971054D01*
X174307153Y-90981282D01*
X174327670Y-90993579D01*
X174346883Y-91007829D01*
X174364607Y-91023893D01*
X174380671Y-91041617D01*
X174394921Y-91060830D01*
X174407218Y-91081347D01*
X174417446Y-91102971D01*
X174425504Y-91125493D01*
X174431316Y-91148697D01*
X174434826Y-91172358D01*
X174436000Y-91196250D01*
X174436000Y-91683750D01*
X174434826Y-91707642D01*
X174431316Y-91731303D01*
X174425504Y-91754507D01*
X174417446Y-91777029D01*
X174407218Y-91798653D01*
X174394921Y-91819170D01*
X174380671Y-91838383D01*
X174364607Y-91856107D01*
X174346883Y-91872171D01*
X174327670Y-91886421D01*
X174307153Y-91898718D01*
X174285529Y-91908946D01*
X174263007Y-91917004D01*
X174239803Y-91922816D01*
X174216142Y-91926326D01*
X174192250Y-91927500D01*
X173279750Y-91927500D01*
X173255858Y-91926326D01*
X173232197Y-91922816D01*
X173208993Y-91917004D01*
X173186471Y-91908946D01*
X173164847Y-91898718D01*
X173144330Y-91886421D01*
X173125117Y-91872171D01*
X173107393Y-91856107D01*
X173091329Y-91838383D01*
X173077079Y-91819170D01*
X173064782Y-91798653D01*
X173054554Y-91777029D01*
X173046496Y-91754507D01*
X173040684Y-91731303D01*
X173037174Y-91707642D01*
X173036000Y-91683750D01*
X173036000Y-91196250D01*
X173037174Y-91172358D01*
X173040684Y-91148697D01*
X173046496Y-91125493D01*
X173054554Y-91102971D01*
X173064782Y-91081347D01*
X173077079Y-91060830D01*
X173091329Y-91041617D01*
X173107393Y-91023893D01*
X173125117Y-91007829D01*
X173144330Y-90993579D01*
X173164847Y-90981282D01*
X173186471Y-90971054D01*
X173208993Y-90962996D01*
X173232197Y-90957184D01*
X173255858Y-90953674D01*
X173279750Y-90952500D01*
X174192250Y-90952500D01*
X174216142Y-90953674D01*
X174216142Y-90953674D01*
G37*
D14*
X173736000Y-91440000D03*
D12*
G36*
X174216142Y-92828674D02*
G01*
X174239803Y-92832184D01*
X174263007Y-92837996D01*
X174285529Y-92846054D01*
X174307153Y-92856282D01*
X174327670Y-92868579D01*
X174346883Y-92882829D01*
X174364607Y-92898893D01*
X174380671Y-92916617D01*
X174394921Y-92935830D01*
X174407218Y-92956347D01*
X174417446Y-92977971D01*
X174425504Y-93000493D01*
X174431316Y-93023697D01*
X174434826Y-93047358D01*
X174436000Y-93071250D01*
X174436000Y-93558750D01*
X174434826Y-93582642D01*
X174431316Y-93606303D01*
X174425504Y-93629507D01*
X174417446Y-93652029D01*
X174407218Y-93673653D01*
X174394921Y-93694170D01*
X174380671Y-93713383D01*
X174364607Y-93731107D01*
X174346883Y-93747171D01*
X174327670Y-93761421D01*
X174307153Y-93773718D01*
X174285529Y-93783946D01*
X174263007Y-93792004D01*
X174239803Y-93797816D01*
X174216142Y-93801326D01*
X174192250Y-93802500D01*
X173279750Y-93802500D01*
X173255858Y-93801326D01*
X173232197Y-93797816D01*
X173208993Y-93792004D01*
X173186471Y-93783946D01*
X173164847Y-93773718D01*
X173144330Y-93761421D01*
X173125117Y-93747171D01*
X173107393Y-93731107D01*
X173091329Y-93713383D01*
X173077079Y-93694170D01*
X173064782Y-93673653D01*
X173054554Y-93652029D01*
X173046496Y-93629507D01*
X173040684Y-93606303D01*
X173037174Y-93582642D01*
X173036000Y-93558750D01*
X173036000Y-93071250D01*
X173037174Y-93047358D01*
X173040684Y-93023697D01*
X173046496Y-93000493D01*
X173054554Y-92977971D01*
X173064782Y-92956347D01*
X173077079Y-92935830D01*
X173091329Y-92916617D01*
X173107393Y-92898893D01*
X173125117Y-92882829D01*
X173144330Y-92868579D01*
X173164847Y-92856282D01*
X173186471Y-92846054D01*
X173208993Y-92837996D01*
X173232197Y-92832184D01*
X173255858Y-92828674D01*
X173279750Y-92827500D01*
X174192250Y-92827500D01*
X174216142Y-92828674D01*
X174216142Y-92828674D01*
G37*
D14*
X173736000Y-93315000D03*
D12*
G36*
X176248142Y-89272674D02*
G01*
X176271803Y-89276184D01*
X176295007Y-89281996D01*
X176317529Y-89290054D01*
X176339153Y-89300282D01*
X176359670Y-89312579D01*
X176378883Y-89326829D01*
X176396607Y-89342893D01*
X176412671Y-89360617D01*
X176426921Y-89379830D01*
X176439218Y-89400347D01*
X176449446Y-89421971D01*
X176457504Y-89444493D01*
X176463316Y-89467697D01*
X176466826Y-89491358D01*
X176468000Y-89515250D01*
X176468000Y-90002750D01*
X176466826Y-90026642D01*
X176463316Y-90050303D01*
X176457504Y-90073507D01*
X176449446Y-90096029D01*
X176439218Y-90117653D01*
X176426921Y-90138170D01*
X176412671Y-90157383D01*
X176396607Y-90175107D01*
X176378883Y-90191171D01*
X176359670Y-90205421D01*
X176339153Y-90217718D01*
X176317529Y-90227946D01*
X176295007Y-90236004D01*
X176271803Y-90241816D01*
X176248142Y-90245326D01*
X176224250Y-90246500D01*
X175311750Y-90246500D01*
X175287858Y-90245326D01*
X175264197Y-90241816D01*
X175240993Y-90236004D01*
X175218471Y-90227946D01*
X175196847Y-90217718D01*
X175176330Y-90205421D01*
X175157117Y-90191171D01*
X175139393Y-90175107D01*
X175123329Y-90157383D01*
X175109079Y-90138170D01*
X175096782Y-90117653D01*
X175086554Y-90096029D01*
X175078496Y-90073507D01*
X175072684Y-90050303D01*
X175069174Y-90026642D01*
X175068000Y-90002750D01*
X175068000Y-89515250D01*
X175069174Y-89491358D01*
X175072684Y-89467697D01*
X175078496Y-89444493D01*
X175086554Y-89421971D01*
X175096782Y-89400347D01*
X175109079Y-89379830D01*
X175123329Y-89360617D01*
X175139393Y-89342893D01*
X175157117Y-89326829D01*
X175176330Y-89312579D01*
X175196847Y-89300282D01*
X175218471Y-89290054D01*
X175240993Y-89281996D01*
X175264197Y-89276184D01*
X175287858Y-89272674D01*
X175311750Y-89271500D01*
X176224250Y-89271500D01*
X176248142Y-89272674D01*
X176248142Y-89272674D01*
G37*
D14*
X175768000Y-89759000D03*
D12*
G36*
X176248142Y-87397674D02*
G01*
X176271803Y-87401184D01*
X176295007Y-87406996D01*
X176317529Y-87415054D01*
X176339153Y-87425282D01*
X176359670Y-87437579D01*
X176378883Y-87451829D01*
X176396607Y-87467893D01*
X176412671Y-87485617D01*
X176426921Y-87504830D01*
X176439218Y-87525347D01*
X176449446Y-87546971D01*
X176457504Y-87569493D01*
X176463316Y-87592697D01*
X176466826Y-87616358D01*
X176468000Y-87640250D01*
X176468000Y-88127750D01*
X176466826Y-88151642D01*
X176463316Y-88175303D01*
X176457504Y-88198507D01*
X176449446Y-88221029D01*
X176439218Y-88242653D01*
X176426921Y-88263170D01*
X176412671Y-88282383D01*
X176396607Y-88300107D01*
X176378883Y-88316171D01*
X176359670Y-88330421D01*
X176339153Y-88342718D01*
X176317529Y-88352946D01*
X176295007Y-88361004D01*
X176271803Y-88366816D01*
X176248142Y-88370326D01*
X176224250Y-88371500D01*
X175311750Y-88371500D01*
X175287858Y-88370326D01*
X175264197Y-88366816D01*
X175240993Y-88361004D01*
X175218471Y-88352946D01*
X175196847Y-88342718D01*
X175176330Y-88330421D01*
X175157117Y-88316171D01*
X175139393Y-88300107D01*
X175123329Y-88282383D01*
X175109079Y-88263170D01*
X175096782Y-88242653D01*
X175086554Y-88221029D01*
X175078496Y-88198507D01*
X175072684Y-88175303D01*
X175069174Y-88151642D01*
X175068000Y-88127750D01*
X175068000Y-87640250D01*
X175069174Y-87616358D01*
X175072684Y-87592697D01*
X175078496Y-87569493D01*
X175086554Y-87546971D01*
X175096782Y-87525347D01*
X175109079Y-87504830D01*
X175123329Y-87485617D01*
X175139393Y-87467893D01*
X175157117Y-87451829D01*
X175176330Y-87437579D01*
X175196847Y-87425282D01*
X175218471Y-87415054D01*
X175240993Y-87406996D01*
X175264197Y-87401184D01*
X175287858Y-87397674D01*
X175311750Y-87396500D01*
X176224250Y-87396500D01*
X176248142Y-87397674D01*
X176248142Y-87397674D01*
G37*
D14*
X175768000Y-87884000D03*
D12*
G36*
X161008142Y-130836274D02*
G01*
X161031803Y-130839784D01*
X161055007Y-130845596D01*
X161077529Y-130853654D01*
X161099153Y-130863882D01*
X161119670Y-130876179D01*
X161138883Y-130890429D01*
X161156607Y-130906493D01*
X161172671Y-130924217D01*
X161186921Y-130943430D01*
X161199218Y-130963947D01*
X161209446Y-130985571D01*
X161217504Y-131008093D01*
X161223316Y-131031297D01*
X161226826Y-131054958D01*
X161228000Y-131078850D01*
X161228000Y-131566350D01*
X161226826Y-131590242D01*
X161223316Y-131613903D01*
X161217504Y-131637107D01*
X161209446Y-131659629D01*
X161199218Y-131681253D01*
X161186921Y-131701770D01*
X161172671Y-131720983D01*
X161156607Y-131738707D01*
X161138883Y-131754771D01*
X161119670Y-131769021D01*
X161099153Y-131781318D01*
X161077529Y-131791546D01*
X161055007Y-131799604D01*
X161031803Y-131805416D01*
X161008142Y-131808926D01*
X160984250Y-131810100D01*
X160071750Y-131810100D01*
X160047858Y-131808926D01*
X160024197Y-131805416D01*
X160000993Y-131799604D01*
X159978471Y-131791546D01*
X159956847Y-131781318D01*
X159936330Y-131769021D01*
X159917117Y-131754771D01*
X159899393Y-131738707D01*
X159883329Y-131720983D01*
X159869079Y-131701770D01*
X159856782Y-131681253D01*
X159846554Y-131659629D01*
X159838496Y-131637107D01*
X159832684Y-131613903D01*
X159829174Y-131590242D01*
X159828000Y-131566350D01*
X159828000Y-131078850D01*
X159829174Y-131054958D01*
X159832684Y-131031297D01*
X159838496Y-131008093D01*
X159846554Y-130985571D01*
X159856782Y-130963947D01*
X159869079Y-130943430D01*
X159883329Y-130924217D01*
X159899393Y-130906493D01*
X159917117Y-130890429D01*
X159936330Y-130876179D01*
X159956847Y-130863882D01*
X159978471Y-130853654D01*
X160000993Y-130845596D01*
X160024197Y-130839784D01*
X160047858Y-130836274D01*
X160071750Y-130835100D01*
X160984250Y-130835100D01*
X161008142Y-130836274D01*
X161008142Y-130836274D01*
G37*
D14*
X160528000Y-131322600D03*
D12*
G36*
X161008142Y-132711274D02*
G01*
X161031803Y-132714784D01*
X161055007Y-132720596D01*
X161077529Y-132728654D01*
X161099153Y-132738882D01*
X161119670Y-132751179D01*
X161138883Y-132765429D01*
X161156607Y-132781493D01*
X161172671Y-132799217D01*
X161186921Y-132818430D01*
X161199218Y-132838947D01*
X161209446Y-132860571D01*
X161217504Y-132883093D01*
X161223316Y-132906297D01*
X161226826Y-132929958D01*
X161228000Y-132953850D01*
X161228000Y-133441350D01*
X161226826Y-133465242D01*
X161223316Y-133488903D01*
X161217504Y-133512107D01*
X161209446Y-133534629D01*
X161199218Y-133556253D01*
X161186921Y-133576770D01*
X161172671Y-133595983D01*
X161156607Y-133613707D01*
X161138883Y-133629771D01*
X161119670Y-133644021D01*
X161099153Y-133656318D01*
X161077529Y-133666546D01*
X161055007Y-133674604D01*
X161031803Y-133680416D01*
X161008142Y-133683926D01*
X160984250Y-133685100D01*
X160071750Y-133685100D01*
X160047858Y-133683926D01*
X160024197Y-133680416D01*
X160000993Y-133674604D01*
X159978471Y-133666546D01*
X159956847Y-133656318D01*
X159936330Y-133644021D01*
X159917117Y-133629771D01*
X159899393Y-133613707D01*
X159883329Y-133595983D01*
X159869079Y-133576770D01*
X159856782Y-133556253D01*
X159846554Y-133534629D01*
X159838496Y-133512107D01*
X159832684Y-133488903D01*
X159829174Y-133465242D01*
X159828000Y-133441350D01*
X159828000Y-132953850D01*
X159829174Y-132929958D01*
X159832684Y-132906297D01*
X159838496Y-132883093D01*
X159846554Y-132860571D01*
X159856782Y-132838947D01*
X159869079Y-132818430D01*
X159883329Y-132799217D01*
X159899393Y-132781493D01*
X159917117Y-132765429D01*
X159936330Y-132751179D01*
X159956847Y-132738882D01*
X159978471Y-132728654D01*
X160000993Y-132720596D01*
X160024197Y-132714784D01*
X160047858Y-132711274D01*
X160071750Y-132710100D01*
X160984250Y-132710100D01*
X161008142Y-132711274D01*
X161008142Y-132711274D01*
G37*
D14*
X160528000Y-133197600D03*
D12*
G36*
X185780142Y-108051174D02*
G01*
X185803803Y-108054684D01*
X185827007Y-108060496D01*
X185849529Y-108068554D01*
X185871153Y-108078782D01*
X185891670Y-108091079D01*
X185910883Y-108105329D01*
X185928607Y-108121393D01*
X185944671Y-108139117D01*
X185958921Y-108158330D01*
X185971218Y-108178847D01*
X185981446Y-108200471D01*
X185989504Y-108222993D01*
X185995316Y-108246197D01*
X185998826Y-108269858D01*
X186000000Y-108293750D01*
X186000000Y-108781250D01*
X185998826Y-108805142D01*
X185995316Y-108828803D01*
X185989504Y-108852007D01*
X185981446Y-108874529D01*
X185971218Y-108896153D01*
X185958921Y-108916670D01*
X185944671Y-108935883D01*
X185928607Y-108953607D01*
X185910883Y-108969671D01*
X185891670Y-108983921D01*
X185871153Y-108996218D01*
X185849529Y-109006446D01*
X185827007Y-109014504D01*
X185803803Y-109020316D01*
X185780142Y-109023826D01*
X185756250Y-109025000D01*
X184843750Y-109025000D01*
X184819858Y-109023826D01*
X184796197Y-109020316D01*
X184772993Y-109014504D01*
X184750471Y-109006446D01*
X184728847Y-108996218D01*
X184708330Y-108983921D01*
X184689117Y-108969671D01*
X184671393Y-108953607D01*
X184655329Y-108935883D01*
X184641079Y-108916670D01*
X184628782Y-108896153D01*
X184618554Y-108874529D01*
X184610496Y-108852007D01*
X184604684Y-108828803D01*
X184601174Y-108805142D01*
X184600000Y-108781250D01*
X184600000Y-108293750D01*
X184601174Y-108269858D01*
X184604684Y-108246197D01*
X184610496Y-108222993D01*
X184618554Y-108200471D01*
X184628782Y-108178847D01*
X184641079Y-108158330D01*
X184655329Y-108139117D01*
X184671393Y-108121393D01*
X184689117Y-108105329D01*
X184708330Y-108091079D01*
X184728847Y-108078782D01*
X184750471Y-108068554D01*
X184772993Y-108060496D01*
X184796197Y-108054684D01*
X184819858Y-108051174D01*
X184843750Y-108050000D01*
X185756250Y-108050000D01*
X185780142Y-108051174D01*
X185780142Y-108051174D01*
G37*
D14*
X185300000Y-108537500D03*
D12*
G36*
X185780142Y-106176174D02*
G01*
X185803803Y-106179684D01*
X185827007Y-106185496D01*
X185849529Y-106193554D01*
X185871153Y-106203782D01*
X185891670Y-106216079D01*
X185910883Y-106230329D01*
X185928607Y-106246393D01*
X185944671Y-106264117D01*
X185958921Y-106283330D01*
X185971218Y-106303847D01*
X185981446Y-106325471D01*
X185989504Y-106347993D01*
X185995316Y-106371197D01*
X185998826Y-106394858D01*
X186000000Y-106418750D01*
X186000000Y-106906250D01*
X185998826Y-106930142D01*
X185995316Y-106953803D01*
X185989504Y-106977007D01*
X185981446Y-106999529D01*
X185971218Y-107021153D01*
X185958921Y-107041670D01*
X185944671Y-107060883D01*
X185928607Y-107078607D01*
X185910883Y-107094671D01*
X185891670Y-107108921D01*
X185871153Y-107121218D01*
X185849529Y-107131446D01*
X185827007Y-107139504D01*
X185803803Y-107145316D01*
X185780142Y-107148826D01*
X185756250Y-107150000D01*
X184843750Y-107150000D01*
X184819858Y-107148826D01*
X184796197Y-107145316D01*
X184772993Y-107139504D01*
X184750471Y-107131446D01*
X184728847Y-107121218D01*
X184708330Y-107108921D01*
X184689117Y-107094671D01*
X184671393Y-107078607D01*
X184655329Y-107060883D01*
X184641079Y-107041670D01*
X184628782Y-107021153D01*
X184618554Y-106999529D01*
X184610496Y-106977007D01*
X184604684Y-106953803D01*
X184601174Y-106930142D01*
X184600000Y-106906250D01*
X184600000Y-106418750D01*
X184601174Y-106394858D01*
X184604684Y-106371197D01*
X184610496Y-106347993D01*
X184618554Y-106325471D01*
X184628782Y-106303847D01*
X184641079Y-106283330D01*
X184655329Y-106264117D01*
X184671393Y-106246393D01*
X184689117Y-106230329D01*
X184708330Y-106216079D01*
X184728847Y-106203782D01*
X184750471Y-106193554D01*
X184772993Y-106185496D01*
X184796197Y-106179684D01*
X184819858Y-106176174D01*
X184843750Y-106175000D01*
X185756250Y-106175000D01*
X185780142Y-106176174D01*
X185780142Y-106176174D01*
G37*
D14*
X185300000Y-106662500D03*
D12*
G36*
X171380142Y-105851174D02*
G01*
X171403803Y-105854684D01*
X171427007Y-105860496D01*
X171449529Y-105868554D01*
X171471153Y-105878782D01*
X171491670Y-105891079D01*
X171510883Y-105905329D01*
X171528607Y-105921393D01*
X171544671Y-105939117D01*
X171558921Y-105958330D01*
X171571218Y-105978847D01*
X171581446Y-106000471D01*
X171589504Y-106022993D01*
X171595316Y-106046197D01*
X171598826Y-106069858D01*
X171600000Y-106093750D01*
X171600000Y-106581250D01*
X171598826Y-106605142D01*
X171595316Y-106628803D01*
X171589504Y-106652007D01*
X171581446Y-106674529D01*
X171571218Y-106696153D01*
X171558921Y-106716670D01*
X171544671Y-106735883D01*
X171528607Y-106753607D01*
X171510883Y-106769671D01*
X171491670Y-106783921D01*
X171471153Y-106796218D01*
X171449529Y-106806446D01*
X171427007Y-106814504D01*
X171403803Y-106820316D01*
X171380142Y-106823826D01*
X171356250Y-106825000D01*
X170443750Y-106825000D01*
X170419858Y-106823826D01*
X170396197Y-106820316D01*
X170372993Y-106814504D01*
X170350471Y-106806446D01*
X170328847Y-106796218D01*
X170308330Y-106783921D01*
X170289117Y-106769671D01*
X170271393Y-106753607D01*
X170255329Y-106735883D01*
X170241079Y-106716670D01*
X170228782Y-106696153D01*
X170218554Y-106674529D01*
X170210496Y-106652007D01*
X170204684Y-106628803D01*
X170201174Y-106605142D01*
X170200000Y-106581250D01*
X170200000Y-106093750D01*
X170201174Y-106069858D01*
X170204684Y-106046197D01*
X170210496Y-106022993D01*
X170218554Y-106000471D01*
X170228782Y-105978847D01*
X170241079Y-105958330D01*
X170255329Y-105939117D01*
X170271393Y-105921393D01*
X170289117Y-105905329D01*
X170308330Y-105891079D01*
X170328847Y-105878782D01*
X170350471Y-105868554D01*
X170372993Y-105860496D01*
X170396197Y-105854684D01*
X170419858Y-105851174D01*
X170443750Y-105850000D01*
X171356250Y-105850000D01*
X171380142Y-105851174D01*
X171380142Y-105851174D01*
G37*
D14*
X170900000Y-106337500D03*
D12*
G36*
X171380142Y-103976174D02*
G01*
X171403803Y-103979684D01*
X171427007Y-103985496D01*
X171449529Y-103993554D01*
X171471153Y-104003782D01*
X171491670Y-104016079D01*
X171510883Y-104030329D01*
X171528607Y-104046393D01*
X171544671Y-104064117D01*
X171558921Y-104083330D01*
X171571218Y-104103847D01*
X171581446Y-104125471D01*
X171589504Y-104147993D01*
X171595316Y-104171197D01*
X171598826Y-104194858D01*
X171600000Y-104218750D01*
X171600000Y-104706250D01*
X171598826Y-104730142D01*
X171595316Y-104753803D01*
X171589504Y-104777007D01*
X171581446Y-104799529D01*
X171571218Y-104821153D01*
X171558921Y-104841670D01*
X171544671Y-104860883D01*
X171528607Y-104878607D01*
X171510883Y-104894671D01*
X171491670Y-104908921D01*
X171471153Y-104921218D01*
X171449529Y-104931446D01*
X171427007Y-104939504D01*
X171403803Y-104945316D01*
X171380142Y-104948826D01*
X171356250Y-104950000D01*
X170443750Y-104950000D01*
X170419858Y-104948826D01*
X170396197Y-104945316D01*
X170372993Y-104939504D01*
X170350471Y-104931446D01*
X170328847Y-104921218D01*
X170308330Y-104908921D01*
X170289117Y-104894671D01*
X170271393Y-104878607D01*
X170255329Y-104860883D01*
X170241079Y-104841670D01*
X170228782Y-104821153D01*
X170218554Y-104799529D01*
X170210496Y-104777007D01*
X170204684Y-104753803D01*
X170201174Y-104730142D01*
X170200000Y-104706250D01*
X170200000Y-104218750D01*
X170201174Y-104194858D01*
X170204684Y-104171197D01*
X170210496Y-104147993D01*
X170218554Y-104125471D01*
X170228782Y-104103847D01*
X170241079Y-104083330D01*
X170255329Y-104064117D01*
X170271393Y-104046393D01*
X170289117Y-104030329D01*
X170308330Y-104016079D01*
X170328847Y-104003782D01*
X170350471Y-103993554D01*
X170372993Y-103985496D01*
X170396197Y-103979684D01*
X170419858Y-103976174D01*
X170443750Y-103975000D01*
X171356250Y-103975000D01*
X171380142Y-103976174D01*
X171380142Y-103976174D01*
G37*
D14*
X170900000Y-104462500D03*
D12*
G36*
X170630142Y-108653174D02*
G01*
X170653803Y-108656684D01*
X170677007Y-108662496D01*
X170699529Y-108670554D01*
X170721153Y-108680782D01*
X170741670Y-108693079D01*
X170760883Y-108707329D01*
X170778607Y-108723393D01*
X170794671Y-108741117D01*
X170808921Y-108760330D01*
X170821218Y-108780847D01*
X170831446Y-108802471D01*
X170839504Y-108824993D01*
X170845316Y-108848197D01*
X170848826Y-108871858D01*
X170850000Y-108895750D01*
X170850000Y-109808250D01*
X170848826Y-109832142D01*
X170845316Y-109855803D01*
X170839504Y-109879007D01*
X170831446Y-109901529D01*
X170821218Y-109923153D01*
X170808921Y-109943670D01*
X170794671Y-109962883D01*
X170778607Y-109980607D01*
X170760883Y-109996671D01*
X170741670Y-110010921D01*
X170721153Y-110023218D01*
X170699529Y-110033446D01*
X170677007Y-110041504D01*
X170653803Y-110047316D01*
X170630142Y-110050826D01*
X170606250Y-110052000D01*
X170118750Y-110052000D01*
X170094858Y-110050826D01*
X170071197Y-110047316D01*
X170047993Y-110041504D01*
X170025471Y-110033446D01*
X170003847Y-110023218D01*
X169983330Y-110010921D01*
X169964117Y-109996671D01*
X169946393Y-109980607D01*
X169930329Y-109962883D01*
X169916079Y-109943670D01*
X169903782Y-109923153D01*
X169893554Y-109901529D01*
X169885496Y-109879007D01*
X169879684Y-109855803D01*
X169876174Y-109832142D01*
X169875000Y-109808250D01*
X169875000Y-108895750D01*
X169876174Y-108871858D01*
X169879684Y-108848197D01*
X169885496Y-108824993D01*
X169893554Y-108802471D01*
X169903782Y-108780847D01*
X169916079Y-108760330D01*
X169930329Y-108741117D01*
X169946393Y-108723393D01*
X169964117Y-108707329D01*
X169983330Y-108693079D01*
X170003847Y-108680782D01*
X170025471Y-108670554D01*
X170047993Y-108662496D01*
X170071197Y-108656684D01*
X170094858Y-108653174D01*
X170118750Y-108652000D01*
X170606250Y-108652000D01*
X170630142Y-108653174D01*
X170630142Y-108653174D01*
G37*
D14*
X170362500Y-109352000D03*
D12*
G36*
X172505142Y-108653174D02*
G01*
X172528803Y-108656684D01*
X172552007Y-108662496D01*
X172574529Y-108670554D01*
X172596153Y-108680782D01*
X172616670Y-108693079D01*
X172635883Y-108707329D01*
X172653607Y-108723393D01*
X172669671Y-108741117D01*
X172683921Y-108760330D01*
X172696218Y-108780847D01*
X172706446Y-108802471D01*
X172714504Y-108824993D01*
X172720316Y-108848197D01*
X172723826Y-108871858D01*
X172725000Y-108895750D01*
X172725000Y-109808250D01*
X172723826Y-109832142D01*
X172720316Y-109855803D01*
X172714504Y-109879007D01*
X172706446Y-109901529D01*
X172696218Y-109923153D01*
X172683921Y-109943670D01*
X172669671Y-109962883D01*
X172653607Y-109980607D01*
X172635883Y-109996671D01*
X172616670Y-110010921D01*
X172596153Y-110023218D01*
X172574529Y-110033446D01*
X172552007Y-110041504D01*
X172528803Y-110047316D01*
X172505142Y-110050826D01*
X172481250Y-110052000D01*
X171993750Y-110052000D01*
X171969858Y-110050826D01*
X171946197Y-110047316D01*
X171922993Y-110041504D01*
X171900471Y-110033446D01*
X171878847Y-110023218D01*
X171858330Y-110010921D01*
X171839117Y-109996671D01*
X171821393Y-109980607D01*
X171805329Y-109962883D01*
X171791079Y-109943670D01*
X171778782Y-109923153D01*
X171768554Y-109901529D01*
X171760496Y-109879007D01*
X171754684Y-109855803D01*
X171751174Y-109832142D01*
X171750000Y-109808250D01*
X171750000Y-108895750D01*
X171751174Y-108871858D01*
X171754684Y-108848197D01*
X171760496Y-108824993D01*
X171768554Y-108802471D01*
X171778782Y-108780847D01*
X171791079Y-108760330D01*
X171805329Y-108741117D01*
X171821393Y-108723393D01*
X171839117Y-108707329D01*
X171858330Y-108693079D01*
X171878847Y-108680782D01*
X171900471Y-108670554D01*
X171922993Y-108662496D01*
X171946197Y-108656684D01*
X171969858Y-108653174D01*
X171993750Y-108652000D01*
X172481250Y-108652000D01*
X172505142Y-108653174D01*
X172505142Y-108653174D01*
G37*
D14*
X172237500Y-109352000D03*
D12*
G36*
X171181942Y-133260774D02*
G01*
X171205603Y-133264284D01*
X171228807Y-133270096D01*
X171251329Y-133278154D01*
X171272953Y-133288382D01*
X171293470Y-133300679D01*
X171312683Y-133314929D01*
X171330407Y-133330993D01*
X171346471Y-133348717D01*
X171360721Y-133367930D01*
X171373018Y-133388447D01*
X171383246Y-133410071D01*
X171391304Y-133432593D01*
X171397116Y-133455797D01*
X171400626Y-133479458D01*
X171401800Y-133503350D01*
X171401800Y-134415850D01*
X171400626Y-134439742D01*
X171397116Y-134463403D01*
X171391304Y-134486607D01*
X171383246Y-134509129D01*
X171373018Y-134530753D01*
X171360721Y-134551270D01*
X171346471Y-134570483D01*
X171330407Y-134588207D01*
X171312683Y-134604271D01*
X171293470Y-134618521D01*
X171272953Y-134630818D01*
X171251329Y-134641046D01*
X171228807Y-134649104D01*
X171205603Y-134654916D01*
X171181942Y-134658426D01*
X171158050Y-134659600D01*
X170670550Y-134659600D01*
X170646658Y-134658426D01*
X170622997Y-134654916D01*
X170599793Y-134649104D01*
X170577271Y-134641046D01*
X170555647Y-134630818D01*
X170535130Y-134618521D01*
X170515917Y-134604271D01*
X170498193Y-134588207D01*
X170482129Y-134570483D01*
X170467879Y-134551270D01*
X170455582Y-134530753D01*
X170445354Y-134509129D01*
X170437296Y-134486607D01*
X170431484Y-134463403D01*
X170427974Y-134439742D01*
X170426800Y-134415850D01*
X170426800Y-133503350D01*
X170427974Y-133479458D01*
X170431484Y-133455797D01*
X170437296Y-133432593D01*
X170445354Y-133410071D01*
X170455582Y-133388447D01*
X170467879Y-133367930D01*
X170482129Y-133348717D01*
X170498193Y-133330993D01*
X170515917Y-133314929D01*
X170535130Y-133300679D01*
X170555647Y-133288382D01*
X170577271Y-133278154D01*
X170599793Y-133270096D01*
X170622997Y-133264284D01*
X170646658Y-133260774D01*
X170670550Y-133259600D01*
X171158050Y-133259600D01*
X171181942Y-133260774D01*
X171181942Y-133260774D01*
G37*
D14*
X170914300Y-133959600D03*
D12*
G36*
X169306942Y-133260774D02*
G01*
X169330603Y-133264284D01*
X169353807Y-133270096D01*
X169376329Y-133278154D01*
X169397953Y-133288382D01*
X169418470Y-133300679D01*
X169437683Y-133314929D01*
X169455407Y-133330993D01*
X169471471Y-133348717D01*
X169485721Y-133367930D01*
X169498018Y-133388447D01*
X169508246Y-133410071D01*
X169516304Y-133432593D01*
X169522116Y-133455797D01*
X169525626Y-133479458D01*
X169526800Y-133503350D01*
X169526800Y-134415850D01*
X169525626Y-134439742D01*
X169522116Y-134463403D01*
X169516304Y-134486607D01*
X169508246Y-134509129D01*
X169498018Y-134530753D01*
X169485721Y-134551270D01*
X169471471Y-134570483D01*
X169455407Y-134588207D01*
X169437683Y-134604271D01*
X169418470Y-134618521D01*
X169397953Y-134630818D01*
X169376329Y-134641046D01*
X169353807Y-134649104D01*
X169330603Y-134654916D01*
X169306942Y-134658426D01*
X169283050Y-134659600D01*
X168795550Y-134659600D01*
X168771658Y-134658426D01*
X168747997Y-134654916D01*
X168724793Y-134649104D01*
X168702271Y-134641046D01*
X168680647Y-134630818D01*
X168660130Y-134618521D01*
X168640917Y-134604271D01*
X168623193Y-134588207D01*
X168607129Y-134570483D01*
X168592879Y-134551270D01*
X168580582Y-134530753D01*
X168570354Y-134509129D01*
X168562296Y-134486607D01*
X168556484Y-134463403D01*
X168552974Y-134439742D01*
X168551800Y-134415850D01*
X168551800Y-133503350D01*
X168552974Y-133479458D01*
X168556484Y-133455797D01*
X168562296Y-133432593D01*
X168570354Y-133410071D01*
X168580582Y-133388447D01*
X168592879Y-133367930D01*
X168607129Y-133348717D01*
X168623193Y-133330993D01*
X168640917Y-133314929D01*
X168660130Y-133300679D01*
X168680647Y-133288382D01*
X168702271Y-133278154D01*
X168724793Y-133270096D01*
X168747997Y-133264284D01*
X168771658Y-133260774D01*
X168795550Y-133259600D01*
X169283050Y-133259600D01*
X169306942Y-133260774D01*
X169306942Y-133260774D01*
G37*
D14*
X169039300Y-133959600D03*
D12*
G36*
X165072142Y-129589374D02*
G01*
X165095803Y-129592884D01*
X165119007Y-129598696D01*
X165141529Y-129606754D01*
X165163153Y-129616982D01*
X165183670Y-129629279D01*
X165202883Y-129643529D01*
X165220607Y-129659593D01*
X165236671Y-129677317D01*
X165250921Y-129696530D01*
X165263218Y-129717047D01*
X165273446Y-129738671D01*
X165281504Y-129761193D01*
X165287316Y-129784397D01*
X165290826Y-129808058D01*
X165292000Y-129831950D01*
X165292000Y-130319450D01*
X165290826Y-130343342D01*
X165287316Y-130367003D01*
X165281504Y-130390207D01*
X165273446Y-130412729D01*
X165263218Y-130434353D01*
X165250921Y-130454870D01*
X165236671Y-130474083D01*
X165220607Y-130491807D01*
X165202883Y-130507871D01*
X165183670Y-130522121D01*
X165163153Y-130534418D01*
X165141529Y-130544646D01*
X165119007Y-130552704D01*
X165095803Y-130558516D01*
X165072142Y-130562026D01*
X165048250Y-130563200D01*
X164135750Y-130563200D01*
X164111858Y-130562026D01*
X164088197Y-130558516D01*
X164064993Y-130552704D01*
X164042471Y-130544646D01*
X164020847Y-130534418D01*
X164000330Y-130522121D01*
X163981117Y-130507871D01*
X163963393Y-130491807D01*
X163947329Y-130474083D01*
X163933079Y-130454870D01*
X163920782Y-130434353D01*
X163910554Y-130412729D01*
X163902496Y-130390207D01*
X163896684Y-130367003D01*
X163893174Y-130343342D01*
X163892000Y-130319450D01*
X163892000Y-129831950D01*
X163893174Y-129808058D01*
X163896684Y-129784397D01*
X163902496Y-129761193D01*
X163910554Y-129738671D01*
X163920782Y-129717047D01*
X163933079Y-129696530D01*
X163947329Y-129677317D01*
X163963393Y-129659593D01*
X163981117Y-129643529D01*
X164000330Y-129629279D01*
X164020847Y-129616982D01*
X164042471Y-129606754D01*
X164064993Y-129598696D01*
X164088197Y-129592884D01*
X164111858Y-129589374D01*
X164135750Y-129588200D01*
X165048250Y-129588200D01*
X165072142Y-129589374D01*
X165072142Y-129589374D01*
G37*
D14*
X164592000Y-130075700D03*
D12*
G36*
X165072142Y-131464374D02*
G01*
X165095803Y-131467884D01*
X165119007Y-131473696D01*
X165141529Y-131481754D01*
X165163153Y-131491982D01*
X165183670Y-131504279D01*
X165202883Y-131518529D01*
X165220607Y-131534593D01*
X165236671Y-131552317D01*
X165250921Y-131571530D01*
X165263218Y-131592047D01*
X165273446Y-131613671D01*
X165281504Y-131636193D01*
X165287316Y-131659397D01*
X165290826Y-131683058D01*
X165292000Y-131706950D01*
X165292000Y-132194450D01*
X165290826Y-132218342D01*
X165287316Y-132242003D01*
X165281504Y-132265207D01*
X165273446Y-132287729D01*
X165263218Y-132309353D01*
X165250921Y-132329870D01*
X165236671Y-132349083D01*
X165220607Y-132366807D01*
X165202883Y-132382871D01*
X165183670Y-132397121D01*
X165163153Y-132409418D01*
X165141529Y-132419646D01*
X165119007Y-132427704D01*
X165095803Y-132433516D01*
X165072142Y-132437026D01*
X165048250Y-132438200D01*
X164135750Y-132438200D01*
X164111858Y-132437026D01*
X164088197Y-132433516D01*
X164064993Y-132427704D01*
X164042471Y-132419646D01*
X164020847Y-132409418D01*
X164000330Y-132397121D01*
X163981117Y-132382871D01*
X163963393Y-132366807D01*
X163947329Y-132349083D01*
X163933079Y-132329870D01*
X163920782Y-132309353D01*
X163910554Y-132287729D01*
X163902496Y-132265207D01*
X163896684Y-132242003D01*
X163893174Y-132218342D01*
X163892000Y-132194450D01*
X163892000Y-131706950D01*
X163893174Y-131683058D01*
X163896684Y-131659397D01*
X163902496Y-131636193D01*
X163910554Y-131613671D01*
X163920782Y-131592047D01*
X163933079Y-131571530D01*
X163947329Y-131552317D01*
X163963393Y-131534593D01*
X163981117Y-131518529D01*
X164000330Y-131504279D01*
X164020847Y-131491982D01*
X164042471Y-131481754D01*
X164064993Y-131473696D01*
X164088197Y-131467884D01*
X164111858Y-131464374D01*
X164135750Y-131463200D01*
X165048250Y-131463200D01*
X165072142Y-131464374D01*
X165072142Y-131464374D01*
G37*
D14*
X164592000Y-131950700D03*
D12*
G36*
X167561342Y-129102174D02*
G01*
X167585003Y-129105684D01*
X167608207Y-129111496D01*
X167630729Y-129119554D01*
X167652353Y-129129782D01*
X167672870Y-129142079D01*
X167692083Y-129156329D01*
X167709807Y-129172393D01*
X167725871Y-129190117D01*
X167740121Y-129209330D01*
X167752418Y-129229847D01*
X167762646Y-129251471D01*
X167770704Y-129273993D01*
X167776516Y-129297197D01*
X167780026Y-129320858D01*
X167781200Y-129344750D01*
X167781200Y-129832250D01*
X167780026Y-129856142D01*
X167776516Y-129879803D01*
X167770704Y-129903007D01*
X167762646Y-129925529D01*
X167752418Y-129947153D01*
X167740121Y-129967670D01*
X167725871Y-129986883D01*
X167709807Y-130004607D01*
X167692083Y-130020671D01*
X167672870Y-130034921D01*
X167652353Y-130047218D01*
X167630729Y-130057446D01*
X167608207Y-130065504D01*
X167585003Y-130071316D01*
X167561342Y-130074826D01*
X167537450Y-130076000D01*
X166624950Y-130076000D01*
X166601058Y-130074826D01*
X166577397Y-130071316D01*
X166554193Y-130065504D01*
X166531671Y-130057446D01*
X166510047Y-130047218D01*
X166489530Y-130034921D01*
X166470317Y-130020671D01*
X166452593Y-130004607D01*
X166436529Y-129986883D01*
X166422279Y-129967670D01*
X166409982Y-129947153D01*
X166399754Y-129925529D01*
X166391696Y-129903007D01*
X166385884Y-129879803D01*
X166382374Y-129856142D01*
X166381200Y-129832250D01*
X166381200Y-129344750D01*
X166382374Y-129320858D01*
X166385884Y-129297197D01*
X166391696Y-129273993D01*
X166399754Y-129251471D01*
X166409982Y-129229847D01*
X166422279Y-129209330D01*
X166436529Y-129190117D01*
X166452593Y-129172393D01*
X166470317Y-129156329D01*
X166489530Y-129142079D01*
X166510047Y-129129782D01*
X166531671Y-129119554D01*
X166554193Y-129111496D01*
X166577397Y-129105684D01*
X166601058Y-129102174D01*
X166624950Y-129101000D01*
X167537450Y-129101000D01*
X167561342Y-129102174D01*
X167561342Y-129102174D01*
G37*
D14*
X167081200Y-129588500D03*
D12*
G36*
X167561342Y-127227174D02*
G01*
X167585003Y-127230684D01*
X167608207Y-127236496D01*
X167630729Y-127244554D01*
X167652353Y-127254782D01*
X167672870Y-127267079D01*
X167692083Y-127281329D01*
X167709807Y-127297393D01*
X167725871Y-127315117D01*
X167740121Y-127334330D01*
X167752418Y-127354847D01*
X167762646Y-127376471D01*
X167770704Y-127398993D01*
X167776516Y-127422197D01*
X167780026Y-127445858D01*
X167781200Y-127469750D01*
X167781200Y-127957250D01*
X167780026Y-127981142D01*
X167776516Y-128004803D01*
X167770704Y-128028007D01*
X167762646Y-128050529D01*
X167752418Y-128072153D01*
X167740121Y-128092670D01*
X167725871Y-128111883D01*
X167709807Y-128129607D01*
X167692083Y-128145671D01*
X167672870Y-128159921D01*
X167652353Y-128172218D01*
X167630729Y-128182446D01*
X167608207Y-128190504D01*
X167585003Y-128196316D01*
X167561342Y-128199826D01*
X167537450Y-128201000D01*
X166624950Y-128201000D01*
X166601058Y-128199826D01*
X166577397Y-128196316D01*
X166554193Y-128190504D01*
X166531671Y-128182446D01*
X166510047Y-128172218D01*
X166489530Y-128159921D01*
X166470317Y-128145671D01*
X166452593Y-128129607D01*
X166436529Y-128111883D01*
X166422279Y-128092670D01*
X166409982Y-128072153D01*
X166399754Y-128050529D01*
X166391696Y-128028007D01*
X166385884Y-128004803D01*
X166382374Y-127981142D01*
X166381200Y-127957250D01*
X166381200Y-127469750D01*
X166382374Y-127445858D01*
X166385884Y-127422197D01*
X166391696Y-127398993D01*
X166399754Y-127376471D01*
X166409982Y-127354847D01*
X166422279Y-127334330D01*
X166436529Y-127315117D01*
X166452593Y-127297393D01*
X166470317Y-127281329D01*
X166489530Y-127267079D01*
X166510047Y-127254782D01*
X166531671Y-127244554D01*
X166554193Y-127236496D01*
X166577397Y-127230684D01*
X166601058Y-127227174D01*
X166624950Y-127226000D01*
X167537450Y-127226000D01*
X167561342Y-127227174D01*
X167561342Y-127227174D01*
G37*
D14*
X167081200Y-127713500D03*
D12*
G36*
X177568942Y-135228174D02*
G01*
X177592603Y-135231684D01*
X177615807Y-135237496D01*
X177638329Y-135245554D01*
X177659953Y-135255782D01*
X177680470Y-135268079D01*
X177699683Y-135282329D01*
X177717407Y-135298393D01*
X177733471Y-135316117D01*
X177747721Y-135335330D01*
X177760018Y-135355847D01*
X177770246Y-135377471D01*
X177778304Y-135399993D01*
X177784116Y-135423197D01*
X177787626Y-135446858D01*
X177788800Y-135470750D01*
X177788800Y-135958250D01*
X177787626Y-135982142D01*
X177784116Y-136005803D01*
X177778304Y-136029007D01*
X177770246Y-136051529D01*
X177760018Y-136073153D01*
X177747721Y-136093670D01*
X177733471Y-136112883D01*
X177717407Y-136130607D01*
X177699683Y-136146671D01*
X177680470Y-136160921D01*
X177659953Y-136173218D01*
X177638329Y-136183446D01*
X177615807Y-136191504D01*
X177592603Y-136197316D01*
X177568942Y-136200826D01*
X177545050Y-136202000D01*
X176632550Y-136202000D01*
X176608658Y-136200826D01*
X176584997Y-136197316D01*
X176561793Y-136191504D01*
X176539271Y-136183446D01*
X176517647Y-136173218D01*
X176497130Y-136160921D01*
X176477917Y-136146671D01*
X176460193Y-136130607D01*
X176444129Y-136112883D01*
X176429879Y-136093670D01*
X176417582Y-136073153D01*
X176407354Y-136051529D01*
X176399296Y-136029007D01*
X176393484Y-136005803D01*
X176389974Y-135982142D01*
X176388800Y-135958250D01*
X176388800Y-135470750D01*
X176389974Y-135446858D01*
X176393484Y-135423197D01*
X176399296Y-135399993D01*
X176407354Y-135377471D01*
X176417582Y-135355847D01*
X176429879Y-135335330D01*
X176444129Y-135316117D01*
X176460193Y-135298393D01*
X176477917Y-135282329D01*
X176497130Y-135268079D01*
X176517647Y-135255782D01*
X176539271Y-135245554D01*
X176561793Y-135237496D01*
X176584997Y-135231684D01*
X176608658Y-135228174D01*
X176632550Y-135227000D01*
X177545050Y-135227000D01*
X177568942Y-135228174D01*
X177568942Y-135228174D01*
G37*
D14*
X177088800Y-135714500D03*
D12*
G36*
X177568942Y-137103174D02*
G01*
X177592603Y-137106684D01*
X177615807Y-137112496D01*
X177638329Y-137120554D01*
X177659953Y-137130782D01*
X177680470Y-137143079D01*
X177699683Y-137157329D01*
X177717407Y-137173393D01*
X177733471Y-137191117D01*
X177747721Y-137210330D01*
X177760018Y-137230847D01*
X177770246Y-137252471D01*
X177778304Y-137274993D01*
X177784116Y-137298197D01*
X177787626Y-137321858D01*
X177788800Y-137345750D01*
X177788800Y-137833250D01*
X177787626Y-137857142D01*
X177784116Y-137880803D01*
X177778304Y-137904007D01*
X177770246Y-137926529D01*
X177760018Y-137948153D01*
X177747721Y-137968670D01*
X177733471Y-137987883D01*
X177717407Y-138005607D01*
X177699683Y-138021671D01*
X177680470Y-138035921D01*
X177659953Y-138048218D01*
X177638329Y-138058446D01*
X177615807Y-138066504D01*
X177592603Y-138072316D01*
X177568942Y-138075826D01*
X177545050Y-138077000D01*
X176632550Y-138077000D01*
X176608658Y-138075826D01*
X176584997Y-138072316D01*
X176561793Y-138066504D01*
X176539271Y-138058446D01*
X176517647Y-138048218D01*
X176497130Y-138035921D01*
X176477917Y-138021671D01*
X176460193Y-138005607D01*
X176444129Y-137987883D01*
X176429879Y-137968670D01*
X176417582Y-137948153D01*
X176407354Y-137926529D01*
X176399296Y-137904007D01*
X176393484Y-137880803D01*
X176389974Y-137857142D01*
X176388800Y-137833250D01*
X176388800Y-137345750D01*
X176389974Y-137321858D01*
X176393484Y-137298197D01*
X176399296Y-137274993D01*
X176407354Y-137252471D01*
X176417582Y-137230847D01*
X176429879Y-137210330D01*
X176444129Y-137191117D01*
X176460193Y-137173393D01*
X176477917Y-137157329D01*
X176497130Y-137143079D01*
X176517647Y-137130782D01*
X176539271Y-137120554D01*
X176561793Y-137112496D01*
X176584997Y-137106684D01*
X176608658Y-137103174D01*
X176632550Y-137102000D01*
X177545050Y-137102000D01*
X177568942Y-137103174D01*
X177568942Y-137103174D01*
G37*
D14*
X177088800Y-137589500D03*
D12*
G36*
X177489505Y-107766204D02*
G01*
X177513773Y-107769804D01*
X177537572Y-107775765D01*
X177560671Y-107784030D01*
X177582850Y-107794520D01*
X177603893Y-107807132D01*
X177623599Y-107821747D01*
X177641777Y-107838223D01*
X177658253Y-107856401D01*
X177672868Y-107876107D01*
X177685480Y-107897150D01*
X177695970Y-107919329D01*
X177704235Y-107942428D01*
X177710196Y-107966227D01*
X177713796Y-107990495D01*
X177715000Y-108014999D01*
X177715000Y-108865001D01*
X177713796Y-108889505D01*
X177710196Y-108913773D01*
X177704235Y-108937572D01*
X177695970Y-108960671D01*
X177685480Y-108982850D01*
X177672868Y-109003893D01*
X177658253Y-109023599D01*
X177641777Y-109041777D01*
X177623599Y-109058253D01*
X177603893Y-109072868D01*
X177582850Y-109085480D01*
X177560671Y-109095970D01*
X177537572Y-109104235D01*
X177513773Y-109110196D01*
X177489505Y-109113796D01*
X177465001Y-109115000D01*
X176614999Y-109115000D01*
X176590495Y-109113796D01*
X176566227Y-109110196D01*
X176542428Y-109104235D01*
X176519329Y-109095970D01*
X176497150Y-109085480D01*
X176476107Y-109072868D01*
X176456401Y-109058253D01*
X176438223Y-109041777D01*
X176421747Y-109023599D01*
X176407132Y-109003893D01*
X176394520Y-108982850D01*
X176384030Y-108960671D01*
X176375765Y-108937572D01*
X176369804Y-108913773D01*
X176366204Y-108889505D01*
X176365000Y-108865001D01*
X176365000Y-108014999D01*
X176366204Y-107990495D01*
X176369804Y-107966227D01*
X176375765Y-107942428D01*
X176384030Y-107919329D01*
X176394520Y-107897150D01*
X176407132Y-107876107D01*
X176421747Y-107856401D01*
X176438223Y-107838223D01*
X176456401Y-107821747D01*
X176476107Y-107807132D01*
X176497150Y-107794520D01*
X176519329Y-107784030D01*
X176542428Y-107775765D01*
X176566227Y-107769804D01*
X176590495Y-107766204D01*
X176614999Y-107765000D01*
X177465001Y-107765000D01*
X177489505Y-107766204D01*
X177489505Y-107766204D01*
G37*
D17*
X177040000Y-108440000D03*
D12*
G36*
X175809505Y-107766204D02*
G01*
X175833773Y-107769804D01*
X175857572Y-107775765D01*
X175880671Y-107784030D01*
X175902850Y-107794520D01*
X175923893Y-107807132D01*
X175943599Y-107821747D01*
X175961777Y-107838223D01*
X175978253Y-107856401D01*
X175992868Y-107876107D01*
X176005480Y-107897150D01*
X176015970Y-107919329D01*
X176024235Y-107942428D01*
X176030196Y-107966227D01*
X176033796Y-107990495D01*
X176035000Y-108014999D01*
X176035000Y-108865001D01*
X176033796Y-108889505D01*
X176030196Y-108913773D01*
X176024235Y-108937572D01*
X176015970Y-108960671D01*
X176005480Y-108982850D01*
X175992868Y-109003893D01*
X175978253Y-109023599D01*
X175961777Y-109041777D01*
X175943599Y-109058253D01*
X175923893Y-109072868D01*
X175902850Y-109085480D01*
X175880671Y-109095970D01*
X175857572Y-109104235D01*
X175833773Y-109110196D01*
X175809505Y-109113796D01*
X175785001Y-109115000D01*
X174934999Y-109115000D01*
X174910495Y-109113796D01*
X174886227Y-109110196D01*
X174862428Y-109104235D01*
X174839329Y-109095970D01*
X174817150Y-109085480D01*
X174796107Y-109072868D01*
X174776401Y-109058253D01*
X174758223Y-109041777D01*
X174741747Y-109023599D01*
X174727132Y-109003893D01*
X174714520Y-108982850D01*
X174704030Y-108960671D01*
X174695765Y-108937572D01*
X174689804Y-108913773D01*
X174686204Y-108889505D01*
X174685000Y-108865001D01*
X174685000Y-108014999D01*
X174686204Y-107990495D01*
X174689804Y-107966227D01*
X174695765Y-107942428D01*
X174704030Y-107919329D01*
X174714520Y-107897150D01*
X174727132Y-107876107D01*
X174741747Y-107856401D01*
X174758223Y-107838223D01*
X174776401Y-107821747D01*
X174796107Y-107807132D01*
X174817150Y-107794520D01*
X174839329Y-107784030D01*
X174862428Y-107775765D01*
X174886227Y-107769804D01*
X174910495Y-107766204D01*
X174934999Y-107765000D01*
X175785001Y-107765000D01*
X175809505Y-107766204D01*
X175809505Y-107766204D01*
G37*
D17*
X175360000Y-108440000D03*
D12*
G36*
X177489505Y-106086204D02*
G01*
X177513773Y-106089804D01*
X177537572Y-106095765D01*
X177560671Y-106104030D01*
X177582850Y-106114520D01*
X177603893Y-106127132D01*
X177623599Y-106141747D01*
X177641777Y-106158223D01*
X177658253Y-106176401D01*
X177672868Y-106196107D01*
X177685480Y-106217150D01*
X177695970Y-106239329D01*
X177704235Y-106262428D01*
X177710196Y-106286227D01*
X177713796Y-106310495D01*
X177715000Y-106334999D01*
X177715000Y-107185001D01*
X177713796Y-107209505D01*
X177710196Y-107233773D01*
X177704235Y-107257572D01*
X177695970Y-107280671D01*
X177685480Y-107302850D01*
X177672868Y-107323893D01*
X177658253Y-107343599D01*
X177641777Y-107361777D01*
X177623599Y-107378253D01*
X177603893Y-107392868D01*
X177582850Y-107405480D01*
X177560671Y-107415970D01*
X177537572Y-107424235D01*
X177513773Y-107430196D01*
X177489505Y-107433796D01*
X177465001Y-107435000D01*
X176614999Y-107435000D01*
X176590495Y-107433796D01*
X176566227Y-107430196D01*
X176542428Y-107424235D01*
X176519329Y-107415970D01*
X176497150Y-107405480D01*
X176476107Y-107392868D01*
X176456401Y-107378253D01*
X176438223Y-107361777D01*
X176421747Y-107343599D01*
X176407132Y-107323893D01*
X176394520Y-107302850D01*
X176384030Y-107280671D01*
X176375765Y-107257572D01*
X176369804Y-107233773D01*
X176366204Y-107209505D01*
X176365000Y-107185001D01*
X176365000Y-106334999D01*
X176366204Y-106310495D01*
X176369804Y-106286227D01*
X176375765Y-106262428D01*
X176384030Y-106239329D01*
X176394520Y-106217150D01*
X176407132Y-106196107D01*
X176421747Y-106176401D01*
X176438223Y-106158223D01*
X176456401Y-106141747D01*
X176476107Y-106127132D01*
X176497150Y-106114520D01*
X176519329Y-106104030D01*
X176542428Y-106095765D01*
X176566227Y-106089804D01*
X176590495Y-106086204D01*
X176614999Y-106085000D01*
X177465001Y-106085000D01*
X177489505Y-106086204D01*
X177489505Y-106086204D01*
G37*
D17*
X177040000Y-106760000D03*
D12*
G36*
X175809505Y-106086204D02*
G01*
X175833773Y-106089804D01*
X175857572Y-106095765D01*
X175880671Y-106104030D01*
X175902850Y-106114520D01*
X175923893Y-106127132D01*
X175943599Y-106141747D01*
X175961777Y-106158223D01*
X175978253Y-106176401D01*
X175992868Y-106196107D01*
X176005480Y-106217150D01*
X176015970Y-106239329D01*
X176024235Y-106262428D01*
X176030196Y-106286227D01*
X176033796Y-106310495D01*
X176035000Y-106334999D01*
X176035000Y-107185001D01*
X176033796Y-107209505D01*
X176030196Y-107233773D01*
X176024235Y-107257572D01*
X176015970Y-107280671D01*
X176005480Y-107302850D01*
X175992868Y-107323893D01*
X175978253Y-107343599D01*
X175961777Y-107361777D01*
X175943599Y-107378253D01*
X175923893Y-107392868D01*
X175902850Y-107405480D01*
X175880671Y-107415970D01*
X175857572Y-107424235D01*
X175833773Y-107430196D01*
X175809505Y-107433796D01*
X175785001Y-107435000D01*
X174934999Y-107435000D01*
X174910495Y-107433796D01*
X174886227Y-107430196D01*
X174862428Y-107424235D01*
X174839329Y-107415970D01*
X174817150Y-107405480D01*
X174796107Y-107392868D01*
X174776401Y-107378253D01*
X174758223Y-107361777D01*
X174741747Y-107343599D01*
X174727132Y-107323893D01*
X174714520Y-107302850D01*
X174704030Y-107280671D01*
X174695765Y-107257572D01*
X174689804Y-107233773D01*
X174686204Y-107209505D01*
X174685000Y-107185001D01*
X174685000Y-106334999D01*
X174686204Y-106310495D01*
X174689804Y-106286227D01*
X174695765Y-106262428D01*
X174704030Y-106239329D01*
X174714520Y-106217150D01*
X174727132Y-106196107D01*
X174741747Y-106176401D01*
X174758223Y-106158223D01*
X174776401Y-106141747D01*
X174796107Y-106127132D01*
X174817150Y-106114520D01*
X174839329Y-106104030D01*
X174862428Y-106095765D01*
X174886227Y-106089804D01*
X174910495Y-106086204D01*
X174934999Y-106085000D01*
X175785001Y-106085000D01*
X175809505Y-106086204D01*
X175809505Y-106086204D01*
G37*
D17*
X175360000Y-106760000D03*
D12*
G36*
X177582351Y-109650361D02*
G01*
X177589632Y-109651441D01*
X177596771Y-109653229D01*
X177603701Y-109655709D01*
X177610355Y-109658856D01*
X177616668Y-109662640D01*
X177622579Y-109667024D01*
X177628033Y-109671967D01*
X177632976Y-109677421D01*
X177637360Y-109683332D01*
X177641144Y-109689645D01*
X177644291Y-109696299D01*
X177646771Y-109703229D01*
X177648559Y-109710368D01*
X177649639Y-109717649D01*
X177650000Y-109725000D01*
X177650000Y-110375000D01*
X177649639Y-110382351D01*
X177648559Y-110389632D01*
X177646771Y-110396771D01*
X177644291Y-110403701D01*
X177641144Y-110410355D01*
X177637360Y-110416668D01*
X177632976Y-110422579D01*
X177628033Y-110428033D01*
X177622579Y-110432976D01*
X177616668Y-110437360D01*
X177610355Y-110441144D01*
X177603701Y-110444291D01*
X177596771Y-110446771D01*
X177589632Y-110448559D01*
X177582351Y-110449639D01*
X177575000Y-110450000D01*
X177425000Y-110450000D01*
X177417649Y-110449639D01*
X177410368Y-110448559D01*
X177403229Y-110446771D01*
X177396299Y-110444291D01*
X177389645Y-110441144D01*
X177383332Y-110437360D01*
X177377421Y-110432976D01*
X177371967Y-110428033D01*
X177367024Y-110422579D01*
X177362640Y-110416668D01*
X177358856Y-110410355D01*
X177355709Y-110403701D01*
X177353229Y-110396771D01*
X177351441Y-110389632D01*
X177350361Y-110382351D01*
X177350000Y-110375000D01*
X177350000Y-109725000D01*
X177350361Y-109717649D01*
X177351441Y-109710368D01*
X177353229Y-109703229D01*
X177355709Y-109696299D01*
X177358856Y-109689645D01*
X177362640Y-109683332D01*
X177367024Y-109677421D01*
X177371967Y-109671967D01*
X177377421Y-109667024D01*
X177383332Y-109662640D01*
X177389645Y-109658856D01*
X177396299Y-109655709D01*
X177403229Y-109653229D01*
X177410368Y-109651441D01*
X177417649Y-109650361D01*
X177425000Y-109650000D01*
X177575000Y-109650000D01*
X177582351Y-109650361D01*
X177582351Y-109650361D01*
G37*
D18*
X177500000Y-110050000D03*
D12*
G36*
X176932351Y-109650361D02*
G01*
X176939632Y-109651441D01*
X176946771Y-109653229D01*
X176953701Y-109655709D01*
X176960355Y-109658856D01*
X176966668Y-109662640D01*
X176972579Y-109667024D01*
X176978033Y-109671967D01*
X176982976Y-109677421D01*
X176987360Y-109683332D01*
X176991144Y-109689645D01*
X176994291Y-109696299D01*
X176996771Y-109703229D01*
X176998559Y-109710368D01*
X176999639Y-109717649D01*
X177000000Y-109725000D01*
X177000000Y-110375000D01*
X176999639Y-110382351D01*
X176998559Y-110389632D01*
X176996771Y-110396771D01*
X176994291Y-110403701D01*
X176991144Y-110410355D01*
X176987360Y-110416668D01*
X176982976Y-110422579D01*
X176978033Y-110428033D01*
X176972579Y-110432976D01*
X176966668Y-110437360D01*
X176960355Y-110441144D01*
X176953701Y-110444291D01*
X176946771Y-110446771D01*
X176939632Y-110448559D01*
X176932351Y-110449639D01*
X176925000Y-110450000D01*
X176775000Y-110450000D01*
X176767649Y-110449639D01*
X176760368Y-110448559D01*
X176753229Y-110446771D01*
X176746299Y-110444291D01*
X176739645Y-110441144D01*
X176733332Y-110437360D01*
X176727421Y-110432976D01*
X176721967Y-110428033D01*
X176717024Y-110422579D01*
X176712640Y-110416668D01*
X176708856Y-110410355D01*
X176705709Y-110403701D01*
X176703229Y-110396771D01*
X176701441Y-110389632D01*
X176700361Y-110382351D01*
X176700000Y-110375000D01*
X176700000Y-109725000D01*
X176700361Y-109717649D01*
X176701441Y-109710368D01*
X176703229Y-109703229D01*
X176705709Y-109696299D01*
X176708856Y-109689645D01*
X176712640Y-109683332D01*
X176717024Y-109677421D01*
X176721967Y-109671967D01*
X176727421Y-109667024D01*
X176733332Y-109662640D01*
X176739645Y-109658856D01*
X176746299Y-109655709D01*
X176753229Y-109653229D01*
X176760368Y-109651441D01*
X176767649Y-109650361D01*
X176775000Y-109650000D01*
X176925000Y-109650000D01*
X176932351Y-109650361D01*
X176932351Y-109650361D01*
G37*
D18*
X176850000Y-110050000D03*
D12*
G36*
X176282351Y-109650361D02*
G01*
X176289632Y-109651441D01*
X176296771Y-109653229D01*
X176303701Y-109655709D01*
X176310355Y-109658856D01*
X176316668Y-109662640D01*
X176322579Y-109667024D01*
X176328033Y-109671967D01*
X176332976Y-109677421D01*
X176337360Y-109683332D01*
X176341144Y-109689645D01*
X176344291Y-109696299D01*
X176346771Y-109703229D01*
X176348559Y-109710368D01*
X176349639Y-109717649D01*
X176350000Y-109725000D01*
X176350000Y-110375000D01*
X176349639Y-110382351D01*
X176348559Y-110389632D01*
X176346771Y-110396771D01*
X176344291Y-110403701D01*
X176341144Y-110410355D01*
X176337360Y-110416668D01*
X176332976Y-110422579D01*
X176328033Y-110428033D01*
X176322579Y-110432976D01*
X176316668Y-110437360D01*
X176310355Y-110441144D01*
X176303701Y-110444291D01*
X176296771Y-110446771D01*
X176289632Y-110448559D01*
X176282351Y-110449639D01*
X176275000Y-110450000D01*
X176125000Y-110450000D01*
X176117649Y-110449639D01*
X176110368Y-110448559D01*
X176103229Y-110446771D01*
X176096299Y-110444291D01*
X176089645Y-110441144D01*
X176083332Y-110437360D01*
X176077421Y-110432976D01*
X176071967Y-110428033D01*
X176067024Y-110422579D01*
X176062640Y-110416668D01*
X176058856Y-110410355D01*
X176055709Y-110403701D01*
X176053229Y-110396771D01*
X176051441Y-110389632D01*
X176050361Y-110382351D01*
X176050000Y-110375000D01*
X176050000Y-109725000D01*
X176050361Y-109717649D01*
X176051441Y-109710368D01*
X176053229Y-109703229D01*
X176055709Y-109696299D01*
X176058856Y-109689645D01*
X176062640Y-109683332D01*
X176067024Y-109677421D01*
X176071967Y-109671967D01*
X176077421Y-109667024D01*
X176083332Y-109662640D01*
X176089645Y-109658856D01*
X176096299Y-109655709D01*
X176103229Y-109653229D01*
X176110368Y-109651441D01*
X176117649Y-109650361D01*
X176125000Y-109650000D01*
X176275000Y-109650000D01*
X176282351Y-109650361D01*
X176282351Y-109650361D01*
G37*
D18*
X176200000Y-110050000D03*
D12*
G36*
X175632351Y-109650361D02*
G01*
X175639632Y-109651441D01*
X175646771Y-109653229D01*
X175653701Y-109655709D01*
X175660355Y-109658856D01*
X175666668Y-109662640D01*
X175672579Y-109667024D01*
X175678033Y-109671967D01*
X175682976Y-109677421D01*
X175687360Y-109683332D01*
X175691144Y-109689645D01*
X175694291Y-109696299D01*
X175696771Y-109703229D01*
X175698559Y-109710368D01*
X175699639Y-109717649D01*
X175700000Y-109725000D01*
X175700000Y-110375000D01*
X175699639Y-110382351D01*
X175698559Y-110389632D01*
X175696771Y-110396771D01*
X175694291Y-110403701D01*
X175691144Y-110410355D01*
X175687360Y-110416668D01*
X175682976Y-110422579D01*
X175678033Y-110428033D01*
X175672579Y-110432976D01*
X175666668Y-110437360D01*
X175660355Y-110441144D01*
X175653701Y-110444291D01*
X175646771Y-110446771D01*
X175639632Y-110448559D01*
X175632351Y-110449639D01*
X175625000Y-110450000D01*
X175475000Y-110450000D01*
X175467649Y-110449639D01*
X175460368Y-110448559D01*
X175453229Y-110446771D01*
X175446299Y-110444291D01*
X175439645Y-110441144D01*
X175433332Y-110437360D01*
X175427421Y-110432976D01*
X175421967Y-110428033D01*
X175417024Y-110422579D01*
X175412640Y-110416668D01*
X175408856Y-110410355D01*
X175405709Y-110403701D01*
X175403229Y-110396771D01*
X175401441Y-110389632D01*
X175400361Y-110382351D01*
X175400000Y-110375000D01*
X175400000Y-109725000D01*
X175400361Y-109717649D01*
X175401441Y-109710368D01*
X175403229Y-109703229D01*
X175405709Y-109696299D01*
X175408856Y-109689645D01*
X175412640Y-109683332D01*
X175417024Y-109677421D01*
X175421967Y-109671967D01*
X175427421Y-109667024D01*
X175433332Y-109662640D01*
X175439645Y-109658856D01*
X175446299Y-109655709D01*
X175453229Y-109653229D01*
X175460368Y-109651441D01*
X175467649Y-109650361D01*
X175475000Y-109650000D01*
X175625000Y-109650000D01*
X175632351Y-109650361D01*
X175632351Y-109650361D01*
G37*
D18*
X175550000Y-110050000D03*
D12*
G36*
X174982351Y-109650361D02*
G01*
X174989632Y-109651441D01*
X174996771Y-109653229D01*
X175003701Y-109655709D01*
X175010355Y-109658856D01*
X175016668Y-109662640D01*
X175022579Y-109667024D01*
X175028033Y-109671967D01*
X175032976Y-109677421D01*
X175037360Y-109683332D01*
X175041144Y-109689645D01*
X175044291Y-109696299D01*
X175046771Y-109703229D01*
X175048559Y-109710368D01*
X175049639Y-109717649D01*
X175050000Y-109725000D01*
X175050000Y-110375000D01*
X175049639Y-110382351D01*
X175048559Y-110389632D01*
X175046771Y-110396771D01*
X175044291Y-110403701D01*
X175041144Y-110410355D01*
X175037360Y-110416668D01*
X175032976Y-110422579D01*
X175028033Y-110428033D01*
X175022579Y-110432976D01*
X175016668Y-110437360D01*
X175010355Y-110441144D01*
X175003701Y-110444291D01*
X174996771Y-110446771D01*
X174989632Y-110448559D01*
X174982351Y-110449639D01*
X174975000Y-110450000D01*
X174825000Y-110450000D01*
X174817649Y-110449639D01*
X174810368Y-110448559D01*
X174803229Y-110446771D01*
X174796299Y-110444291D01*
X174789645Y-110441144D01*
X174783332Y-110437360D01*
X174777421Y-110432976D01*
X174771967Y-110428033D01*
X174767024Y-110422579D01*
X174762640Y-110416668D01*
X174758856Y-110410355D01*
X174755709Y-110403701D01*
X174753229Y-110396771D01*
X174751441Y-110389632D01*
X174750361Y-110382351D01*
X174750000Y-110375000D01*
X174750000Y-109725000D01*
X174750361Y-109717649D01*
X174751441Y-109710368D01*
X174753229Y-109703229D01*
X174755709Y-109696299D01*
X174758856Y-109689645D01*
X174762640Y-109683332D01*
X174767024Y-109677421D01*
X174771967Y-109671967D01*
X174777421Y-109667024D01*
X174783332Y-109662640D01*
X174789645Y-109658856D01*
X174796299Y-109655709D01*
X174803229Y-109653229D01*
X174810368Y-109651441D01*
X174817649Y-109650361D01*
X174825000Y-109650000D01*
X174975000Y-109650000D01*
X174982351Y-109650361D01*
X174982351Y-109650361D01*
G37*
D18*
X174900000Y-110050000D03*
D12*
G36*
X174082351Y-108750361D02*
G01*
X174089632Y-108751441D01*
X174096771Y-108753229D01*
X174103701Y-108755709D01*
X174110355Y-108758856D01*
X174116668Y-108762640D01*
X174122579Y-108767024D01*
X174128033Y-108771967D01*
X174132976Y-108777421D01*
X174137360Y-108783332D01*
X174141144Y-108789645D01*
X174144291Y-108796299D01*
X174146771Y-108803229D01*
X174148559Y-108810368D01*
X174149639Y-108817649D01*
X174150000Y-108825000D01*
X174150000Y-108975000D01*
X174149639Y-108982351D01*
X174148559Y-108989632D01*
X174146771Y-108996771D01*
X174144291Y-109003701D01*
X174141144Y-109010355D01*
X174137360Y-109016668D01*
X174132976Y-109022579D01*
X174128033Y-109028033D01*
X174122579Y-109032976D01*
X174116668Y-109037360D01*
X174110355Y-109041144D01*
X174103701Y-109044291D01*
X174096771Y-109046771D01*
X174089632Y-109048559D01*
X174082351Y-109049639D01*
X174075000Y-109050000D01*
X173425000Y-109050000D01*
X173417649Y-109049639D01*
X173410368Y-109048559D01*
X173403229Y-109046771D01*
X173396299Y-109044291D01*
X173389645Y-109041144D01*
X173383332Y-109037360D01*
X173377421Y-109032976D01*
X173371967Y-109028033D01*
X173367024Y-109022579D01*
X173362640Y-109016668D01*
X173358856Y-109010355D01*
X173355709Y-109003701D01*
X173353229Y-108996771D01*
X173351441Y-108989632D01*
X173350361Y-108982351D01*
X173350000Y-108975000D01*
X173350000Y-108825000D01*
X173350361Y-108817649D01*
X173351441Y-108810368D01*
X173353229Y-108803229D01*
X173355709Y-108796299D01*
X173358856Y-108789645D01*
X173362640Y-108783332D01*
X173367024Y-108777421D01*
X173371967Y-108771967D01*
X173377421Y-108767024D01*
X173383332Y-108762640D01*
X173389645Y-108758856D01*
X173396299Y-108755709D01*
X173403229Y-108753229D01*
X173410368Y-108751441D01*
X173417649Y-108750361D01*
X173425000Y-108750000D01*
X174075000Y-108750000D01*
X174082351Y-108750361D01*
X174082351Y-108750361D01*
G37*
D18*
X173750000Y-108900000D03*
D12*
G36*
X174082351Y-108100361D02*
G01*
X174089632Y-108101441D01*
X174096771Y-108103229D01*
X174103701Y-108105709D01*
X174110355Y-108108856D01*
X174116668Y-108112640D01*
X174122579Y-108117024D01*
X174128033Y-108121967D01*
X174132976Y-108127421D01*
X174137360Y-108133332D01*
X174141144Y-108139645D01*
X174144291Y-108146299D01*
X174146771Y-108153229D01*
X174148559Y-108160368D01*
X174149639Y-108167649D01*
X174150000Y-108175000D01*
X174150000Y-108325000D01*
X174149639Y-108332351D01*
X174148559Y-108339632D01*
X174146771Y-108346771D01*
X174144291Y-108353701D01*
X174141144Y-108360355D01*
X174137360Y-108366668D01*
X174132976Y-108372579D01*
X174128033Y-108378033D01*
X174122579Y-108382976D01*
X174116668Y-108387360D01*
X174110355Y-108391144D01*
X174103701Y-108394291D01*
X174096771Y-108396771D01*
X174089632Y-108398559D01*
X174082351Y-108399639D01*
X174075000Y-108400000D01*
X173425000Y-108400000D01*
X173417649Y-108399639D01*
X173410368Y-108398559D01*
X173403229Y-108396771D01*
X173396299Y-108394291D01*
X173389645Y-108391144D01*
X173383332Y-108387360D01*
X173377421Y-108382976D01*
X173371967Y-108378033D01*
X173367024Y-108372579D01*
X173362640Y-108366668D01*
X173358856Y-108360355D01*
X173355709Y-108353701D01*
X173353229Y-108346771D01*
X173351441Y-108339632D01*
X173350361Y-108332351D01*
X173350000Y-108325000D01*
X173350000Y-108175000D01*
X173350361Y-108167649D01*
X173351441Y-108160368D01*
X173353229Y-108153229D01*
X173355709Y-108146299D01*
X173358856Y-108139645D01*
X173362640Y-108133332D01*
X173367024Y-108127421D01*
X173371967Y-108121967D01*
X173377421Y-108117024D01*
X173383332Y-108112640D01*
X173389645Y-108108856D01*
X173396299Y-108105709D01*
X173403229Y-108103229D01*
X173410368Y-108101441D01*
X173417649Y-108100361D01*
X173425000Y-108100000D01*
X174075000Y-108100000D01*
X174082351Y-108100361D01*
X174082351Y-108100361D01*
G37*
D18*
X173750000Y-108250000D03*
D12*
G36*
X174082351Y-107450361D02*
G01*
X174089632Y-107451441D01*
X174096771Y-107453229D01*
X174103701Y-107455709D01*
X174110355Y-107458856D01*
X174116668Y-107462640D01*
X174122579Y-107467024D01*
X174128033Y-107471967D01*
X174132976Y-107477421D01*
X174137360Y-107483332D01*
X174141144Y-107489645D01*
X174144291Y-107496299D01*
X174146771Y-107503229D01*
X174148559Y-107510368D01*
X174149639Y-107517649D01*
X174150000Y-107525000D01*
X174150000Y-107675000D01*
X174149639Y-107682351D01*
X174148559Y-107689632D01*
X174146771Y-107696771D01*
X174144291Y-107703701D01*
X174141144Y-107710355D01*
X174137360Y-107716668D01*
X174132976Y-107722579D01*
X174128033Y-107728033D01*
X174122579Y-107732976D01*
X174116668Y-107737360D01*
X174110355Y-107741144D01*
X174103701Y-107744291D01*
X174096771Y-107746771D01*
X174089632Y-107748559D01*
X174082351Y-107749639D01*
X174075000Y-107750000D01*
X173425000Y-107750000D01*
X173417649Y-107749639D01*
X173410368Y-107748559D01*
X173403229Y-107746771D01*
X173396299Y-107744291D01*
X173389645Y-107741144D01*
X173383332Y-107737360D01*
X173377421Y-107732976D01*
X173371967Y-107728033D01*
X173367024Y-107722579D01*
X173362640Y-107716668D01*
X173358856Y-107710355D01*
X173355709Y-107703701D01*
X173353229Y-107696771D01*
X173351441Y-107689632D01*
X173350361Y-107682351D01*
X173350000Y-107675000D01*
X173350000Y-107525000D01*
X173350361Y-107517649D01*
X173351441Y-107510368D01*
X173353229Y-107503229D01*
X173355709Y-107496299D01*
X173358856Y-107489645D01*
X173362640Y-107483332D01*
X173367024Y-107477421D01*
X173371967Y-107471967D01*
X173377421Y-107467024D01*
X173383332Y-107462640D01*
X173389645Y-107458856D01*
X173396299Y-107455709D01*
X173403229Y-107453229D01*
X173410368Y-107451441D01*
X173417649Y-107450361D01*
X173425000Y-107450000D01*
X174075000Y-107450000D01*
X174082351Y-107450361D01*
X174082351Y-107450361D01*
G37*
D18*
X173750000Y-107600000D03*
D12*
G36*
X174082351Y-106800361D02*
G01*
X174089632Y-106801441D01*
X174096771Y-106803229D01*
X174103701Y-106805709D01*
X174110355Y-106808856D01*
X174116668Y-106812640D01*
X174122579Y-106817024D01*
X174128033Y-106821967D01*
X174132976Y-106827421D01*
X174137360Y-106833332D01*
X174141144Y-106839645D01*
X174144291Y-106846299D01*
X174146771Y-106853229D01*
X174148559Y-106860368D01*
X174149639Y-106867649D01*
X174150000Y-106875000D01*
X174150000Y-107025000D01*
X174149639Y-107032351D01*
X174148559Y-107039632D01*
X174146771Y-107046771D01*
X174144291Y-107053701D01*
X174141144Y-107060355D01*
X174137360Y-107066668D01*
X174132976Y-107072579D01*
X174128033Y-107078033D01*
X174122579Y-107082976D01*
X174116668Y-107087360D01*
X174110355Y-107091144D01*
X174103701Y-107094291D01*
X174096771Y-107096771D01*
X174089632Y-107098559D01*
X174082351Y-107099639D01*
X174075000Y-107100000D01*
X173425000Y-107100000D01*
X173417649Y-107099639D01*
X173410368Y-107098559D01*
X173403229Y-107096771D01*
X173396299Y-107094291D01*
X173389645Y-107091144D01*
X173383332Y-107087360D01*
X173377421Y-107082976D01*
X173371967Y-107078033D01*
X173367024Y-107072579D01*
X173362640Y-107066668D01*
X173358856Y-107060355D01*
X173355709Y-107053701D01*
X173353229Y-107046771D01*
X173351441Y-107039632D01*
X173350361Y-107032351D01*
X173350000Y-107025000D01*
X173350000Y-106875000D01*
X173350361Y-106867649D01*
X173351441Y-106860368D01*
X173353229Y-106853229D01*
X173355709Y-106846299D01*
X173358856Y-106839645D01*
X173362640Y-106833332D01*
X173367024Y-106827421D01*
X173371967Y-106821967D01*
X173377421Y-106817024D01*
X173383332Y-106812640D01*
X173389645Y-106808856D01*
X173396299Y-106805709D01*
X173403229Y-106803229D01*
X173410368Y-106801441D01*
X173417649Y-106800361D01*
X173425000Y-106800000D01*
X174075000Y-106800000D01*
X174082351Y-106800361D01*
X174082351Y-106800361D01*
G37*
D18*
X173750000Y-106950000D03*
D12*
G36*
X174082351Y-106150361D02*
G01*
X174089632Y-106151441D01*
X174096771Y-106153229D01*
X174103701Y-106155709D01*
X174110355Y-106158856D01*
X174116668Y-106162640D01*
X174122579Y-106167024D01*
X174128033Y-106171967D01*
X174132976Y-106177421D01*
X174137360Y-106183332D01*
X174141144Y-106189645D01*
X174144291Y-106196299D01*
X174146771Y-106203229D01*
X174148559Y-106210368D01*
X174149639Y-106217649D01*
X174150000Y-106225000D01*
X174150000Y-106375000D01*
X174149639Y-106382351D01*
X174148559Y-106389632D01*
X174146771Y-106396771D01*
X174144291Y-106403701D01*
X174141144Y-106410355D01*
X174137360Y-106416668D01*
X174132976Y-106422579D01*
X174128033Y-106428033D01*
X174122579Y-106432976D01*
X174116668Y-106437360D01*
X174110355Y-106441144D01*
X174103701Y-106444291D01*
X174096771Y-106446771D01*
X174089632Y-106448559D01*
X174082351Y-106449639D01*
X174075000Y-106450000D01*
X173425000Y-106450000D01*
X173417649Y-106449639D01*
X173410368Y-106448559D01*
X173403229Y-106446771D01*
X173396299Y-106444291D01*
X173389645Y-106441144D01*
X173383332Y-106437360D01*
X173377421Y-106432976D01*
X173371967Y-106428033D01*
X173367024Y-106422579D01*
X173362640Y-106416668D01*
X173358856Y-106410355D01*
X173355709Y-106403701D01*
X173353229Y-106396771D01*
X173351441Y-106389632D01*
X173350361Y-106382351D01*
X173350000Y-106375000D01*
X173350000Y-106225000D01*
X173350361Y-106217649D01*
X173351441Y-106210368D01*
X173353229Y-106203229D01*
X173355709Y-106196299D01*
X173358856Y-106189645D01*
X173362640Y-106183332D01*
X173367024Y-106177421D01*
X173371967Y-106171967D01*
X173377421Y-106167024D01*
X173383332Y-106162640D01*
X173389645Y-106158856D01*
X173396299Y-106155709D01*
X173403229Y-106153229D01*
X173410368Y-106151441D01*
X173417649Y-106150361D01*
X173425000Y-106150000D01*
X174075000Y-106150000D01*
X174082351Y-106150361D01*
X174082351Y-106150361D01*
G37*
D18*
X173750000Y-106300000D03*
D12*
G36*
X174982351Y-104750361D02*
G01*
X174989632Y-104751441D01*
X174996771Y-104753229D01*
X175003701Y-104755709D01*
X175010355Y-104758856D01*
X175016668Y-104762640D01*
X175022579Y-104767024D01*
X175028033Y-104771967D01*
X175032976Y-104777421D01*
X175037360Y-104783332D01*
X175041144Y-104789645D01*
X175044291Y-104796299D01*
X175046771Y-104803229D01*
X175048559Y-104810368D01*
X175049639Y-104817649D01*
X175050000Y-104825000D01*
X175050000Y-105475000D01*
X175049639Y-105482351D01*
X175048559Y-105489632D01*
X175046771Y-105496771D01*
X175044291Y-105503701D01*
X175041144Y-105510355D01*
X175037360Y-105516668D01*
X175032976Y-105522579D01*
X175028033Y-105528033D01*
X175022579Y-105532976D01*
X175016668Y-105537360D01*
X175010355Y-105541144D01*
X175003701Y-105544291D01*
X174996771Y-105546771D01*
X174989632Y-105548559D01*
X174982351Y-105549639D01*
X174975000Y-105550000D01*
X174825000Y-105550000D01*
X174817649Y-105549639D01*
X174810368Y-105548559D01*
X174803229Y-105546771D01*
X174796299Y-105544291D01*
X174789645Y-105541144D01*
X174783332Y-105537360D01*
X174777421Y-105532976D01*
X174771967Y-105528033D01*
X174767024Y-105522579D01*
X174762640Y-105516668D01*
X174758856Y-105510355D01*
X174755709Y-105503701D01*
X174753229Y-105496771D01*
X174751441Y-105489632D01*
X174750361Y-105482351D01*
X174750000Y-105475000D01*
X174750000Y-104825000D01*
X174750361Y-104817649D01*
X174751441Y-104810368D01*
X174753229Y-104803229D01*
X174755709Y-104796299D01*
X174758856Y-104789645D01*
X174762640Y-104783332D01*
X174767024Y-104777421D01*
X174771967Y-104771967D01*
X174777421Y-104767024D01*
X174783332Y-104762640D01*
X174789645Y-104758856D01*
X174796299Y-104755709D01*
X174803229Y-104753229D01*
X174810368Y-104751441D01*
X174817649Y-104750361D01*
X174825000Y-104750000D01*
X174975000Y-104750000D01*
X174982351Y-104750361D01*
X174982351Y-104750361D01*
G37*
D18*
X174900000Y-105150000D03*
D12*
G36*
X175632351Y-104750361D02*
G01*
X175639632Y-104751441D01*
X175646771Y-104753229D01*
X175653701Y-104755709D01*
X175660355Y-104758856D01*
X175666668Y-104762640D01*
X175672579Y-104767024D01*
X175678033Y-104771967D01*
X175682976Y-104777421D01*
X175687360Y-104783332D01*
X175691144Y-104789645D01*
X175694291Y-104796299D01*
X175696771Y-104803229D01*
X175698559Y-104810368D01*
X175699639Y-104817649D01*
X175700000Y-104825000D01*
X175700000Y-105475000D01*
X175699639Y-105482351D01*
X175698559Y-105489632D01*
X175696771Y-105496771D01*
X175694291Y-105503701D01*
X175691144Y-105510355D01*
X175687360Y-105516668D01*
X175682976Y-105522579D01*
X175678033Y-105528033D01*
X175672579Y-105532976D01*
X175666668Y-105537360D01*
X175660355Y-105541144D01*
X175653701Y-105544291D01*
X175646771Y-105546771D01*
X175639632Y-105548559D01*
X175632351Y-105549639D01*
X175625000Y-105550000D01*
X175475000Y-105550000D01*
X175467649Y-105549639D01*
X175460368Y-105548559D01*
X175453229Y-105546771D01*
X175446299Y-105544291D01*
X175439645Y-105541144D01*
X175433332Y-105537360D01*
X175427421Y-105532976D01*
X175421967Y-105528033D01*
X175417024Y-105522579D01*
X175412640Y-105516668D01*
X175408856Y-105510355D01*
X175405709Y-105503701D01*
X175403229Y-105496771D01*
X175401441Y-105489632D01*
X175400361Y-105482351D01*
X175400000Y-105475000D01*
X175400000Y-104825000D01*
X175400361Y-104817649D01*
X175401441Y-104810368D01*
X175403229Y-104803229D01*
X175405709Y-104796299D01*
X175408856Y-104789645D01*
X175412640Y-104783332D01*
X175417024Y-104777421D01*
X175421967Y-104771967D01*
X175427421Y-104767024D01*
X175433332Y-104762640D01*
X175439645Y-104758856D01*
X175446299Y-104755709D01*
X175453229Y-104753229D01*
X175460368Y-104751441D01*
X175467649Y-104750361D01*
X175475000Y-104750000D01*
X175625000Y-104750000D01*
X175632351Y-104750361D01*
X175632351Y-104750361D01*
G37*
D18*
X175550000Y-105150000D03*
D12*
G36*
X176282351Y-104750361D02*
G01*
X176289632Y-104751441D01*
X176296771Y-104753229D01*
X176303701Y-104755709D01*
X176310355Y-104758856D01*
X176316668Y-104762640D01*
X176322579Y-104767024D01*
X176328033Y-104771967D01*
X176332976Y-104777421D01*
X176337360Y-104783332D01*
X176341144Y-104789645D01*
X176344291Y-104796299D01*
X176346771Y-104803229D01*
X176348559Y-104810368D01*
X176349639Y-104817649D01*
X176350000Y-104825000D01*
X176350000Y-105475000D01*
X176349639Y-105482351D01*
X176348559Y-105489632D01*
X176346771Y-105496771D01*
X176344291Y-105503701D01*
X176341144Y-105510355D01*
X176337360Y-105516668D01*
X176332976Y-105522579D01*
X176328033Y-105528033D01*
X176322579Y-105532976D01*
X176316668Y-105537360D01*
X176310355Y-105541144D01*
X176303701Y-105544291D01*
X176296771Y-105546771D01*
X176289632Y-105548559D01*
X176282351Y-105549639D01*
X176275000Y-105550000D01*
X176125000Y-105550000D01*
X176117649Y-105549639D01*
X176110368Y-105548559D01*
X176103229Y-105546771D01*
X176096299Y-105544291D01*
X176089645Y-105541144D01*
X176083332Y-105537360D01*
X176077421Y-105532976D01*
X176071967Y-105528033D01*
X176067024Y-105522579D01*
X176062640Y-105516668D01*
X176058856Y-105510355D01*
X176055709Y-105503701D01*
X176053229Y-105496771D01*
X176051441Y-105489632D01*
X176050361Y-105482351D01*
X176050000Y-105475000D01*
X176050000Y-104825000D01*
X176050361Y-104817649D01*
X176051441Y-104810368D01*
X176053229Y-104803229D01*
X176055709Y-104796299D01*
X176058856Y-104789645D01*
X176062640Y-104783332D01*
X176067024Y-104777421D01*
X176071967Y-104771967D01*
X176077421Y-104767024D01*
X176083332Y-104762640D01*
X176089645Y-104758856D01*
X176096299Y-104755709D01*
X176103229Y-104753229D01*
X176110368Y-104751441D01*
X176117649Y-104750361D01*
X176125000Y-104750000D01*
X176275000Y-104750000D01*
X176282351Y-104750361D01*
X176282351Y-104750361D01*
G37*
D18*
X176200000Y-105150000D03*
D12*
G36*
X176932351Y-104750361D02*
G01*
X176939632Y-104751441D01*
X176946771Y-104753229D01*
X176953701Y-104755709D01*
X176960355Y-104758856D01*
X176966668Y-104762640D01*
X176972579Y-104767024D01*
X176978033Y-104771967D01*
X176982976Y-104777421D01*
X176987360Y-104783332D01*
X176991144Y-104789645D01*
X176994291Y-104796299D01*
X176996771Y-104803229D01*
X176998559Y-104810368D01*
X176999639Y-104817649D01*
X177000000Y-104825000D01*
X177000000Y-105475000D01*
X176999639Y-105482351D01*
X176998559Y-105489632D01*
X176996771Y-105496771D01*
X176994291Y-105503701D01*
X176991144Y-105510355D01*
X176987360Y-105516668D01*
X176982976Y-105522579D01*
X176978033Y-105528033D01*
X176972579Y-105532976D01*
X176966668Y-105537360D01*
X176960355Y-105541144D01*
X176953701Y-105544291D01*
X176946771Y-105546771D01*
X176939632Y-105548559D01*
X176932351Y-105549639D01*
X176925000Y-105550000D01*
X176775000Y-105550000D01*
X176767649Y-105549639D01*
X176760368Y-105548559D01*
X176753229Y-105546771D01*
X176746299Y-105544291D01*
X176739645Y-105541144D01*
X176733332Y-105537360D01*
X176727421Y-105532976D01*
X176721967Y-105528033D01*
X176717024Y-105522579D01*
X176712640Y-105516668D01*
X176708856Y-105510355D01*
X176705709Y-105503701D01*
X176703229Y-105496771D01*
X176701441Y-105489632D01*
X176700361Y-105482351D01*
X176700000Y-105475000D01*
X176700000Y-104825000D01*
X176700361Y-104817649D01*
X176701441Y-104810368D01*
X176703229Y-104803229D01*
X176705709Y-104796299D01*
X176708856Y-104789645D01*
X176712640Y-104783332D01*
X176717024Y-104777421D01*
X176721967Y-104771967D01*
X176727421Y-104767024D01*
X176733332Y-104762640D01*
X176739645Y-104758856D01*
X176746299Y-104755709D01*
X176753229Y-104753229D01*
X176760368Y-104751441D01*
X176767649Y-104750361D01*
X176775000Y-104750000D01*
X176925000Y-104750000D01*
X176932351Y-104750361D01*
X176932351Y-104750361D01*
G37*
D18*
X176850000Y-105150000D03*
D12*
G36*
X177582351Y-104750361D02*
G01*
X177589632Y-104751441D01*
X177596771Y-104753229D01*
X177603701Y-104755709D01*
X177610355Y-104758856D01*
X177616668Y-104762640D01*
X177622579Y-104767024D01*
X177628033Y-104771967D01*
X177632976Y-104777421D01*
X177637360Y-104783332D01*
X177641144Y-104789645D01*
X177644291Y-104796299D01*
X177646771Y-104803229D01*
X177648559Y-104810368D01*
X177649639Y-104817649D01*
X177650000Y-104825000D01*
X177650000Y-105475000D01*
X177649639Y-105482351D01*
X177648559Y-105489632D01*
X177646771Y-105496771D01*
X177644291Y-105503701D01*
X177641144Y-105510355D01*
X177637360Y-105516668D01*
X177632976Y-105522579D01*
X177628033Y-105528033D01*
X177622579Y-105532976D01*
X177616668Y-105537360D01*
X177610355Y-105541144D01*
X177603701Y-105544291D01*
X177596771Y-105546771D01*
X177589632Y-105548559D01*
X177582351Y-105549639D01*
X177575000Y-105550000D01*
X177425000Y-105550000D01*
X177417649Y-105549639D01*
X177410368Y-105548559D01*
X177403229Y-105546771D01*
X177396299Y-105544291D01*
X177389645Y-105541144D01*
X177383332Y-105537360D01*
X177377421Y-105532976D01*
X177371967Y-105528033D01*
X177367024Y-105522579D01*
X177362640Y-105516668D01*
X177358856Y-105510355D01*
X177355709Y-105503701D01*
X177353229Y-105496771D01*
X177351441Y-105489632D01*
X177350361Y-105482351D01*
X177350000Y-105475000D01*
X177350000Y-104825000D01*
X177350361Y-104817649D01*
X177351441Y-104810368D01*
X177353229Y-104803229D01*
X177355709Y-104796299D01*
X177358856Y-104789645D01*
X177362640Y-104783332D01*
X177367024Y-104777421D01*
X177371967Y-104771967D01*
X177377421Y-104767024D01*
X177383332Y-104762640D01*
X177389645Y-104758856D01*
X177396299Y-104755709D01*
X177403229Y-104753229D01*
X177410368Y-104751441D01*
X177417649Y-104750361D01*
X177425000Y-104750000D01*
X177575000Y-104750000D01*
X177582351Y-104750361D01*
X177582351Y-104750361D01*
G37*
D18*
X177500000Y-105150000D03*
D12*
G36*
X178982351Y-106150361D02*
G01*
X178989632Y-106151441D01*
X178996771Y-106153229D01*
X179003701Y-106155709D01*
X179010355Y-106158856D01*
X179016668Y-106162640D01*
X179022579Y-106167024D01*
X179028033Y-106171967D01*
X179032976Y-106177421D01*
X179037360Y-106183332D01*
X179041144Y-106189645D01*
X179044291Y-106196299D01*
X179046771Y-106203229D01*
X179048559Y-106210368D01*
X179049639Y-106217649D01*
X179050000Y-106225000D01*
X179050000Y-106375000D01*
X179049639Y-106382351D01*
X179048559Y-106389632D01*
X179046771Y-106396771D01*
X179044291Y-106403701D01*
X179041144Y-106410355D01*
X179037360Y-106416668D01*
X179032976Y-106422579D01*
X179028033Y-106428033D01*
X179022579Y-106432976D01*
X179016668Y-106437360D01*
X179010355Y-106441144D01*
X179003701Y-106444291D01*
X178996771Y-106446771D01*
X178989632Y-106448559D01*
X178982351Y-106449639D01*
X178975000Y-106450000D01*
X178325000Y-106450000D01*
X178317649Y-106449639D01*
X178310368Y-106448559D01*
X178303229Y-106446771D01*
X178296299Y-106444291D01*
X178289645Y-106441144D01*
X178283332Y-106437360D01*
X178277421Y-106432976D01*
X178271967Y-106428033D01*
X178267024Y-106422579D01*
X178262640Y-106416668D01*
X178258856Y-106410355D01*
X178255709Y-106403701D01*
X178253229Y-106396771D01*
X178251441Y-106389632D01*
X178250361Y-106382351D01*
X178250000Y-106375000D01*
X178250000Y-106225000D01*
X178250361Y-106217649D01*
X178251441Y-106210368D01*
X178253229Y-106203229D01*
X178255709Y-106196299D01*
X178258856Y-106189645D01*
X178262640Y-106183332D01*
X178267024Y-106177421D01*
X178271967Y-106171967D01*
X178277421Y-106167024D01*
X178283332Y-106162640D01*
X178289645Y-106158856D01*
X178296299Y-106155709D01*
X178303229Y-106153229D01*
X178310368Y-106151441D01*
X178317649Y-106150361D01*
X178325000Y-106150000D01*
X178975000Y-106150000D01*
X178982351Y-106150361D01*
X178982351Y-106150361D01*
G37*
D18*
X178650000Y-106300000D03*
D12*
G36*
X178982351Y-106800361D02*
G01*
X178989632Y-106801441D01*
X178996771Y-106803229D01*
X179003701Y-106805709D01*
X179010355Y-106808856D01*
X179016668Y-106812640D01*
X179022579Y-106817024D01*
X179028033Y-106821967D01*
X179032976Y-106827421D01*
X179037360Y-106833332D01*
X179041144Y-106839645D01*
X179044291Y-106846299D01*
X179046771Y-106853229D01*
X179048559Y-106860368D01*
X179049639Y-106867649D01*
X179050000Y-106875000D01*
X179050000Y-107025000D01*
X179049639Y-107032351D01*
X179048559Y-107039632D01*
X179046771Y-107046771D01*
X179044291Y-107053701D01*
X179041144Y-107060355D01*
X179037360Y-107066668D01*
X179032976Y-107072579D01*
X179028033Y-107078033D01*
X179022579Y-107082976D01*
X179016668Y-107087360D01*
X179010355Y-107091144D01*
X179003701Y-107094291D01*
X178996771Y-107096771D01*
X178989632Y-107098559D01*
X178982351Y-107099639D01*
X178975000Y-107100000D01*
X178325000Y-107100000D01*
X178317649Y-107099639D01*
X178310368Y-107098559D01*
X178303229Y-107096771D01*
X178296299Y-107094291D01*
X178289645Y-107091144D01*
X178283332Y-107087360D01*
X178277421Y-107082976D01*
X178271967Y-107078033D01*
X178267024Y-107072579D01*
X178262640Y-107066668D01*
X178258856Y-107060355D01*
X178255709Y-107053701D01*
X178253229Y-107046771D01*
X178251441Y-107039632D01*
X178250361Y-107032351D01*
X178250000Y-107025000D01*
X178250000Y-106875000D01*
X178250361Y-106867649D01*
X178251441Y-106860368D01*
X178253229Y-106853229D01*
X178255709Y-106846299D01*
X178258856Y-106839645D01*
X178262640Y-106833332D01*
X178267024Y-106827421D01*
X178271967Y-106821967D01*
X178277421Y-106817024D01*
X178283332Y-106812640D01*
X178289645Y-106808856D01*
X178296299Y-106805709D01*
X178303229Y-106803229D01*
X178310368Y-106801441D01*
X178317649Y-106800361D01*
X178325000Y-106800000D01*
X178975000Y-106800000D01*
X178982351Y-106800361D01*
X178982351Y-106800361D01*
G37*
D18*
X178650000Y-106950000D03*
D12*
G36*
X178982351Y-107450361D02*
G01*
X178989632Y-107451441D01*
X178996771Y-107453229D01*
X179003701Y-107455709D01*
X179010355Y-107458856D01*
X179016668Y-107462640D01*
X179022579Y-107467024D01*
X179028033Y-107471967D01*
X179032976Y-107477421D01*
X179037360Y-107483332D01*
X179041144Y-107489645D01*
X179044291Y-107496299D01*
X179046771Y-107503229D01*
X179048559Y-107510368D01*
X179049639Y-107517649D01*
X179050000Y-107525000D01*
X179050000Y-107675000D01*
X179049639Y-107682351D01*
X179048559Y-107689632D01*
X179046771Y-107696771D01*
X179044291Y-107703701D01*
X179041144Y-107710355D01*
X179037360Y-107716668D01*
X179032976Y-107722579D01*
X179028033Y-107728033D01*
X179022579Y-107732976D01*
X179016668Y-107737360D01*
X179010355Y-107741144D01*
X179003701Y-107744291D01*
X178996771Y-107746771D01*
X178989632Y-107748559D01*
X178982351Y-107749639D01*
X178975000Y-107750000D01*
X178325000Y-107750000D01*
X178317649Y-107749639D01*
X178310368Y-107748559D01*
X178303229Y-107746771D01*
X178296299Y-107744291D01*
X178289645Y-107741144D01*
X178283332Y-107737360D01*
X178277421Y-107732976D01*
X178271967Y-107728033D01*
X178267024Y-107722579D01*
X178262640Y-107716668D01*
X178258856Y-107710355D01*
X178255709Y-107703701D01*
X178253229Y-107696771D01*
X178251441Y-107689632D01*
X178250361Y-107682351D01*
X178250000Y-107675000D01*
X178250000Y-107525000D01*
X178250361Y-107517649D01*
X178251441Y-107510368D01*
X178253229Y-107503229D01*
X178255709Y-107496299D01*
X178258856Y-107489645D01*
X178262640Y-107483332D01*
X178267024Y-107477421D01*
X178271967Y-107471967D01*
X178277421Y-107467024D01*
X178283332Y-107462640D01*
X178289645Y-107458856D01*
X178296299Y-107455709D01*
X178303229Y-107453229D01*
X178310368Y-107451441D01*
X178317649Y-107450361D01*
X178325000Y-107450000D01*
X178975000Y-107450000D01*
X178982351Y-107450361D01*
X178982351Y-107450361D01*
G37*
D18*
X178650000Y-107600000D03*
D12*
G36*
X178982351Y-108100361D02*
G01*
X178989632Y-108101441D01*
X178996771Y-108103229D01*
X179003701Y-108105709D01*
X179010355Y-108108856D01*
X179016668Y-108112640D01*
X179022579Y-108117024D01*
X179028033Y-108121967D01*
X179032976Y-108127421D01*
X179037360Y-108133332D01*
X179041144Y-108139645D01*
X179044291Y-108146299D01*
X179046771Y-108153229D01*
X179048559Y-108160368D01*
X179049639Y-108167649D01*
X179050000Y-108175000D01*
X179050000Y-108325000D01*
X179049639Y-108332351D01*
X179048559Y-108339632D01*
X179046771Y-108346771D01*
X179044291Y-108353701D01*
X179041144Y-108360355D01*
X179037360Y-108366668D01*
X179032976Y-108372579D01*
X179028033Y-108378033D01*
X179022579Y-108382976D01*
X179016668Y-108387360D01*
X179010355Y-108391144D01*
X179003701Y-108394291D01*
X178996771Y-108396771D01*
X178989632Y-108398559D01*
X178982351Y-108399639D01*
X178975000Y-108400000D01*
X178325000Y-108400000D01*
X178317649Y-108399639D01*
X178310368Y-108398559D01*
X178303229Y-108396771D01*
X178296299Y-108394291D01*
X178289645Y-108391144D01*
X178283332Y-108387360D01*
X178277421Y-108382976D01*
X178271967Y-108378033D01*
X178267024Y-108372579D01*
X178262640Y-108366668D01*
X178258856Y-108360355D01*
X178255709Y-108353701D01*
X178253229Y-108346771D01*
X178251441Y-108339632D01*
X178250361Y-108332351D01*
X178250000Y-108325000D01*
X178250000Y-108175000D01*
X178250361Y-108167649D01*
X178251441Y-108160368D01*
X178253229Y-108153229D01*
X178255709Y-108146299D01*
X178258856Y-108139645D01*
X178262640Y-108133332D01*
X178267024Y-108127421D01*
X178271967Y-108121967D01*
X178277421Y-108117024D01*
X178283332Y-108112640D01*
X178289645Y-108108856D01*
X178296299Y-108105709D01*
X178303229Y-108103229D01*
X178310368Y-108101441D01*
X178317649Y-108100361D01*
X178325000Y-108100000D01*
X178975000Y-108100000D01*
X178982351Y-108100361D01*
X178982351Y-108100361D01*
G37*
D18*
X178650000Y-108250000D03*
D12*
G36*
X178982351Y-108750361D02*
G01*
X178989632Y-108751441D01*
X178996771Y-108753229D01*
X179003701Y-108755709D01*
X179010355Y-108758856D01*
X179016668Y-108762640D01*
X179022579Y-108767024D01*
X179028033Y-108771967D01*
X179032976Y-108777421D01*
X179037360Y-108783332D01*
X179041144Y-108789645D01*
X179044291Y-108796299D01*
X179046771Y-108803229D01*
X179048559Y-108810368D01*
X179049639Y-108817649D01*
X179050000Y-108825000D01*
X179050000Y-108975000D01*
X179049639Y-108982351D01*
X179048559Y-108989632D01*
X179046771Y-108996771D01*
X179044291Y-109003701D01*
X179041144Y-109010355D01*
X179037360Y-109016668D01*
X179032976Y-109022579D01*
X179028033Y-109028033D01*
X179022579Y-109032976D01*
X179016668Y-109037360D01*
X179010355Y-109041144D01*
X179003701Y-109044291D01*
X178996771Y-109046771D01*
X178989632Y-109048559D01*
X178982351Y-109049639D01*
X178975000Y-109050000D01*
X178325000Y-109050000D01*
X178317649Y-109049639D01*
X178310368Y-109048559D01*
X178303229Y-109046771D01*
X178296299Y-109044291D01*
X178289645Y-109041144D01*
X178283332Y-109037360D01*
X178277421Y-109032976D01*
X178271967Y-109028033D01*
X178267024Y-109022579D01*
X178262640Y-109016668D01*
X178258856Y-109010355D01*
X178255709Y-109003701D01*
X178253229Y-108996771D01*
X178251441Y-108989632D01*
X178250361Y-108982351D01*
X178250000Y-108975000D01*
X178250000Y-108825000D01*
X178250361Y-108817649D01*
X178251441Y-108810368D01*
X178253229Y-108803229D01*
X178255709Y-108796299D01*
X178258856Y-108789645D01*
X178262640Y-108783332D01*
X178267024Y-108777421D01*
X178271967Y-108771967D01*
X178277421Y-108767024D01*
X178283332Y-108762640D01*
X178289645Y-108758856D01*
X178296299Y-108755709D01*
X178303229Y-108753229D01*
X178310368Y-108751441D01*
X178317649Y-108750361D01*
X178325000Y-108750000D01*
X178975000Y-108750000D01*
X178982351Y-108750361D01*
X178982351Y-108750361D01*
G37*
D18*
X178650000Y-108900000D03*
D19*
X165343800Y-133670800D03*
X167243800Y-133670800D03*
X166293800Y-135670800D03*
D20*
X183312500Y-104800000D03*
D21*
X180887500Y-104800000D03*
M02*
