G04 #@! TF.GenerationSoftware,KiCad,Pcbnew,(5.1.4-0-10_14)*
G04 #@! TF.CreationDate,2019-09-18T11:49:10-05:00*
G04 #@! TF.ProjectId,poePoweredDevice-PD,706f6550-6f77-4657-9265-644465766963,rev?*
G04 #@! TF.SameCoordinates,Original*
G04 #@! TF.FileFunction,Soldermask,Top*
G04 #@! TF.FilePolarity,Negative*
%FSLAX46Y46*%
G04 Gerber Fmt 4.6, Leading zero omitted, Abs format (unit mm)*
G04 Created by KiCad (PCBNEW (5.1.4-0-10_14)) date 2019-09-18 11:49:10*
%MOMM*%
%LPD*%
G04 APERTURE LIST*
%ADD10C,0.100000*%
G04 APERTURE END LIST*
D10*
G36*
X175931000Y-139999000D02*
G01*
X172269000Y-139999000D01*
X172269000Y-138497000D01*
X175931000Y-138497000D01*
X175931000Y-139999000D01*
X175931000Y-139999000D01*
G37*
G36*
X162257800Y-138569000D02*
G01*
X160455800Y-138569000D01*
X160455800Y-136767000D01*
X162257800Y-136767000D01*
X162257800Y-138569000D01*
X162257800Y-138569000D01*
G37*
G36*
X164007242Y-136773518D02*
G01*
X164073427Y-136780037D01*
X164243266Y-136831557D01*
X164399791Y-136915222D01*
X164435529Y-136944552D01*
X164536986Y-137027814D01*
X164620248Y-137129271D01*
X164649578Y-137165009D01*
X164733243Y-137321534D01*
X164784763Y-137491373D01*
X164802159Y-137668000D01*
X164784763Y-137844627D01*
X164733243Y-138014466D01*
X164649578Y-138170991D01*
X164620248Y-138206729D01*
X164536986Y-138308186D01*
X164435529Y-138391448D01*
X164399791Y-138420778D01*
X164243266Y-138504443D01*
X164073427Y-138555963D01*
X164007243Y-138562481D01*
X163941060Y-138569000D01*
X163852540Y-138569000D01*
X163786357Y-138562481D01*
X163720173Y-138555963D01*
X163550334Y-138504443D01*
X163393809Y-138420778D01*
X163358071Y-138391448D01*
X163256614Y-138308186D01*
X163173352Y-138206729D01*
X163144022Y-138170991D01*
X163060357Y-138014466D01*
X163008837Y-137844627D01*
X162991441Y-137668000D01*
X163008837Y-137491373D01*
X163060357Y-137321534D01*
X163144022Y-137165009D01*
X163173352Y-137129271D01*
X163256614Y-137027814D01*
X163358071Y-136944552D01*
X163393809Y-136915222D01*
X163550334Y-136831557D01*
X163720173Y-136780037D01*
X163786358Y-136773518D01*
X163852540Y-136767000D01*
X163941060Y-136767000D01*
X164007242Y-136773518D01*
X164007242Y-136773518D01*
G37*
G36*
X186931400Y-136690200D02*
G01*
X185229400Y-136690200D01*
X185229400Y-134988200D01*
X186931400Y-134988200D01*
X186931400Y-136690200D01*
X186931400Y-136690200D01*
G37*
G36*
X175931000Y-134539000D02*
G01*
X172269000Y-134539000D01*
X172269000Y-133037000D01*
X175931000Y-133037000D01*
X175931000Y-134539000D01*
X175931000Y-134539000D01*
G37*
G36*
X186328628Y-132520903D02*
G01*
X186483500Y-132585053D01*
X186622881Y-132678185D01*
X186741415Y-132796719D01*
X186834547Y-132936100D01*
X186898697Y-133090972D01*
X186931400Y-133255384D01*
X186931400Y-133423016D01*
X186898697Y-133587428D01*
X186834547Y-133742300D01*
X186741415Y-133881681D01*
X186622881Y-134000215D01*
X186483500Y-134093347D01*
X186328628Y-134157497D01*
X186164216Y-134190200D01*
X185996584Y-134190200D01*
X185832172Y-134157497D01*
X185677300Y-134093347D01*
X185537919Y-134000215D01*
X185419385Y-133881681D01*
X185326253Y-133742300D01*
X185262103Y-133587428D01*
X185229400Y-133423016D01*
X185229400Y-133255384D01*
X185262103Y-133090972D01*
X185326253Y-132936100D01*
X185419385Y-132796719D01*
X185537919Y-132678185D01*
X185677300Y-132585053D01*
X185832172Y-132520903D01*
X185996584Y-132488200D01*
X186164216Y-132488200D01*
X186328628Y-132520903D01*
X186328628Y-132520903D01*
G37*
G36*
X170529591Y-129626085D02*
G01*
X170563569Y-129636393D01*
X170594890Y-129653134D01*
X170622339Y-129675661D01*
X170644866Y-129703110D01*
X170661607Y-129734431D01*
X170671915Y-129768409D01*
X170676000Y-129809890D01*
X170676000Y-130486110D01*
X170671915Y-130527591D01*
X170661607Y-130561569D01*
X170644866Y-130592890D01*
X170622339Y-130620339D01*
X170594890Y-130642866D01*
X170563569Y-130659607D01*
X170529591Y-130669915D01*
X170488110Y-130674000D01*
X169886890Y-130674000D01*
X169845409Y-130669915D01*
X169811431Y-130659607D01*
X169780110Y-130642866D01*
X169752661Y-130620339D01*
X169730134Y-130592890D01*
X169713393Y-130561569D01*
X169703085Y-130527591D01*
X169699000Y-130486110D01*
X169699000Y-129809890D01*
X169703085Y-129768409D01*
X169713393Y-129734431D01*
X169730134Y-129703110D01*
X169752661Y-129675661D01*
X169780110Y-129653134D01*
X169811431Y-129636393D01*
X169845409Y-129626085D01*
X169886890Y-129622000D01*
X170488110Y-129622000D01*
X170529591Y-129626085D01*
X170529591Y-129626085D01*
G37*
G36*
X168954591Y-129626085D02*
G01*
X168988569Y-129636393D01*
X169019890Y-129653134D01*
X169047339Y-129675661D01*
X169069866Y-129703110D01*
X169086607Y-129734431D01*
X169096915Y-129768409D01*
X169101000Y-129809890D01*
X169101000Y-130486110D01*
X169096915Y-130527591D01*
X169086607Y-130561569D01*
X169069866Y-130592890D01*
X169047339Y-130620339D01*
X169019890Y-130642866D01*
X168988569Y-130659607D01*
X168954591Y-130669915D01*
X168913110Y-130674000D01*
X168311890Y-130674000D01*
X168270409Y-130669915D01*
X168236431Y-130659607D01*
X168205110Y-130642866D01*
X168177661Y-130620339D01*
X168155134Y-130592890D01*
X168138393Y-130561569D01*
X168128085Y-130527591D01*
X168124000Y-130486110D01*
X168124000Y-129809890D01*
X168128085Y-129768409D01*
X168138393Y-129734431D01*
X168155134Y-129703110D01*
X168177661Y-129675661D01*
X168205110Y-129653134D01*
X168236431Y-129636393D01*
X168270409Y-129626085D01*
X168311890Y-129622000D01*
X168913110Y-129622000D01*
X168954591Y-129626085D01*
X168954591Y-129626085D01*
G37*
G36*
X184886000Y-130366000D02*
G01*
X183514000Y-130366000D01*
X183514000Y-128234000D01*
X184886000Y-128234000D01*
X184886000Y-130366000D01*
X184886000Y-130366000D01*
G37*
G36*
X182386000Y-130366000D02*
G01*
X181014000Y-130366000D01*
X181014000Y-128234000D01*
X182386000Y-128234000D01*
X182386000Y-130366000D01*
X182386000Y-130366000D01*
G37*
G36*
X179886000Y-130366000D02*
G01*
X178514000Y-130366000D01*
X178514000Y-128234000D01*
X179886000Y-128234000D01*
X179886000Y-130366000D01*
X179886000Y-130366000D01*
G37*
G36*
X177386000Y-130366000D02*
G01*
X176014000Y-130366000D01*
X176014000Y-128234000D01*
X177386000Y-128234000D01*
X177386000Y-130366000D01*
X177386000Y-130366000D01*
G37*
G36*
X174886000Y-130366000D02*
G01*
X173514000Y-130366000D01*
X173514000Y-128234000D01*
X174886000Y-128234000D01*
X174886000Y-130366000D01*
X174886000Y-130366000D01*
G37*
G36*
X166955400Y-126388600D02*
G01*
X165073400Y-126388600D01*
X165073400Y-124766600D01*
X166955400Y-124766600D01*
X166955400Y-126388600D01*
X166955400Y-126388600D01*
G37*
G36*
X172035400Y-126388600D02*
G01*
X170153400Y-126388600D01*
X170153400Y-124766600D01*
X172035400Y-124766600D01*
X172035400Y-126388600D01*
X172035400Y-126388600D01*
G37*
G36*
X188104897Y-122715868D02*
G01*
X188138709Y-122726125D01*
X188169879Y-122742786D01*
X188197196Y-122765204D01*
X188219614Y-122792521D01*
X188236275Y-122823691D01*
X188246532Y-122857503D01*
X188250600Y-122898812D01*
X188250600Y-124201788D01*
X188246532Y-124243097D01*
X188236275Y-124276909D01*
X188219614Y-124308079D01*
X188197196Y-124335396D01*
X188169879Y-124357814D01*
X188138709Y-124374475D01*
X188104897Y-124384732D01*
X188063588Y-124388800D01*
X186535612Y-124388800D01*
X186494303Y-124384732D01*
X186460491Y-124374475D01*
X186429321Y-124357814D01*
X186402004Y-124335396D01*
X186379586Y-124308079D01*
X186362925Y-124276909D01*
X186352668Y-124243097D01*
X186348600Y-124201788D01*
X186348600Y-122898812D01*
X186352668Y-122857503D01*
X186362925Y-122823691D01*
X186379586Y-122792521D01*
X186402004Y-122765204D01*
X186429321Y-122742786D01*
X186460491Y-122726125D01*
X186494303Y-122715868D01*
X186535612Y-122711800D01*
X188063588Y-122711800D01*
X188104897Y-122715868D01*
X188104897Y-122715868D01*
G37*
G36*
X190594097Y-122715868D02*
G01*
X190627909Y-122726125D01*
X190659079Y-122742786D01*
X190686396Y-122765204D01*
X190708814Y-122792521D01*
X190725475Y-122823691D01*
X190735732Y-122857503D01*
X190739800Y-122898812D01*
X190739800Y-124201788D01*
X190735732Y-124243097D01*
X190725475Y-124276909D01*
X190708814Y-124308079D01*
X190686396Y-124335396D01*
X190659079Y-124357814D01*
X190627909Y-124374475D01*
X190594097Y-124384732D01*
X190552788Y-124388800D01*
X189024812Y-124388800D01*
X188983503Y-124384732D01*
X188949691Y-124374475D01*
X188918521Y-124357814D01*
X188891204Y-124335396D01*
X188868786Y-124308079D01*
X188852125Y-124276909D01*
X188841868Y-124243097D01*
X188837800Y-124201788D01*
X188837800Y-122898812D01*
X188841868Y-122857503D01*
X188852125Y-122823691D01*
X188868786Y-122792521D01*
X188891204Y-122765204D01*
X188918521Y-122742786D01*
X188949691Y-122726125D01*
X188983503Y-122715868D01*
X189024812Y-122711800D01*
X190552788Y-122711800D01*
X190594097Y-122715868D01*
X190594097Y-122715868D01*
G37*
G36*
X190594097Y-118540868D02*
G01*
X190627909Y-118551125D01*
X190659079Y-118567786D01*
X190686396Y-118590204D01*
X190708814Y-118617521D01*
X190725475Y-118648691D01*
X190735732Y-118682503D01*
X190739800Y-118723812D01*
X190739800Y-120026788D01*
X190735732Y-120068097D01*
X190725475Y-120101909D01*
X190708814Y-120133079D01*
X190686396Y-120160396D01*
X190659079Y-120182814D01*
X190627909Y-120199475D01*
X190594097Y-120209732D01*
X190552788Y-120213800D01*
X189024812Y-120213800D01*
X188983503Y-120209732D01*
X188949691Y-120199475D01*
X188918521Y-120182814D01*
X188891204Y-120160396D01*
X188868786Y-120133079D01*
X188852125Y-120101909D01*
X188841868Y-120068097D01*
X188837800Y-120026788D01*
X188837800Y-118723812D01*
X188841868Y-118682503D01*
X188852125Y-118648691D01*
X188868786Y-118617521D01*
X188891204Y-118590204D01*
X188918521Y-118567786D01*
X188949691Y-118551125D01*
X188983503Y-118540868D01*
X189024812Y-118536800D01*
X190552788Y-118536800D01*
X190594097Y-118540868D01*
X190594097Y-118540868D01*
G37*
G36*
X188104897Y-118540868D02*
G01*
X188138709Y-118551125D01*
X188169879Y-118567786D01*
X188197196Y-118590204D01*
X188219614Y-118617521D01*
X188236275Y-118648691D01*
X188246532Y-118682503D01*
X188250600Y-118723812D01*
X188250600Y-120026788D01*
X188246532Y-120068097D01*
X188236275Y-120101909D01*
X188219614Y-120133079D01*
X188197196Y-120160396D01*
X188169879Y-120182814D01*
X188138709Y-120199475D01*
X188104897Y-120209732D01*
X188063588Y-120213800D01*
X186535612Y-120213800D01*
X186494303Y-120209732D01*
X186460491Y-120199475D01*
X186429321Y-120182814D01*
X186402004Y-120160396D01*
X186379586Y-120133079D01*
X186362925Y-120101909D01*
X186352668Y-120068097D01*
X186348600Y-120026788D01*
X186348600Y-118723812D01*
X186352668Y-118682503D01*
X186362925Y-118648691D01*
X186379586Y-118617521D01*
X186402004Y-118590204D01*
X186429321Y-118567786D01*
X186460491Y-118551125D01*
X186494303Y-118540868D01*
X186535612Y-118536800D01*
X188063588Y-118536800D01*
X188104897Y-118540868D01*
X188104897Y-118540868D01*
G37*
G36*
X163614200Y-119367400D02*
G01*
X161912200Y-119367400D01*
X161912200Y-117665400D01*
X163614200Y-117665400D01*
X163614200Y-119367400D01*
X163614200Y-119367400D01*
G37*
G36*
X160511428Y-117698103D02*
G01*
X160666300Y-117762253D01*
X160805681Y-117855385D01*
X160924215Y-117973919D01*
X161017347Y-118113300D01*
X161081497Y-118268172D01*
X161114200Y-118432584D01*
X161114200Y-118600216D01*
X161081497Y-118764628D01*
X161017347Y-118919500D01*
X160924215Y-119058881D01*
X160805681Y-119177415D01*
X160666300Y-119270547D01*
X160511428Y-119334697D01*
X160347016Y-119367400D01*
X160179384Y-119367400D01*
X160014972Y-119334697D01*
X159860100Y-119270547D01*
X159720719Y-119177415D01*
X159602185Y-119058881D01*
X159509053Y-118919500D01*
X159444903Y-118764628D01*
X159412200Y-118600216D01*
X159412200Y-118432584D01*
X159444903Y-118268172D01*
X159509053Y-118113300D01*
X159602185Y-117973919D01*
X159720719Y-117855385D01*
X159860100Y-117762253D01*
X160014972Y-117698103D01*
X160179384Y-117665400D01*
X160347016Y-117665400D01*
X160511428Y-117698103D01*
X160511428Y-117698103D01*
G37*
G36*
X172035400Y-116828600D02*
G01*
X170153400Y-116828600D01*
X170153400Y-115206600D01*
X172035400Y-115206600D01*
X172035400Y-116828600D01*
X172035400Y-116828600D01*
G37*
G36*
X166955400Y-116828600D02*
G01*
X165073400Y-116828600D01*
X165073400Y-115206600D01*
X166955400Y-115206600D01*
X166955400Y-116828600D01*
X166955400Y-116828600D01*
G37*
G36*
X182386000Y-115366000D02*
G01*
X181014000Y-115366000D01*
X181014000Y-113234000D01*
X182386000Y-113234000D01*
X182386000Y-115366000D01*
X182386000Y-115366000D01*
G37*
G36*
X174886000Y-115366000D02*
G01*
X173514000Y-115366000D01*
X173514000Y-113234000D01*
X174886000Y-113234000D01*
X174886000Y-115366000D01*
X174886000Y-115366000D01*
G37*
G36*
X184886000Y-115366000D02*
G01*
X183514000Y-115366000D01*
X183514000Y-113234000D01*
X184886000Y-113234000D01*
X184886000Y-115366000D01*
X184886000Y-115366000D01*
G37*
G36*
X179886000Y-115366000D02*
G01*
X178514000Y-115366000D01*
X178514000Y-113234000D01*
X179886000Y-113234000D01*
X179886000Y-115366000D01*
X179886000Y-115366000D01*
G37*
G36*
X177386000Y-115366000D02*
G01*
X176014000Y-115366000D01*
X176014000Y-113234000D01*
X177386000Y-113234000D01*
X177386000Y-115366000D01*
X177386000Y-115366000D01*
G37*
G36*
X162774468Y-113346565D02*
G01*
X162813138Y-113358296D01*
X162848777Y-113377346D01*
X162880017Y-113402983D01*
X162905654Y-113434223D01*
X162924704Y-113469862D01*
X162936435Y-113508532D01*
X162941000Y-113554888D01*
X162941000Y-114206112D01*
X162936435Y-114252468D01*
X162924704Y-114291138D01*
X162905654Y-114326777D01*
X162880017Y-114358017D01*
X162848777Y-114383654D01*
X162813138Y-114402704D01*
X162774468Y-114414435D01*
X162728112Y-114419000D01*
X161651888Y-114419000D01*
X161605532Y-114414435D01*
X161566862Y-114402704D01*
X161531223Y-114383654D01*
X161499983Y-114358017D01*
X161474346Y-114326777D01*
X161455296Y-114291138D01*
X161443565Y-114252468D01*
X161439000Y-114206112D01*
X161439000Y-113554888D01*
X161443565Y-113508532D01*
X161455296Y-113469862D01*
X161474346Y-113434223D01*
X161499983Y-113402983D01*
X161531223Y-113377346D01*
X161566862Y-113358296D01*
X161605532Y-113346565D01*
X161651888Y-113342000D01*
X162728112Y-113342000D01*
X162774468Y-113346565D01*
X162774468Y-113346565D01*
G37*
G36*
X160674468Y-113346565D02*
G01*
X160713138Y-113358296D01*
X160748777Y-113377346D01*
X160780017Y-113402983D01*
X160805654Y-113434223D01*
X160824704Y-113469862D01*
X160836435Y-113508532D01*
X160841000Y-113554888D01*
X160841000Y-114206112D01*
X160836435Y-114252468D01*
X160824704Y-114291138D01*
X160805654Y-114326777D01*
X160780017Y-114358017D01*
X160748777Y-114383654D01*
X160713138Y-114402704D01*
X160674468Y-114414435D01*
X160628112Y-114419000D01*
X159551888Y-114419000D01*
X159505532Y-114414435D01*
X159466862Y-114402704D01*
X159431223Y-114383654D01*
X159399983Y-114358017D01*
X159374346Y-114326777D01*
X159355296Y-114291138D01*
X159343565Y-114252468D01*
X159339000Y-114206112D01*
X159339000Y-113554888D01*
X159343565Y-113508532D01*
X159355296Y-113469862D01*
X159374346Y-113434223D01*
X159399983Y-113402983D01*
X159431223Y-113377346D01*
X159466862Y-113358296D01*
X159505532Y-113346565D01*
X159551888Y-113342000D01*
X160628112Y-113342000D01*
X160674468Y-113346565D01*
X160674468Y-113346565D01*
G37*
G36*
X165274468Y-113246565D02*
G01*
X165313138Y-113258296D01*
X165348777Y-113277346D01*
X165380017Y-113302983D01*
X165405654Y-113334223D01*
X165424704Y-113369862D01*
X165436435Y-113408532D01*
X165441000Y-113454888D01*
X165441000Y-114106112D01*
X165436435Y-114152468D01*
X165424704Y-114191138D01*
X165405654Y-114226777D01*
X165380017Y-114258017D01*
X165348777Y-114283654D01*
X165313138Y-114302704D01*
X165274468Y-114314435D01*
X165228112Y-114319000D01*
X164151888Y-114319000D01*
X164105532Y-114314435D01*
X164066862Y-114302704D01*
X164031223Y-114283654D01*
X163999983Y-114258017D01*
X163974346Y-114226777D01*
X163955296Y-114191138D01*
X163943565Y-114152468D01*
X163939000Y-114106112D01*
X163939000Y-113454888D01*
X163943565Y-113408532D01*
X163955296Y-113369862D01*
X163974346Y-113334223D01*
X163999983Y-113302983D01*
X164031223Y-113277346D01*
X164066862Y-113258296D01*
X164105532Y-113246565D01*
X164151888Y-113242000D01*
X165228112Y-113242000D01*
X165274468Y-113246565D01*
X165274468Y-113246565D01*
G37*
G36*
X167374468Y-113246565D02*
G01*
X167413138Y-113258296D01*
X167448777Y-113277346D01*
X167480017Y-113302983D01*
X167505654Y-113334223D01*
X167524704Y-113369862D01*
X167536435Y-113408532D01*
X167541000Y-113454888D01*
X167541000Y-114106112D01*
X167536435Y-114152468D01*
X167524704Y-114191138D01*
X167505654Y-114226777D01*
X167480017Y-114258017D01*
X167448777Y-114283654D01*
X167413138Y-114302704D01*
X167374468Y-114314435D01*
X167328112Y-114319000D01*
X166251888Y-114319000D01*
X166205532Y-114314435D01*
X166166862Y-114302704D01*
X166131223Y-114283654D01*
X166099983Y-114258017D01*
X166074346Y-114226777D01*
X166055296Y-114191138D01*
X166043565Y-114152468D01*
X166039000Y-114106112D01*
X166039000Y-113454888D01*
X166043565Y-113408532D01*
X166055296Y-113369862D01*
X166074346Y-113334223D01*
X166099983Y-113302983D01*
X166131223Y-113277346D01*
X166166862Y-113258296D01*
X166205532Y-113246565D01*
X166251888Y-113242000D01*
X167328112Y-113242000D01*
X167374468Y-113246565D01*
X167374468Y-113246565D01*
G37*
G36*
X162774468Y-111471565D02*
G01*
X162813138Y-111483296D01*
X162848777Y-111502346D01*
X162880017Y-111527983D01*
X162905654Y-111559223D01*
X162924704Y-111594862D01*
X162936435Y-111633532D01*
X162941000Y-111679888D01*
X162941000Y-112331112D01*
X162936435Y-112377468D01*
X162924704Y-112416138D01*
X162905654Y-112451777D01*
X162880017Y-112483017D01*
X162848777Y-112508654D01*
X162813138Y-112527704D01*
X162774468Y-112539435D01*
X162728112Y-112544000D01*
X161651888Y-112544000D01*
X161605532Y-112539435D01*
X161566862Y-112527704D01*
X161531223Y-112508654D01*
X161499983Y-112483017D01*
X161474346Y-112451777D01*
X161455296Y-112416138D01*
X161443565Y-112377468D01*
X161439000Y-112331112D01*
X161439000Y-111679888D01*
X161443565Y-111633532D01*
X161455296Y-111594862D01*
X161474346Y-111559223D01*
X161499983Y-111527983D01*
X161531223Y-111502346D01*
X161566862Y-111483296D01*
X161605532Y-111471565D01*
X161651888Y-111467000D01*
X162728112Y-111467000D01*
X162774468Y-111471565D01*
X162774468Y-111471565D01*
G37*
G36*
X160674468Y-111471565D02*
G01*
X160713138Y-111483296D01*
X160748777Y-111502346D01*
X160780017Y-111527983D01*
X160805654Y-111559223D01*
X160824704Y-111594862D01*
X160836435Y-111633532D01*
X160841000Y-111679888D01*
X160841000Y-112331112D01*
X160836435Y-112377468D01*
X160824704Y-112416138D01*
X160805654Y-112451777D01*
X160780017Y-112483017D01*
X160748777Y-112508654D01*
X160713138Y-112527704D01*
X160674468Y-112539435D01*
X160628112Y-112544000D01*
X159551888Y-112544000D01*
X159505532Y-112539435D01*
X159466862Y-112527704D01*
X159431223Y-112508654D01*
X159399983Y-112483017D01*
X159374346Y-112451777D01*
X159355296Y-112416138D01*
X159343565Y-112377468D01*
X159339000Y-112331112D01*
X159339000Y-111679888D01*
X159343565Y-111633532D01*
X159355296Y-111594862D01*
X159374346Y-111559223D01*
X159399983Y-111527983D01*
X159431223Y-111502346D01*
X159466862Y-111483296D01*
X159505532Y-111471565D01*
X159551888Y-111467000D01*
X160628112Y-111467000D01*
X160674468Y-111471565D01*
X160674468Y-111471565D01*
G37*
G36*
X165274468Y-111371565D02*
G01*
X165313138Y-111383296D01*
X165348777Y-111402346D01*
X165380017Y-111427983D01*
X165405654Y-111459223D01*
X165424704Y-111494862D01*
X165436435Y-111533532D01*
X165441000Y-111579888D01*
X165441000Y-112231112D01*
X165436435Y-112277468D01*
X165424704Y-112316138D01*
X165405654Y-112351777D01*
X165380017Y-112383017D01*
X165348777Y-112408654D01*
X165313138Y-112427704D01*
X165274468Y-112439435D01*
X165228112Y-112444000D01*
X164151888Y-112444000D01*
X164105532Y-112439435D01*
X164066862Y-112427704D01*
X164031223Y-112408654D01*
X163999983Y-112383017D01*
X163974346Y-112351777D01*
X163955296Y-112316138D01*
X163943565Y-112277468D01*
X163939000Y-112231112D01*
X163939000Y-111579888D01*
X163943565Y-111533532D01*
X163955296Y-111494862D01*
X163974346Y-111459223D01*
X163999983Y-111427983D01*
X164031223Y-111402346D01*
X164066862Y-111383296D01*
X164105532Y-111371565D01*
X164151888Y-111367000D01*
X165228112Y-111367000D01*
X165274468Y-111371565D01*
X165274468Y-111371565D01*
G37*
G36*
X167374468Y-111371565D02*
G01*
X167413138Y-111383296D01*
X167448777Y-111402346D01*
X167480017Y-111427983D01*
X167505654Y-111459223D01*
X167524704Y-111494862D01*
X167536435Y-111533532D01*
X167541000Y-111579888D01*
X167541000Y-112231112D01*
X167536435Y-112277468D01*
X167524704Y-112316138D01*
X167505654Y-112351777D01*
X167480017Y-112383017D01*
X167448777Y-112408654D01*
X167413138Y-112427704D01*
X167374468Y-112439435D01*
X167328112Y-112444000D01*
X166251888Y-112444000D01*
X166205532Y-112439435D01*
X166166862Y-112427704D01*
X166131223Y-112408654D01*
X166099983Y-112383017D01*
X166074346Y-112351777D01*
X166055296Y-112316138D01*
X166043565Y-112277468D01*
X166039000Y-112231112D01*
X166039000Y-111579888D01*
X166043565Y-111533532D01*
X166055296Y-111494862D01*
X166074346Y-111459223D01*
X166099983Y-111427983D01*
X166131223Y-111402346D01*
X166166862Y-111383296D01*
X166205532Y-111371565D01*
X166251888Y-111367000D01*
X167328112Y-111367000D01*
X167374468Y-111371565D01*
X167374468Y-111371565D01*
G37*
G36*
X173151000Y-110201000D02*
G01*
X171249000Y-110201000D01*
X171249000Y-107599000D01*
X173151000Y-107599000D01*
X173151000Y-110201000D01*
X173151000Y-110201000D01*
G37*
G36*
X165035000Y-110197000D02*
G01*
X163133000Y-110197000D01*
X163133000Y-107595000D01*
X165035000Y-107595000D01*
X165035000Y-110197000D01*
X165035000Y-110197000D01*
G37*
G36*
X189419000Y-110197000D02*
G01*
X187517000Y-110197000D01*
X187517000Y-107595000D01*
X189419000Y-107595000D01*
X189419000Y-110197000D01*
X189419000Y-110197000D01*
G37*
G36*
X185355000Y-110197000D02*
G01*
X183453000Y-110197000D01*
X183453000Y-107595000D01*
X185355000Y-107595000D01*
X185355000Y-110197000D01*
X185355000Y-110197000D01*
G37*
G36*
X181291000Y-110197000D02*
G01*
X179389000Y-110197000D01*
X179389000Y-107595000D01*
X181291000Y-107595000D01*
X181291000Y-110197000D01*
X181291000Y-110197000D01*
G37*
G36*
X177227000Y-110197000D02*
G01*
X175325000Y-110197000D01*
X175325000Y-107595000D01*
X177227000Y-107595000D01*
X177227000Y-110197000D01*
X177227000Y-110197000D01*
G37*
G36*
X169099000Y-110197000D02*
G01*
X167197000Y-110197000D01*
X167197000Y-107595000D01*
X169099000Y-107595000D01*
X169099000Y-110197000D01*
X169099000Y-110197000D01*
G37*
G36*
X160971000Y-110197000D02*
G01*
X159069000Y-110197000D01*
X159069000Y-107595000D01*
X160971000Y-107595000D01*
X160971000Y-110197000D01*
X160971000Y-110197000D01*
G37*
G36*
X173151000Y-106201000D02*
G01*
X171249000Y-106201000D01*
X171249000Y-103599000D01*
X173151000Y-103599000D01*
X173151000Y-106201000D01*
X173151000Y-106201000D01*
G37*
G36*
X160971000Y-106197000D02*
G01*
X159069000Y-106197000D01*
X159069000Y-103595000D01*
X160971000Y-103595000D01*
X160971000Y-106197000D01*
X160971000Y-106197000D01*
G37*
G36*
X177227000Y-106197000D02*
G01*
X175325000Y-106197000D01*
X175325000Y-103595000D01*
X177227000Y-103595000D01*
X177227000Y-106197000D01*
X177227000Y-106197000D01*
G37*
G36*
X189419000Y-106197000D02*
G01*
X187517000Y-106197000D01*
X187517000Y-103595000D01*
X189419000Y-103595000D01*
X189419000Y-106197000D01*
X189419000Y-106197000D01*
G37*
G36*
X165035000Y-106197000D02*
G01*
X163133000Y-106197000D01*
X163133000Y-103595000D01*
X165035000Y-103595000D01*
X165035000Y-106197000D01*
X165035000Y-106197000D01*
G37*
G36*
X169099000Y-106197000D02*
G01*
X167197000Y-106197000D01*
X167197000Y-103595000D01*
X169099000Y-103595000D01*
X169099000Y-106197000D01*
X169099000Y-106197000D01*
G37*
G36*
X181291000Y-106197000D02*
G01*
X179389000Y-106197000D01*
X179389000Y-103595000D01*
X181291000Y-103595000D01*
X181291000Y-106197000D01*
X181291000Y-106197000D01*
G37*
G36*
X185355000Y-106197000D02*
G01*
X183453000Y-106197000D01*
X183453000Y-103595000D01*
X185355000Y-103595000D01*
X185355000Y-106197000D01*
X185355000Y-106197000D01*
G37*
G36*
X167991000Y-101602000D02*
G01*
X165984000Y-101602000D01*
X165984000Y-100740000D01*
X167991000Y-100740000D01*
X167991000Y-101602000D01*
X167991000Y-101602000D01*
G37*
G36*
X182596000Y-101602000D02*
G01*
X180589000Y-101602000D01*
X180589000Y-100740000D01*
X182596000Y-100740000D01*
X182596000Y-101602000D01*
X182596000Y-101602000D01*
G37*
G36*
X163071213Y-99981502D02*
G01*
X163142321Y-99988505D01*
X163279172Y-100030019D01*
X163279175Y-100030020D01*
X163405294Y-100097432D01*
X163515843Y-100188157D01*
X163606568Y-100298706D01*
X163673980Y-100424825D01*
X163673981Y-100424828D01*
X163715495Y-100561679D01*
X163729512Y-100704000D01*
X163715495Y-100846321D01*
X163673981Y-100983172D01*
X163673980Y-100983175D01*
X163606568Y-101109294D01*
X163515843Y-101219843D01*
X163405294Y-101310568D01*
X163279175Y-101377980D01*
X163279172Y-101377981D01*
X163142321Y-101419495D01*
X163071213Y-101426498D01*
X163035660Y-101430000D01*
X162964340Y-101430000D01*
X162928787Y-101426498D01*
X162857679Y-101419495D01*
X162720828Y-101377981D01*
X162720825Y-101377980D01*
X162594706Y-101310568D01*
X162484157Y-101219843D01*
X162393432Y-101109294D01*
X162326020Y-100983175D01*
X162326019Y-100983172D01*
X162284505Y-100846321D01*
X162270488Y-100704000D01*
X162284505Y-100561679D01*
X162326019Y-100424828D01*
X162326020Y-100424825D01*
X162393432Y-100298706D01*
X162484157Y-100188157D01*
X162594706Y-100097432D01*
X162720825Y-100030020D01*
X162720828Y-100030019D01*
X162857679Y-99988505D01*
X162928787Y-99981502D01*
X162964340Y-99978000D01*
X163035660Y-99978000D01*
X163071213Y-99981502D01*
X163071213Y-99981502D01*
G37*
G36*
X185571213Y-99981502D02*
G01*
X185642321Y-99988505D01*
X185779172Y-100030019D01*
X185779175Y-100030020D01*
X185905294Y-100097432D01*
X186015843Y-100188157D01*
X186106568Y-100298706D01*
X186173980Y-100424825D01*
X186173981Y-100424828D01*
X186215495Y-100561679D01*
X186229512Y-100704000D01*
X186215495Y-100846321D01*
X186173981Y-100983172D01*
X186173980Y-100983175D01*
X186106568Y-101109294D01*
X186015843Y-101219843D01*
X185905294Y-101310568D01*
X185779175Y-101377980D01*
X185779172Y-101377981D01*
X185642321Y-101419495D01*
X185571213Y-101426498D01*
X185535660Y-101430000D01*
X185464340Y-101430000D01*
X185428787Y-101426498D01*
X185357679Y-101419495D01*
X185220828Y-101377981D01*
X185220825Y-101377980D01*
X185094706Y-101310568D01*
X184984157Y-101219843D01*
X184893432Y-101109294D01*
X184826020Y-100983175D01*
X184826019Y-100983172D01*
X184784505Y-100846321D01*
X184770488Y-100704000D01*
X184784505Y-100561679D01*
X184826019Y-100424828D01*
X184826020Y-100424825D01*
X184893432Y-100298706D01*
X184984157Y-100188157D01*
X185094706Y-100097432D01*
X185220825Y-100030020D01*
X185220828Y-100030019D01*
X185357679Y-99988505D01*
X185428787Y-99981502D01*
X185464340Y-99978000D01*
X185535660Y-99978000D01*
X185571213Y-99981502D01*
X185571213Y-99981502D01*
G37*
G36*
X182596000Y-100332000D02*
G01*
X180589000Y-100332000D01*
X180589000Y-99470000D01*
X182596000Y-99470000D01*
X182596000Y-100332000D01*
X182596000Y-100332000D01*
G37*
G36*
X167991000Y-100332000D02*
G01*
X165984000Y-100332000D01*
X165984000Y-99470000D01*
X167991000Y-99470000D01*
X167991000Y-100332000D01*
X167991000Y-100332000D01*
G37*
G36*
X185571213Y-97981502D02*
G01*
X185642321Y-97988505D01*
X185779172Y-98030019D01*
X185779175Y-98030020D01*
X185905294Y-98097432D01*
X186015843Y-98188157D01*
X186106568Y-98298706D01*
X186173980Y-98424825D01*
X186173981Y-98424828D01*
X186215495Y-98561679D01*
X186229512Y-98704000D01*
X186215495Y-98846321D01*
X186173981Y-98983172D01*
X186173980Y-98983175D01*
X186106568Y-99109294D01*
X186015843Y-99219843D01*
X185905294Y-99310568D01*
X185779175Y-99377980D01*
X185779172Y-99377981D01*
X185642321Y-99419495D01*
X185571213Y-99426498D01*
X185535660Y-99430000D01*
X185464340Y-99430000D01*
X185428787Y-99426498D01*
X185357679Y-99419495D01*
X185220828Y-99377981D01*
X185220825Y-99377980D01*
X185094706Y-99310568D01*
X184984157Y-99219843D01*
X184893432Y-99109294D01*
X184826020Y-98983175D01*
X184826019Y-98983172D01*
X184784505Y-98846321D01*
X184770488Y-98704000D01*
X184784505Y-98561679D01*
X184826019Y-98424828D01*
X184826020Y-98424825D01*
X184893432Y-98298706D01*
X184984157Y-98188157D01*
X185094706Y-98097432D01*
X185220825Y-98030020D01*
X185220828Y-98030019D01*
X185357679Y-97988505D01*
X185428787Y-97981502D01*
X185464340Y-97978000D01*
X185535660Y-97978000D01*
X185571213Y-97981502D01*
X185571213Y-97981502D01*
G37*
G36*
X163071213Y-97981502D02*
G01*
X163142321Y-97988505D01*
X163279172Y-98030019D01*
X163279175Y-98030020D01*
X163405294Y-98097432D01*
X163515843Y-98188157D01*
X163606568Y-98298706D01*
X163673980Y-98424825D01*
X163673981Y-98424828D01*
X163715495Y-98561679D01*
X163729512Y-98704000D01*
X163715495Y-98846321D01*
X163673981Y-98983172D01*
X163673980Y-98983175D01*
X163606568Y-99109294D01*
X163515843Y-99219843D01*
X163405294Y-99310568D01*
X163279175Y-99377980D01*
X163279172Y-99377981D01*
X163142321Y-99419495D01*
X163071213Y-99426498D01*
X163035660Y-99430000D01*
X162964340Y-99430000D01*
X162928787Y-99426498D01*
X162857679Y-99419495D01*
X162720828Y-99377981D01*
X162720825Y-99377980D01*
X162594706Y-99310568D01*
X162484157Y-99219843D01*
X162393432Y-99109294D01*
X162326020Y-98983175D01*
X162326019Y-98983172D01*
X162284505Y-98846321D01*
X162270488Y-98704000D01*
X162284505Y-98561679D01*
X162326019Y-98424828D01*
X162326020Y-98424825D01*
X162393432Y-98298706D01*
X162484157Y-98188157D01*
X162594706Y-98097432D01*
X162720825Y-98030020D01*
X162720828Y-98030019D01*
X162857679Y-97988505D01*
X162928787Y-97981502D01*
X162964340Y-97978000D01*
X163035660Y-97978000D01*
X163071213Y-97981502D01*
X163071213Y-97981502D01*
G37*
G36*
X167991000Y-99062000D02*
G01*
X165984000Y-99062000D01*
X165984000Y-98200000D01*
X167991000Y-98200000D01*
X167991000Y-99062000D01*
X167991000Y-99062000D01*
G37*
G36*
X182596000Y-99062000D02*
G01*
X180589000Y-99062000D01*
X180589000Y-98200000D01*
X182596000Y-98200000D01*
X182596000Y-99062000D01*
X182596000Y-99062000D01*
G37*
G36*
X182596000Y-97792000D02*
G01*
X180589000Y-97792000D01*
X180589000Y-96930000D01*
X182596000Y-96930000D01*
X182596000Y-97792000D01*
X182596000Y-97792000D01*
G37*
G36*
X167991000Y-97792000D02*
G01*
X165984000Y-97792000D01*
X165984000Y-96930000D01*
X167991000Y-96930000D01*
X167991000Y-97792000D01*
X167991000Y-97792000D01*
G37*
G36*
X185571213Y-95981502D02*
G01*
X185642321Y-95988505D01*
X185779172Y-96030019D01*
X185779175Y-96030020D01*
X185905294Y-96097432D01*
X186015843Y-96188157D01*
X186106568Y-96298706D01*
X186173980Y-96424825D01*
X186173981Y-96424828D01*
X186215495Y-96561679D01*
X186229512Y-96704000D01*
X186215495Y-96846321D01*
X186190111Y-96930000D01*
X186173980Y-96983175D01*
X186106568Y-97109294D01*
X186015843Y-97219843D01*
X185905294Y-97310568D01*
X185779175Y-97377980D01*
X185779172Y-97377981D01*
X185642321Y-97419495D01*
X185571213Y-97426498D01*
X185535660Y-97430000D01*
X185464340Y-97430000D01*
X185428787Y-97426498D01*
X185357679Y-97419495D01*
X185220828Y-97377981D01*
X185220825Y-97377980D01*
X185094706Y-97310568D01*
X184984157Y-97219843D01*
X184893432Y-97109294D01*
X184826020Y-96983175D01*
X184809889Y-96930000D01*
X184784505Y-96846321D01*
X184770488Y-96704000D01*
X184784505Y-96561679D01*
X184826019Y-96424828D01*
X184826020Y-96424825D01*
X184893432Y-96298706D01*
X184984157Y-96188157D01*
X185094706Y-96097432D01*
X185220825Y-96030020D01*
X185220828Y-96030019D01*
X185357679Y-95988505D01*
X185428787Y-95981502D01*
X185464340Y-95978000D01*
X185535660Y-95978000D01*
X185571213Y-95981502D01*
X185571213Y-95981502D01*
G37*
G36*
X163071213Y-95981502D02*
G01*
X163142321Y-95988505D01*
X163279172Y-96030019D01*
X163279175Y-96030020D01*
X163405294Y-96097432D01*
X163515843Y-96188157D01*
X163606568Y-96298706D01*
X163673980Y-96424825D01*
X163673981Y-96424828D01*
X163715495Y-96561679D01*
X163729512Y-96704000D01*
X163715495Y-96846321D01*
X163690111Y-96930000D01*
X163673980Y-96983175D01*
X163606568Y-97109294D01*
X163515843Y-97219843D01*
X163405294Y-97310568D01*
X163279175Y-97377980D01*
X163279172Y-97377981D01*
X163142321Y-97419495D01*
X163071213Y-97426498D01*
X163035660Y-97430000D01*
X162964340Y-97430000D01*
X162928787Y-97426498D01*
X162857679Y-97419495D01*
X162720828Y-97377981D01*
X162720825Y-97377980D01*
X162594706Y-97310568D01*
X162484157Y-97219843D01*
X162393432Y-97109294D01*
X162326020Y-96983175D01*
X162309889Y-96930000D01*
X162284505Y-96846321D01*
X162270488Y-96704000D01*
X162284505Y-96561679D01*
X162326019Y-96424828D01*
X162326020Y-96424825D01*
X162393432Y-96298706D01*
X162484157Y-96188157D01*
X162594706Y-96097432D01*
X162720825Y-96030020D01*
X162720828Y-96030019D01*
X162857679Y-95988505D01*
X162928787Y-95981502D01*
X162964340Y-95978000D01*
X163035660Y-95978000D01*
X163071213Y-95981502D01*
X163071213Y-95981502D01*
G37*
G36*
X182596000Y-96522000D02*
G01*
X180589000Y-96522000D01*
X180589000Y-95660000D01*
X182596000Y-95660000D01*
X182596000Y-96522000D01*
X182596000Y-96522000D01*
G37*
G36*
X167991000Y-96522000D02*
G01*
X165984000Y-96522000D01*
X165984000Y-95660000D01*
X167991000Y-95660000D01*
X167991000Y-96522000D01*
X167991000Y-96522000D01*
G37*
G36*
X163071213Y-93981502D02*
G01*
X163142321Y-93988505D01*
X163279172Y-94030019D01*
X163279175Y-94030020D01*
X163405294Y-94097432D01*
X163515843Y-94188157D01*
X163606568Y-94298706D01*
X163673980Y-94424825D01*
X163673981Y-94424828D01*
X163715495Y-94561679D01*
X163729512Y-94704000D01*
X163715495Y-94846321D01*
X163673981Y-94983172D01*
X163673980Y-94983175D01*
X163606568Y-95109294D01*
X163515843Y-95219843D01*
X163405294Y-95310568D01*
X163279175Y-95377980D01*
X163279172Y-95377981D01*
X163142321Y-95419495D01*
X163071213Y-95426498D01*
X163035660Y-95430000D01*
X162964340Y-95430000D01*
X162928787Y-95426498D01*
X162857679Y-95419495D01*
X162720828Y-95377981D01*
X162720825Y-95377980D01*
X162594706Y-95310568D01*
X162484157Y-95219843D01*
X162393432Y-95109294D01*
X162326020Y-94983175D01*
X162326019Y-94983172D01*
X162284505Y-94846321D01*
X162270488Y-94704000D01*
X162284505Y-94561679D01*
X162326019Y-94424828D01*
X162326020Y-94424825D01*
X162393432Y-94298706D01*
X162484157Y-94188157D01*
X162594706Y-94097432D01*
X162720825Y-94030020D01*
X162720828Y-94030019D01*
X162857679Y-93988505D01*
X162928787Y-93981502D01*
X162964340Y-93978000D01*
X163035660Y-93978000D01*
X163071213Y-93981502D01*
X163071213Y-93981502D01*
G37*
G36*
X185571213Y-93981502D02*
G01*
X185642321Y-93988505D01*
X185779172Y-94030019D01*
X185779175Y-94030020D01*
X185905294Y-94097432D01*
X186015843Y-94188157D01*
X186106568Y-94298706D01*
X186173980Y-94424825D01*
X186173981Y-94424828D01*
X186215495Y-94561679D01*
X186229512Y-94704000D01*
X186215495Y-94846321D01*
X186173981Y-94983172D01*
X186173980Y-94983175D01*
X186106568Y-95109294D01*
X186015843Y-95219843D01*
X185905294Y-95310568D01*
X185779175Y-95377980D01*
X185779172Y-95377981D01*
X185642321Y-95419495D01*
X185571213Y-95426498D01*
X185535660Y-95430000D01*
X185464340Y-95430000D01*
X185428787Y-95426498D01*
X185357679Y-95419495D01*
X185220828Y-95377981D01*
X185220825Y-95377980D01*
X185094706Y-95310568D01*
X184984157Y-95219843D01*
X184893432Y-95109294D01*
X184826020Y-94983175D01*
X184826019Y-94983172D01*
X184784505Y-94846321D01*
X184770488Y-94704000D01*
X184784505Y-94561679D01*
X184826019Y-94424828D01*
X184826020Y-94424825D01*
X184893432Y-94298706D01*
X184984157Y-94188157D01*
X185094706Y-94097432D01*
X185220825Y-94030020D01*
X185220828Y-94030019D01*
X185357679Y-93988505D01*
X185428787Y-93981502D01*
X185464340Y-93978000D01*
X185535660Y-93978000D01*
X185571213Y-93981502D01*
X185571213Y-93981502D01*
G37*
G36*
X182596000Y-95252000D02*
G01*
X180589000Y-95252000D01*
X180589000Y-94390000D01*
X182596000Y-94390000D01*
X182596000Y-95252000D01*
X182596000Y-95252000D01*
G37*
G36*
X167991000Y-95252000D02*
G01*
X165984000Y-95252000D01*
X165984000Y-94390000D01*
X167991000Y-94390000D01*
X167991000Y-95252000D01*
X167991000Y-95252000D01*
G37*
G36*
X182596000Y-93982000D02*
G01*
X180589000Y-93982000D01*
X180589000Y-93120000D01*
X182596000Y-93120000D01*
X182596000Y-93982000D01*
X182596000Y-93982000D01*
G37*
G36*
X167991000Y-93982000D02*
G01*
X165984000Y-93982000D01*
X165984000Y-93120000D01*
X167991000Y-93120000D01*
X167991000Y-93982000D01*
X167991000Y-93982000D01*
G37*
G36*
X163071213Y-91981502D02*
G01*
X163142321Y-91988505D01*
X163279172Y-92030019D01*
X163279175Y-92030020D01*
X163405294Y-92097432D01*
X163515843Y-92188157D01*
X163606568Y-92298706D01*
X163673980Y-92424825D01*
X163673981Y-92424828D01*
X163715495Y-92561679D01*
X163729512Y-92704000D01*
X163715495Y-92846321D01*
X163673981Y-92983172D01*
X163673980Y-92983175D01*
X163606568Y-93109294D01*
X163515843Y-93219843D01*
X163405294Y-93310568D01*
X163279175Y-93377980D01*
X163279172Y-93377981D01*
X163142321Y-93419495D01*
X163071213Y-93426498D01*
X163035660Y-93430000D01*
X162964340Y-93430000D01*
X162928787Y-93426498D01*
X162857679Y-93419495D01*
X162720828Y-93377981D01*
X162720825Y-93377980D01*
X162594706Y-93310568D01*
X162484157Y-93219843D01*
X162393432Y-93109294D01*
X162326020Y-92983175D01*
X162326019Y-92983172D01*
X162284505Y-92846321D01*
X162270488Y-92704000D01*
X162284505Y-92561679D01*
X162326019Y-92424828D01*
X162326020Y-92424825D01*
X162393432Y-92298706D01*
X162484157Y-92188157D01*
X162594706Y-92097432D01*
X162720825Y-92030020D01*
X162720828Y-92030019D01*
X162857679Y-91988505D01*
X162928787Y-91981502D01*
X162964340Y-91978000D01*
X163035660Y-91978000D01*
X163071213Y-91981502D01*
X163071213Y-91981502D01*
G37*
G36*
X185571213Y-91981502D02*
G01*
X185642321Y-91988505D01*
X185779172Y-92030019D01*
X185779175Y-92030020D01*
X185905294Y-92097432D01*
X186015843Y-92188157D01*
X186106568Y-92298706D01*
X186173980Y-92424825D01*
X186173981Y-92424828D01*
X186215495Y-92561679D01*
X186229512Y-92704000D01*
X186215495Y-92846321D01*
X186173981Y-92983172D01*
X186173980Y-92983175D01*
X186106568Y-93109294D01*
X186015843Y-93219843D01*
X185905294Y-93310568D01*
X185779175Y-93377980D01*
X185779172Y-93377981D01*
X185642321Y-93419495D01*
X185571213Y-93426498D01*
X185535660Y-93430000D01*
X185464340Y-93430000D01*
X185428787Y-93426498D01*
X185357679Y-93419495D01*
X185220828Y-93377981D01*
X185220825Y-93377980D01*
X185094706Y-93310568D01*
X184984157Y-93219843D01*
X184893432Y-93109294D01*
X184826020Y-92983175D01*
X184826019Y-92983172D01*
X184784505Y-92846321D01*
X184770488Y-92704000D01*
X184784505Y-92561679D01*
X184826019Y-92424828D01*
X184826020Y-92424825D01*
X184893432Y-92298706D01*
X184984157Y-92188157D01*
X185094706Y-92097432D01*
X185220825Y-92030020D01*
X185220828Y-92030019D01*
X185357679Y-91988505D01*
X185428787Y-91981502D01*
X185464340Y-91978000D01*
X185535660Y-91978000D01*
X185571213Y-91981502D01*
X185571213Y-91981502D01*
G37*
G36*
X182596000Y-92712000D02*
G01*
X180589000Y-92712000D01*
X180589000Y-91850000D01*
X182596000Y-91850000D01*
X182596000Y-92712000D01*
X182596000Y-92712000D01*
G37*
G36*
X167991000Y-92712000D02*
G01*
X165984000Y-92712000D01*
X165984000Y-91850000D01*
X167991000Y-91850000D01*
X167991000Y-92712000D01*
X167991000Y-92712000D01*
G37*
G36*
X182596000Y-91442000D02*
G01*
X180589000Y-91442000D01*
X180589000Y-90580000D01*
X182596000Y-90580000D01*
X182596000Y-91442000D01*
X182596000Y-91442000D01*
G37*
G36*
X167991000Y-91442000D02*
G01*
X165984000Y-91442000D01*
X165984000Y-90580000D01*
X167991000Y-90580000D01*
X167991000Y-91442000D01*
X167991000Y-91442000D01*
G37*
G36*
X185571213Y-89981502D02*
G01*
X185642321Y-89988505D01*
X185779172Y-90030019D01*
X185779175Y-90030020D01*
X185905294Y-90097432D01*
X186015843Y-90188157D01*
X186106568Y-90298706D01*
X186173980Y-90424825D01*
X186173981Y-90424828D01*
X186215495Y-90561679D01*
X186229512Y-90704000D01*
X186215495Y-90846321D01*
X186173981Y-90983172D01*
X186173980Y-90983175D01*
X186106568Y-91109294D01*
X186015843Y-91219843D01*
X185905294Y-91310568D01*
X185779175Y-91377980D01*
X185779172Y-91377981D01*
X185642321Y-91419495D01*
X185571213Y-91426498D01*
X185535660Y-91430000D01*
X185464340Y-91430000D01*
X185428787Y-91426498D01*
X185357679Y-91419495D01*
X185220828Y-91377981D01*
X185220825Y-91377980D01*
X185094706Y-91310568D01*
X184984157Y-91219843D01*
X184893432Y-91109294D01*
X184826020Y-90983175D01*
X184826019Y-90983172D01*
X184784505Y-90846321D01*
X184770488Y-90704000D01*
X184784505Y-90561679D01*
X184826019Y-90424828D01*
X184826020Y-90424825D01*
X184893432Y-90298706D01*
X184984157Y-90188157D01*
X185094706Y-90097432D01*
X185220825Y-90030020D01*
X185220828Y-90030019D01*
X185357679Y-89988505D01*
X185428787Y-89981502D01*
X185464340Y-89978000D01*
X185535660Y-89978000D01*
X185571213Y-89981502D01*
X185571213Y-89981502D01*
G37*
G36*
X163071213Y-89981502D02*
G01*
X163142321Y-89988505D01*
X163279172Y-90030019D01*
X163279175Y-90030020D01*
X163405294Y-90097432D01*
X163515843Y-90188157D01*
X163606568Y-90298706D01*
X163673980Y-90424825D01*
X163673981Y-90424828D01*
X163715495Y-90561679D01*
X163729512Y-90704000D01*
X163715495Y-90846321D01*
X163673981Y-90983172D01*
X163673980Y-90983175D01*
X163606568Y-91109294D01*
X163515843Y-91219843D01*
X163405294Y-91310568D01*
X163279175Y-91377980D01*
X163279172Y-91377981D01*
X163142321Y-91419495D01*
X163071213Y-91426498D01*
X163035660Y-91430000D01*
X162964340Y-91430000D01*
X162928787Y-91426498D01*
X162857679Y-91419495D01*
X162720828Y-91377981D01*
X162720825Y-91377980D01*
X162594706Y-91310568D01*
X162484157Y-91219843D01*
X162393432Y-91109294D01*
X162326020Y-90983175D01*
X162326019Y-90983172D01*
X162284505Y-90846321D01*
X162270488Y-90704000D01*
X162284505Y-90561679D01*
X162326019Y-90424828D01*
X162326020Y-90424825D01*
X162393432Y-90298706D01*
X162484157Y-90188157D01*
X162594706Y-90097432D01*
X162720825Y-90030020D01*
X162720828Y-90030019D01*
X162857679Y-89988505D01*
X162928787Y-89981502D01*
X162964340Y-89978000D01*
X163035660Y-89978000D01*
X163071213Y-89981502D01*
X163071213Y-89981502D01*
G37*
G36*
X182596000Y-90172000D02*
G01*
X180589000Y-90172000D01*
X180589000Y-89310000D01*
X182596000Y-89310000D01*
X182596000Y-90172000D01*
X182596000Y-90172000D01*
G37*
G36*
X167991000Y-90172000D02*
G01*
X165984000Y-90172000D01*
X165984000Y-89310000D01*
X167991000Y-89310000D01*
X167991000Y-90172000D01*
X167991000Y-90172000D01*
G37*
G36*
X185571213Y-87981502D02*
G01*
X185642321Y-87988505D01*
X185779172Y-88030019D01*
X185779175Y-88030020D01*
X185905294Y-88097432D01*
X186015843Y-88188157D01*
X186106568Y-88298706D01*
X186173980Y-88424825D01*
X186173981Y-88424828D01*
X186215495Y-88561679D01*
X186229512Y-88704000D01*
X186215495Y-88846321D01*
X186173981Y-88983172D01*
X186173980Y-88983175D01*
X186106568Y-89109294D01*
X186015843Y-89219843D01*
X185905294Y-89310568D01*
X185779175Y-89377980D01*
X185779172Y-89377981D01*
X185642321Y-89419495D01*
X185571213Y-89426498D01*
X185535660Y-89430000D01*
X185464340Y-89430000D01*
X185428787Y-89426498D01*
X185357679Y-89419495D01*
X185220828Y-89377981D01*
X185220825Y-89377980D01*
X185094706Y-89310568D01*
X184984157Y-89219843D01*
X184893432Y-89109294D01*
X184826020Y-88983175D01*
X184826019Y-88983172D01*
X184784505Y-88846321D01*
X184770488Y-88704000D01*
X184784505Y-88561679D01*
X184826019Y-88424828D01*
X184826020Y-88424825D01*
X184893432Y-88298706D01*
X184984157Y-88188157D01*
X185094706Y-88097432D01*
X185220825Y-88030020D01*
X185220828Y-88030019D01*
X185357679Y-87988505D01*
X185428787Y-87981502D01*
X185464340Y-87978000D01*
X185535660Y-87978000D01*
X185571213Y-87981502D01*
X185571213Y-87981502D01*
G37*
G36*
X163071213Y-87981502D02*
G01*
X163142321Y-87988505D01*
X163279172Y-88030019D01*
X163279175Y-88030020D01*
X163405294Y-88097432D01*
X163515843Y-88188157D01*
X163606568Y-88298706D01*
X163673980Y-88424825D01*
X163673981Y-88424828D01*
X163715495Y-88561679D01*
X163729512Y-88704000D01*
X163715495Y-88846321D01*
X163673981Y-88983172D01*
X163673980Y-88983175D01*
X163606568Y-89109294D01*
X163515843Y-89219843D01*
X163405294Y-89310568D01*
X163279175Y-89377980D01*
X163279172Y-89377981D01*
X163142321Y-89419495D01*
X163071213Y-89426498D01*
X163035660Y-89430000D01*
X162964340Y-89430000D01*
X162928787Y-89426498D01*
X162857679Y-89419495D01*
X162720828Y-89377981D01*
X162720825Y-89377980D01*
X162594706Y-89310568D01*
X162484157Y-89219843D01*
X162393432Y-89109294D01*
X162326020Y-88983175D01*
X162326019Y-88983172D01*
X162284505Y-88846321D01*
X162270488Y-88704000D01*
X162284505Y-88561679D01*
X162326019Y-88424828D01*
X162326020Y-88424825D01*
X162393432Y-88298706D01*
X162484157Y-88188157D01*
X162594706Y-88097432D01*
X162720825Y-88030020D01*
X162720828Y-88030019D01*
X162857679Y-87988505D01*
X162928787Y-87981502D01*
X162964340Y-87978000D01*
X163035660Y-87978000D01*
X163071213Y-87981502D01*
X163071213Y-87981502D01*
G37*
G36*
X167991000Y-88902000D02*
G01*
X165984000Y-88902000D01*
X165984000Y-88040000D01*
X167991000Y-88040000D01*
X167991000Y-88902000D01*
X167991000Y-88902000D01*
G37*
G36*
X182596000Y-88902000D02*
G01*
X180589000Y-88902000D01*
X180589000Y-88040000D01*
X182596000Y-88040000D01*
X182596000Y-88902000D01*
X182596000Y-88902000D01*
G37*
G36*
X167991000Y-87632000D02*
G01*
X165984000Y-87632000D01*
X165984000Y-86770000D01*
X167991000Y-86770000D01*
X167991000Y-87632000D01*
X167991000Y-87632000D01*
G37*
G36*
X182596000Y-87632000D02*
G01*
X180589000Y-87632000D01*
X180589000Y-86770000D01*
X182596000Y-86770000D01*
X182596000Y-87632000D01*
X182596000Y-87632000D01*
G37*
G36*
X163726000Y-87430000D02*
G01*
X162274000Y-87430000D01*
X162274000Y-85978000D01*
X163726000Y-85978000D01*
X163726000Y-87430000D01*
X163726000Y-87430000D01*
G37*
G36*
X186226000Y-87430000D02*
G01*
X184774000Y-87430000D01*
X184774000Y-85978000D01*
X186226000Y-85978000D01*
X186226000Y-87430000D01*
X186226000Y-87430000D01*
G37*
M02*
