M48
; DRILL file {KiCad (5.1.4-0-10_14)} date Wednesday, 18 September 2019 at 11:49:12
; FORMAT={-:-/ absolute / metric / decimal}
; #@! TF.CreationDate,2019-09-18T11:49:12-05:00
; #@! TF.GenerationSoftware,Kicad,Pcbnew,(5.1.4-0-10_14)
FMAT,2
METRIC
T1C0.300
T2C0.400
T3C0.800
T4C1.000
%
G90
G05
T1
X159.385Y-109.042
X165.4Y-98.6
X167.615Y-102.838
X168.097Y-108.102
X168.275Y-111.125
X169.672Y-102.108
X170.005Y-94.821
X170.327Y-103.302
X170.9Y-108.25
X171.704Y-98.044
X172.133Y-91.011
X172.172Y-115.8
X172.487Y-101.164
X172.517Y-99.619
X173.736Y-87.376
X173.736Y-94.488
X174.382Y-129.3
X174.574Y-115.087
X174.9Y-111.2
X175.133Y-101.473
X175.158Y-99.568
X175.768Y-90.932
X176.2Y-104.3
X176.403Y-100.178
X176.8Y-112.7
X176.86Y-101.575
X178.232Y-100.457
X178.283Y-102.514
X178.8Y-111.2
X180.33Y-108.906
X181.864Y-108.636
X183.642Y-109.728
X187.3Y-119.202
X188.57Y-108.839
X189.763Y-123.495
X189.814Y-119.355
T2
X162.412Y-109.068
X168.732Y-125.806
X171.399Y-130.15
X172.2Y-110.832
X176.322Y-139.248
X183.54Y-132.309
T3
X188.036Y-116.865
X189.535Y-116.865
X185.5Y-86.704
X185.5Y-88.704
X185.5Y-90.704
X185.5Y-92.704
X185.5Y-94.704
X185.5Y-96.704
X185.5Y-98.704
X185.5Y-100.704
X163.0Y-86.704
X163.0Y-88.704
X163.0Y-90.704
X163.0Y-92.704
X163.0Y-94.704
X163.0Y-96.704
X163.0Y-98.704
X163.0Y-100.704
X160.263Y-118.516
X162.763Y-118.516
X186.08Y-133.339
X186.08Y-135.839
T4
X161.357Y-137.668
X163.897Y-137.668
T0
M30
