G04 #@! TF.GenerationSoftware,KiCad,Pcbnew,(5.1.4-0-10_14)*
G04 #@! TF.CreationDate,2019-09-18T11:49:10-05:00*
G04 #@! TF.ProjectId,poePoweredDevice-PD,706f6550-6f77-4657-9265-644465766963,rev?*
G04 #@! TF.SameCoordinates,Original*
G04 #@! TF.FileFunction,Copper,L2,Inr*
G04 #@! TF.FilePolarity,Positive*
%FSLAX46Y46*%
G04 Gerber Fmt 4.6, Leading zero omitted, Abs format (unit mm)*
G04 Created by KiCad (PCBNEW (5.1.4-0-10_14)) date 2019-09-18 11:49:10*
%MOMM*%
%LPD*%
G04 APERTURE LIST*
%ADD10R,1.350000X1.350000*%
%ADD11O,1.350000X1.350000*%
%ADD12R,1.700000X1.700000*%
%ADD13O,1.700000X1.700000*%
%ADD14R,1.600000X1.600000*%
%ADD15C,1.600000*%
%ADD16C,0.400000*%
%ADD17C,0.800000*%
%ADD18C,1.000000*%
%ADD19C,0.254000*%
G04 APERTURE END LIST*
D10*
X185500000Y-86704000D03*
D11*
X185500000Y-88704000D03*
X185500000Y-90704000D03*
X185500000Y-92704000D03*
X185500000Y-94704000D03*
X185500000Y-96704000D03*
X185500000Y-98704000D03*
X185500000Y-100704000D03*
D10*
X163000000Y-86704000D03*
D11*
X163000000Y-88704000D03*
X163000000Y-90704000D03*
X163000000Y-92704000D03*
X163000000Y-94704000D03*
X163000000Y-96704000D03*
X163000000Y-98704000D03*
X163000000Y-100704000D03*
D12*
X161356800Y-137668000D03*
D13*
X163896800Y-137668000D03*
D14*
X162763200Y-118516400D03*
D15*
X160263200Y-118516400D03*
D14*
X186080400Y-135839200D03*
D15*
X186080400Y-133339200D03*
D16*
X175158400Y-99568000D03*
X176403000Y-100177600D03*
X178282600Y-102514400D03*
X175133000Y-101473000D03*
X172516800Y-99618800D03*
X178231800Y-100457000D03*
X176860200Y-101574600D03*
X174574200Y-115087400D03*
X159385000Y-109042200D03*
X188569600Y-108839000D03*
X189763400Y-123494800D03*
X189814200Y-119354600D03*
X187299600Y-119202200D03*
X183642000Y-109728000D03*
X168097200Y-108102400D03*
D17*
X162412400Y-109067600D03*
D16*
X180330400Y-108905600D03*
X167614600Y-102837600D03*
D18*
X188036200Y-116865400D03*
D16*
X181864000Y-108635800D03*
X170899998Y-108250000D03*
D17*
X171399200Y-130149600D03*
D16*
X174382400Y-129300000D03*
D17*
X176321600Y-139248000D03*
X183540400Y-132308600D03*
X168732200Y-125806200D03*
D16*
X175768000Y-90932000D03*
X173736000Y-94488000D03*
X176200000Y-104300000D03*
X171704000Y-98044000D03*
X169672000Y-102108000D03*
D17*
X172200000Y-110832200D03*
D16*
X170326800Y-103301800D03*
X172487500Y-101164300D03*
D18*
X189534800Y-116865400D03*
D16*
X168275000Y-111125002D03*
X165400000Y-98600000D03*
X170005000Y-94821000D03*
X172133000Y-91011000D03*
X173736000Y-87376000D03*
X178800000Y-111200000D03*
X174900000Y-111200000D03*
X172171768Y-115800000D03*
X176800000Y-112700000D03*
D19*
G36*
X190348001Y-116073469D02*
G01*
X190258320Y-115983788D01*
X190072424Y-115859576D01*
X189865867Y-115774017D01*
X189646588Y-115730400D01*
X189423012Y-115730400D01*
X189203733Y-115774017D01*
X188997176Y-115859576D01*
X188811280Y-115983788D01*
X188653188Y-116141880D01*
X188528976Y-116327776D01*
X188443417Y-116534333D01*
X188399800Y-116753612D01*
X188399800Y-116977188D01*
X188443417Y-117196467D01*
X188528976Y-117403024D01*
X188653188Y-117588920D01*
X188811280Y-117747012D01*
X188997176Y-117871224D01*
X189203733Y-117956783D01*
X189423012Y-118000400D01*
X189646588Y-118000400D01*
X189865867Y-117956783D01*
X190072424Y-117871224D01*
X190258320Y-117747012D01*
X190348001Y-117657331D01*
X190348001Y-118707533D01*
X190346481Y-118706013D01*
X190209721Y-118614633D01*
X190057760Y-118551689D01*
X189896440Y-118519600D01*
X189731960Y-118519600D01*
X189570640Y-118551689D01*
X189418679Y-118614633D01*
X189281919Y-118706013D01*
X189165613Y-118822319D01*
X189074233Y-118959079D01*
X189011289Y-119111040D01*
X188979200Y-119272360D01*
X188979200Y-119436840D01*
X189011289Y-119598160D01*
X189074233Y-119750121D01*
X189165613Y-119886881D01*
X189264787Y-119986055D01*
X163740057Y-119926324D01*
X163807380Y-119905902D01*
X163917694Y-119846937D01*
X164014385Y-119767585D01*
X164093737Y-119670894D01*
X164152702Y-119560580D01*
X164189012Y-119440882D01*
X164201272Y-119316400D01*
X164198200Y-118802150D01*
X164039450Y-118643400D01*
X162890200Y-118643400D01*
X162890200Y-118663400D01*
X162636200Y-118663400D01*
X162636200Y-118643400D01*
X162616200Y-118643400D01*
X162616200Y-118389400D01*
X162636200Y-118389400D01*
X162636200Y-117240150D01*
X162890200Y-117240150D01*
X162890200Y-118389400D01*
X164039450Y-118389400D01*
X164198200Y-118230650D01*
X164201272Y-117716400D01*
X164189012Y-117591918D01*
X164152702Y-117472220D01*
X164093737Y-117361906D01*
X164014385Y-117265215D01*
X163917694Y-117185863D01*
X163807380Y-117126898D01*
X163687682Y-117090588D01*
X163563200Y-117078328D01*
X163048950Y-117081400D01*
X162890200Y-117240150D01*
X162636200Y-117240150D01*
X162477450Y-117081400D01*
X161963200Y-117078328D01*
X161838718Y-117090588D01*
X161719020Y-117126898D01*
X161608706Y-117185863D01*
X161512015Y-117265215D01*
X161432663Y-117361906D01*
X161373698Y-117472220D01*
X161344539Y-117568343D01*
X161177959Y-117401763D01*
X160942927Y-117244720D01*
X160681774Y-117136547D01*
X160404535Y-117081400D01*
X160121865Y-117081400D01*
X159844626Y-117136547D01*
X159583473Y-117244720D01*
X159348441Y-117401763D01*
X159148563Y-117601641D01*
X158991520Y-117836673D01*
X158883347Y-118097826D01*
X158828200Y-118375065D01*
X158828200Y-118657735D01*
X158883347Y-118934974D01*
X158991520Y-119196127D01*
X159148563Y-119431159D01*
X159348441Y-119631037D01*
X159583473Y-119788080D01*
X159844626Y-119896253D01*
X159951229Y-119917458D01*
X158775000Y-119914706D01*
X158775000Y-115717760D01*
X171336768Y-115717760D01*
X171336768Y-115882240D01*
X171368857Y-116043560D01*
X171431801Y-116195521D01*
X171523181Y-116332281D01*
X171639487Y-116448587D01*
X171776247Y-116539967D01*
X171928208Y-116602911D01*
X172089528Y-116635000D01*
X172254008Y-116635000D01*
X172415328Y-116602911D01*
X172567289Y-116539967D01*
X172704049Y-116448587D01*
X172820355Y-116332281D01*
X172911735Y-116195521D01*
X172974679Y-116043560D01*
X173006768Y-115882240D01*
X173006768Y-115717760D01*
X172974679Y-115556440D01*
X172911735Y-115404479D01*
X172820355Y-115267719D01*
X172704049Y-115151413D01*
X172567289Y-115060033D01*
X172415328Y-114997089D01*
X172254008Y-114965000D01*
X172089528Y-114965000D01*
X171928208Y-114997089D01*
X171776247Y-115060033D01*
X171639487Y-115151413D01*
X171523181Y-115267719D01*
X171431801Y-115404479D01*
X171368857Y-115556440D01*
X171336768Y-115717760D01*
X158775000Y-115717760D01*
X158775000Y-112617760D01*
X175965000Y-112617760D01*
X175965000Y-112782240D01*
X175997089Y-112943560D01*
X176060033Y-113095521D01*
X176151413Y-113232281D01*
X176267719Y-113348587D01*
X176404479Y-113439967D01*
X176556440Y-113502911D01*
X176717760Y-113535000D01*
X176882240Y-113535000D01*
X177043560Y-113502911D01*
X177195521Y-113439967D01*
X177332281Y-113348587D01*
X177448587Y-113232281D01*
X177539967Y-113095521D01*
X177602911Y-112943560D01*
X177635000Y-112782240D01*
X177635000Y-112617760D01*
X177602911Y-112456440D01*
X177539967Y-112304479D01*
X177448587Y-112167719D01*
X177332281Y-112051413D01*
X177195521Y-111960033D01*
X177043560Y-111897089D01*
X176882240Y-111865000D01*
X176717760Y-111865000D01*
X176556440Y-111897089D01*
X176404479Y-111960033D01*
X176267719Y-112051413D01*
X176151413Y-112167719D01*
X176060033Y-112304479D01*
X175997089Y-112456440D01*
X175965000Y-112617760D01*
X158775000Y-112617760D01*
X158775000Y-111042762D01*
X167440000Y-111042762D01*
X167440000Y-111207242D01*
X167472089Y-111368562D01*
X167535033Y-111520523D01*
X167626413Y-111657283D01*
X167742719Y-111773589D01*
X167879479Y-111864969D01*
X168031440Y-111927913D01*
X168192760Y-111960002D01*
X168357240Y-111960002D01*
X168518560Y-111927913D01*
X168670521Y-111864969D01*
X168807281Y-111773589D01*
X168923587Y-111657283D01*
X169014967Y-111520523D01*
X169077911Y-111368562D01*
X169110000Y-111207242D01*
X169110000Y-111042762D01*
X169077911Y-110881442D01*
X169015291Y-110730261D01*
X171165000Y-110730261D01*
X171165000Y-110934139D01*
X171204774Y-111134098D01*
X171282795Y-111322456D01*
X171396063Y-111491974D01*
X171540226Y-111636137D01*
X171709744Y-111749405D01*
X171898102Y-111827426D01*
X172098061Y-111867200D01*
X172301939Y-111867200D01*
X172501898Y-111827426D01*
X172690256Y-111749405D01*
X172859774Y-111636137D01*
X173003937Y-111491974D01*
X173117205Y-111322456D01*
X173195226Y-111134098D01*
X173198475Y-111117760D01*
X174065000Y-111117760D01*
X174065000Y-111282240D01*
X174097089Y-111443560D01*
X174160033Y-111595521D01*
X174251413Y-111732281D01*
X174367719Y-111848587D01*
X174504479Y-111939967D01*
X174656440Y-112002911D01*
X174817760Y-112035000D01*
X174982240Y-112035000D01*
X175143560Y-112002911D01*
X175295521Y-111939967D01*
X175432281Y-111848587D01*
X175548587Y-111732281D01*
X175639967Y-111595521D01*
X175702911Y-111443560D01*
X175735000Y-111282240D01*
X175735000Y-111117760D01*
X177965000Y-111117760D01*
X177965000Y-111282240D01*
X177997089Y-111443560D01*
X178060033Y-111595521D01*
X178151413Y-111732281D01*
X178267719Y-111848587D01*
X178404479Y-111939967D01*
X178556440Y-112002911D01*
X178717760Y-112035000D01*
X178882240Y-112035000D01*
X179043560Y-112002911D01*
X179195521Y-111939967D01*
X179332281Y-111848587D01*
X179448587Y-111732281D01*
X179539967Y-111595521D01*
X179602911Y-111443560D01*
X179635000Y-111282240D01*
X179635000Y-111117760D01*
X179602911Y-110956440D01*
X179539967Y-110804479D01*
X179448587Y-110667719D01*
X179332281Y-110551413D01*
X179195521Y-110460033D01*
X179043560Y-110397089D01*
X178882240Y-110365000D01*
X178717760Y-110365000D01*
X178556440Y-110397089D01*
X178404479Y-110460033D01*
X178267719Y-110551413D01*
X178151413Y-110667719D01*
X178060033Y-110804479D01*
X177997089Y-110956440D01*
X177965000Y-111117760D01*
X175735000Y-111117760D01*
X175702911Y-110956440D01*
X175639967Y-110804479D01*
X175548587Y-110667719D01*
X175432281Y-110551413D01*
X175295521Y-110460033D01*
X175143560Y-110397089D01*
X174982240Y-110365000D01*
X174817760Y-110365000D01*
X174656440Y-110397089D01*
X174504479Y-110460033D01*
X174367719Y-110551413D01*
X174251413Y-110667719D01*
X174160033Y-110804479D01*
X174097089Y-110956440D01*
X174065000Y-111117760D01*
X173198475Y-111117760D01*
X173235000Y-110934139D01*
X173235000Y-110730261D01*
X173195226Y-110530302D01*
X173117205Y-110341944D01*
X173003937Y-110172426D01*
X172859774Y-110028263D01*
X172690256Y-109914995D01*
X172501898Y-109836974D01*
X172301939Y-109797200D01*
X172098061Y-109797200D01*
X171898102Y-109836974D01*
X171709744Y-109914995D01*
X171540226Y-110028263D01*
X171396063Y-110172426D01*
X171282795Y-110341944D01*
X171204774Y-110530302D01*
X171165000Y-110730261D01*
X169015291Y-110730261D01*
X169014967Y-110729481D01*
X168923587Y-110592721D01*
X168807281Y-110476415D01*
X168670521Y-110385035D01*
X168518560Y-110322091D01*
X168357240Y-110290002D01*
X168192760Y-110290002D01*
X168031440Y-110322091D01*
X167879479Y-110385035D01*
X167742719Y-110476415D01*
X167626413Y-110592721D01*
X167535033Y-110729481D01*
X167472089Y-110881442D01*
X167440000Y-111042762D01*
X158775000Y-111042762D01*
X158775000Y-109613068D01*
X158852719Y-109690787D01*
X158989479Y-109782167D01*
X159141440Y-109845111D01*
X159302760Y-109877200D01*
X159467240Y-109877200D01*
X159628560Y-109845111D01*
X159780521Y-109782167D01*
X159917281Y-109690787D01*
X160033587Y-109574481D01*
X160124967Y-109437721D01*
X160187911Y-109285760D01*
X160220000Y-109124440D01*
X160220000Y-108959960D01*
X160187911Y-108798640D01*
X160124967Y-108646679D01*
X160033587Y-108509919D01*
X159917281Y-108393613D01*
X159780521Y-108302233D01*
X159628560Y-108239289D01*
X159467240Y-108207200D01*
X159302760Y-108207200D01*
X159141440Y-108239289D01*
X158989479Y-108302233D01*
X158852719Y-108393613D01*
X158775000Y-108471332D01*
X158775000Y-108167760D01*
X170064998Y-108167760D01*
X170064998Y-108332240D01*
X170097087Y-108493560D01*
X170160031Y-108645521D01*
X170251411Y-108782281D01*
X170367717Y-108898587D01*
X170504477Y-108989967D01*
X170656438Y-109052911D01*
X170817758Y-109085000D01*
X170982238Y-109085000D01*
X171143558Y-109052911D01*
X171295519Y-108989967D01*
X171432279Y-108898587D01*
X171548585Y-108782281D01*
X171639965Y-108645521D01*
X171678056Y-108553560D01*
X181029000Y-108553560D01*
X181029000Y-108718040D01*
X181061089Y-108879360D01*
X181124033Y-109031321D01*
X181215413Y-109168081D01*
X181331719Y-109284387D01*
X181468479Y-109375767D01*
X181620440Y-109438711D01*
X181781760Y-109470800D01*
X181946240Y-109470800D01*
X182107560Y-109438711D01*
X182259521Y-109375767D01*
X182396281Y-109284387D01*
X182512587Y-109168081D01*
X182603967Y-109031321D01*
X182666911Y-108879360D01*
X182691298Y-108756760D01*
X187734600Y-108756760D01*
X187734600Y-108921240D01*
X187766689Y-109082560D01*
X187829633Y-109234521D01*
X187921013Y-109371281D01*
X188037319Y-109487587D01*
X188174079Y-109578967D01*
X188326040Y-109641911D01*
X188487360Y-109674000D01*
X188651840Y-109674000D01*
X188813160Y-109641911D01*
X188965121Y-109578967D01*
X189101881Y-109487587D01*
X189218187Y-109371281D01*
X189309567Y-109234521D01*
X189372511Y-109082560D01*
X189404600Y-108921240D01*
X189404600Y-108756760D01*
X189372511Y-108595440D01*
X189309567Y-108443479D01*
X189218187Y-108306719D01*
X189101881Y-108190413D01*
X188965121Y-108099033D01*
X188813160Y-108036089D01*
X188651840Y-108004000D01*
X188487360Y-108004000D01*
X188326040Y-108036089D01*
X188174079Y-108099033D01*
X188037319Y-108190413D01*
X187921013Y-108306719D01*
X187829633Y-108443479D01*
X187766689Y-108595440D01*
X187734600Y-108756760D01*
X182691298Y-108756760D01*
X182699000Y-108718040D01*
X182699000Y-108553560D01*
X182666911Y-108392240D01*
X182603967Y-108240279D01*
X182512587Y-108103519D01*
X182396281Y-107987213D01*
X182259521Y-107895833D01*
X182107560Y-107832889D01*
X181946240Y-107800800D01*
X181781760Y-107800800D01*
X181620440Y-107832889D01*
X181468479Y-107895833D01*
X181331719Y-107987213D01*
X181215413Y-108103519D01*
X181124033Y-108240279D01*
X181061089Y-108392240D01*
X181029000Y-108553560D01*
X171678056Y-108553560D01*
X171702909Y-108493560D01*
X171734998Y-108332240D01*
X171734998Y-108167760D01*
X171702909Y-108006440D01*
X171639965Y-107854479D01*
X171548585Y-107717719D01*
X171432279Y-107601413D01*
X171295519Y-107510033D01*
X171143558Y-107447089D01*
X170982238Y-107415000D01*
X170817758Y-107415000D01*
X170656438Y-107447089D01*
X170504477Y-107510033D01*
X170367717Y-107601413D01*
X170251411Y-107717719D01*
X170160031Y-107854479D01*
X170097087Y-108006440D01*
X170064998Y-108167760D01*
X158775000Y-108167760D01*
X158775000Y-104217760D01*
X175365000Y-104217760D01*
X175365000Y-104382240D01*
X175397089Y-104543560D01*
X175460033Y-104695521D01*
X175551413Y-104832281D01*
X175667719Y-104948587D01*
X175804479Y-105039967D01*
X175956440Y-105102911D01*
X176117760Y-105135000D01*
X176282240Y-105135000D01*
X176443560Y-105102911D01*
X176595521Y-105039967D01*
X176732281Y-104948587D01*
X176848587Y-104832281D01*
X176939967Y-104695521D01*
X177002911Y-104543560D01*
X177035000Y-104382240D01*
X177035000Y-104217760D01*
X177002911Y-104056440D01*
X176939967Y-103904479D01*
X176848587Y-103767719D01*
X176732281Y-103651413D01*
X176595521Y-103560033D01*
X176443560Y-103497089D01*
X176282240Y-103465000D01*
X176117760Y-103465000D01*
X175956440Y-103497089D01*
X175804479Y-103560033D01*
X175667719Y-103651413D01*
X175551413Y-103767719D01*
X175460033Y-103904479D01*
X175397089Y-104056440D01*
X175365000Y-104217760D01*
X158775000Y-104217760D01*
X158775000Y-102025760D01*
X168837000Y-102025760D01*
X168837000Y-102190240D01*
X168869089Y-102351560D01*
X168932033Y-102503521D01*
X169023413Y-102640281D01*
X169139719Y-102756587D01*
X169276479Y-102847967D01*
X169428440Y-102910911D01*
X169573003Y-102939667D01*
X169523889Y-103058240D01*
X169491800Y-103219560D01*
X169491800Y-103384040D01*
X169523889Y-103545360D01*
X169586833Y-103697321D01*
X169678213Y-103834081D01*
X169794519Y-103950387D01*
X169931279Y-104041767D01*
X170083240Y-104104711D01*
X170244560Y-104136800D01*
X170409040Y-104136800D01*
X170570360Y-104104711D01*
X170722321Y-104041767D01*
X170859081Y-103950387D01*
X170975387Y-103834081D01*
X171066767Y-103697321D01*
X171129711Y-103545360D01*
X171161800Y-103384040D01*
X171161800Y-103219560D01*
X171129711Y-103058240D01*
X171066767Y-102906279D01*
X170975387Y-102769519D01*
X170859081Y-102653213D01*
X170722321Y-102561833D01*
X170570360Y-102498889D01*
X170425797Y-102470133D01*
X170441525Y-102432160D01*
X177447600Y-102432160D01*
X177447600Y-102596640D01*
X177479689Y-102757960D01*
X177542633Y-102909921D01*
X177634013Y-103046681D01*
X177750319Y-103162987D01*
X177887079Y-103254367D01*
X178039040Y-103317311D01*
X178200360Y-103349400D01*
X178364840Y-103349400D01*
X178526160Y-103317311D01*
X178678121Y-103254367D01*
X178814881Y-103162987D01*
X178931187Y-103046681D01*
X179022567Y-102909921D01*
X179085511Y-102757960D01*
X179117600Y-102596640D01*
X179117600Y-102432160D01*
X179085511Y-102270840D01*
X179022567Y-102118879D01*
X178931187Y-101982119D01*
X178814881Y-101865813D01*
X178678121Y-101774433D01*
X178526160Y-101711489D01*
X178364840Y-101679400D01*
X178200360Y-101679400D01*
X178039040Y-101711489D01*
X177887079Y-101774433D01*
X177750319Y-101865813D01*
X177634013Y-101982119D01*
X177542633Y-102118879D01*
X177479689Y-102270840D01*
X177447600Y-102432160D01*
X170441525Y-102432160D01*
X170474911Y-102351560D01*
X170507000Y-102190240D01*
X170507000Y-102025760D01*
X170474911Y-101864440D01*
X170411967Y-101712479D01*
X170320587Y-101575719D01*
X170204281Y-101459413D01*
X170067521Y-101368033D01*
X169915560Y-101305089D01*
X169754240Y-101273000D01*
X169589760Y-101273000D01*
X169428440Y-101305089D01*
X169276479Y-101368033D01*
X169139719Y-101459413D01*
X169023413Y-101575719D01*
X168932033Y-101712479D01*
X168869089Y-101864440D01*
X168837000Y-102025760D01*
X158775000Y-102025760D01*
X158775000Y-88704000D01*
X161683662Y-88704000D01*
X161708955Y-88960805D01*
X161783862Y-89207741D01*
X161905505Y-89435318D01*
X162069208Y-89634792D01*
X162153539Y-89704000D01*
X162069208Y-89773208D01*
X161905505Y-89972682D01*
X161783862Y-90200259D01*
X161708955Y-90447195D01*
X161683662Y-90704000D01*
X161708955Y-90960805D01*
X161783862Y-91207741D01*
X161905505Y-91435318D01*
X162069208Y-91634792D01*
X162153539Y-91704000D01*
X162069208Y-91773208D01*
X161905505Y-91972682D01*
X161783862Y-92200259D01*
X161708955Y-92447195D01*
X161683662Y-92704000D01*
X161708955Y-92960805D01*
X161783862Y-93207741D01*
X161905505Y-93435318D01*
X162069208Y-93634792D01*
X162153539Y-93704000D01*
X162069208Y-93773208D01*
X161905505Y-93972682D01*
X161783862Y-94200259D01*
X161708955Y-94447195D01*
X161683662Y-94704000D01*
X161708955Y-94960805D01*
X161783862Y-95207741D01*
X161905505Y-95435318D01*
X162069208Y-95634792D01*
X162153539Y-95704000D01*
X162069208Y-95773208D01*
X161905505Y-95972682D01*
X161783862Y-96200259D01*
X161708955Y-96447195D01*
X161683662Y-96704000D01*
X161708955Y-96960805D01*
X161783862Y-97207741D01*
X161905505Y-97435318D01*
X162069208Y-97634792D01*
X162153539Y-97704000D01*
X162069208Y-97773208D01*
X161905505Y-97972682D01*
X161783862Y-98200259D01*
X161708955Y-98447195D01*
X161683662Y-98704000D01*
X161708955Y-98960805D01*
X161783862Y-99207741D01*
X161905505Y-99435318D01*
X162069208Y-99634792D01*
X162153539Y-99704000D01*
X162069208Y-99773208D01*
X161905505Y-99972682D01*
X161783862Y-100200259D01*
X161708955Y-100447195D01*
X161683662Y-100704000D01*
X161708955Y-100960805D01*
X161783862Y-101207741D01*
X161905505Y-101435318D01*
X162069208Y-101634792D01*
X162268682Y-101798495D01*
X162496259Y-101920138D01*
X162743195Y-101995045D01*
X162935649Y-102014000D01*
X163064351Y-102014000D01*
X163256805Y-101995045D01*
X163503741Y-101920138D01*
X163731318Y-101798495D01*
X163930792Y-101634792D01*
X164094495Y-101435318D01*
X164216138Y-101207741D01*
X164254262Y-101082060D01*
X171652500Y-101082060D01*
X171652500Y-101246540D01*
X171684589Y-101407860D01*
X171747533Y-101559821D01*
X171838913Y-101696581D01*
X171955219Y-101812887D01*
X172091979Y-101904267D01*
X172243940Y-101967211D01*
X172405260Y-101999300D01*
X172569740Y-101999300D01*
X172731060Y-101967211D01*
X172883021Y-101904267D01*
X173019781Y-101812887D01*
X173136087Y-101696581D01*
X173227467Y-101559821D01*
X173290411Y-101407860D01*
X173293812Y-101390760D01*
X174298000Y-101390760D01*
X174298000Y-101555240D01*
X174330089Y-101716560D01*
X174393033Y-101868521D01*
X174484413Y-102005281D01*
X174600719Y-102121587D01*
X174737479Y-102212967D01*
X174889440Y-102275911D01*
X175050760Y-102308000D01*
X175215240Y-102308000D01*
X175376560Y-102275911D01*
X175528521Y-102212967D01*
X175665281Y-102121587D01*
X175781587Y-102005281D01*
X175872967Y-101868521D01*
X175935911Y-101716560D01*
X175968000Y-101555240D01*
X175968000Y-101390760D01*
X175935911Y-101229440D01*
X175872967Y-101077479D01*
X175781587Y-100940719D01*
X175665281Y-100824413D01*
X175528521Y-100733033D01*
X175376560Y-100670089D01*
X175215240Y-100638000D01*
X175050760Y-100638000D01*
X174889440Y-100670089D01*
X174737479Y-100733033D01*
X174600719Y-100824413D01*
X174484413Y-100940719D01*
X174393033Y-101077479D01*
X174330089Y-101229440D01*
X174298000Y-101390760D01*
X173293812Y-101390760D01*
X173322500Y-101246540D01*
X173322500Y-101082060D01*
X173290411Y-100920740D01*
X173227467Y-100768779D01*
X173136087Y-100632019D01*
X173019781Y-100515713D01*
X172883021Y-100424333D01*
X172731060Y-100361389D01*
X172569740Y-100329300D01*
X172405260Y-100329300D01*
X172243940Y-100361389D01*
X172091979Y-100424333D01*
X171955219Y-100515713D01*
X171838913Y-100632019D01*
X171747533Y-100768779D01*
X171684589Y-100920740D01*
X171652500Y-101082060D01*
X164254262Y-101082060D01*
X164291045Y-100960805D01*
X164316338Y-100704000D01*
X164291045Y-100447195D01*
X164216138Y-100200259D01*
X164160069Y-100095360D01*
X175568000Y-100095360D01*
X175568000Y-100259840D01*
X175600089Y-100421160D01*
X175663033Y-100573121D01*
X175754413Y-100709881D01*
X175870719Y-100826187D01*
X176007479Y-100917567D01*
X176159440Y-100980511D01*
X176320760Y-101012600D01*
X176485240Y-101012600D01*
X176646560Y-100980511D01*
X176798521Y-100917567D01*
X176935281Y-100826187D01*
X177051587Y-100709881D01*
X177142967Y-100573121D01*
X177205911Y-100421160D01*
X177238000Y-100259840D01*
X177238000Y-100095360D01*
X177205911Y-99934040D01*
X177142967Y-99782079D01*
X177051587Y-99645319D01*
X176935281Y-99529013D01*
X176798521Y-99437633D01*
X176646560Y-99374689D01*
X176485240Y-99342600D01*
X176320760Y-99342600D01*
X176159440Y-99374689D01*
X176007479Y-99437633D01*
X175870719Y-99529013D01*
X175754413Y-99645319D01*
X175663033Y-99782079D01*
X175600089Y-99934040D01*
X175568000Y-100095360D01*
X164160069Y-100095360D01*
X164094495Y-99972682D01*
X163930792Y-99773208D01*
X163846461Y-99704000D01*
X163930792Y-99634792D01*
X164094495Y-99435318D01*
X164216138Y-99207741D01*
X164291045Y-98960805D01*
X164316338Y-98704000D01*
X164297996Y-98517760D01*
X164565000Y-98517760D01*
X164565000Y-98682240D01*
X164597089Y-98843560D01*
X164660033Y-98995521D01*
X164751413Y-99132281D01*
X164867719Y-99248587D01*
X165004479Y-99339967D01*
X165156440Y-99402911D01*
X165317760Y-99435000D01*
X165482240Y-99435000D01*
X165643560Y-99402911D01*
X165795521Y-99339967D01*
X165932281Y-99248587D01*
X166048587Y-99132281D01*
X166139967Y-98995521D01*
X166202911Y-98843560D01*
X166235000Y-98682240D01*
X166235000Y-98517760D01*
X166202911Y-98356440D01*
X166139967Y-98204479D01*
X166048587Y-98067719D01*
X165942628Y-97961760D01*
X170869000Y-97961760D01*
X170869000Y-98126240D01*
X170901089Y-98287560D01*
X170964033Y-98439521D01*
X171055413Y-98576281D01*
X171171719Y-98692587D01*
X171308479Y-98783967D01*
X171460440Y-98846911D01*
X171621760Y-98879000D01*
X171786240Y-98879000D01*
X171947560Y-98846911D01*
X172099521Y-98783967D01*
X172236281Y-98692587D01*
X172352587Y-98576281D01*
X172443967Y-98439521D01*
X172506911Y-98287560D01*
X172539000Y-98126240D01*
X172539000Y-97961760D01*
X172506911Y-97800440D01*
X172443967Y-97648479D01*
X172352587Y-97511719D01*
X172236281Y-97395413D01*
X172099521Y-97304033D01*
X171947560Y-97241089D01*
X171786240Y-97209000D01*
X171621760Y-97209000D01*
X171460440Y-97241089D01*
X171308479Y-97304033D01*
X171171719Y-97395413D01*
X171055413Y-97511719D01*
X170964033Y-97648479D01*
X170901089Y-97800440D01*
X170869000Y-97961760D01*
X165942628Y-97961760D01*
X165932281Y-97951413D01*
X165795521Y-97860033D01*
X165643560Y-97797089D01*
X165482240Y-97765000D01*
X165317760Y-97765000D01*
X165156440Y-97797089D01*
X165004479Y-97860033D01*
X164867719Y-97951413D01*
X164751413Y-98067719D01*
X164660033Y-98204479D01*
X164597089Y-98356440D01*
X164565000Y-98517760D01*
X164297996Y-98517760D01*
X164291045Y-98447195D01*
X164216138Y-98200259D01*
X164094495Y-97972682D01*
X163930792Y-97773208D01*
X163846461Y-97704000D01*
X163930792Y-97634792D01*
X164094495Y-97435318D01*
X164216138Y-97207741D01*
X164291045Y-96960805D01*
X164316338Y-96704000D01*
X164291045Y-96447195D01*
X164216138Y-96200259D01*
X164094495Y-95972682D01*
X163930792Y-95773208D01*
X163846461Y-95704000D01*
X163930792Y-95634792D01*
X164094495Y-95435318D01*
X164216138Y-95207741D01*
X164291045Y-94960805D01*
X164312914Y-94738760D01*
X169170000Y-94738760D01*
X169170000Y-94903240D01*
X169202089Y-95064560D01*
X169265033Y-95216521D01*
X169356413Y-95353281D01*
X169472719Y-95469587D01*
X169609479Y-95560967D01*
X169761440Y-95623911D01*
X169922760Y-95656000D01*
X170087240Y-95656000D01*
X170248560Y-95623911D01*
X170400521Y-95560967D01*
X170537281Y-95469587D01*
X170653587Y-95353281D01*
X170744967Y-95216521D01*
X170807911Y-95064560D01*
X170840000Y-94903240D01*
X170840000Y-94738760D01*
X170807911Y-94577440D01*
X170744967Y-94425479D01*
X170731792Y-94405760D01*
X172901000Y-94405760D01*
X172901000Y-94570240D01*
X172933089Y-94731560D01*
X172996033Y-94883521D01*
X173087413Y-95020281D01*
X173203719Y-95136587D01*
X173340479Y-95227967D01*
X173492440Y-95290911D01*
X173653760Y-95323000D01*
X173818240Y-95323000D01*
X173979560Y-95290911D01*
X174131521Y-95227967D01*
X174268281Y-95136587D01*
X174384587Y-95020281D01*
X174475967Y-94883521D01*
X174538911Y-94731560D01*
X174571000Y-94570240D01*
X174571000Y-94405760D01*
X174538911Y-94244440D01*
X174475967Y-94092479D01*
X174384587Y-93955719D01*
X174268281Y-93839413D01*
X174131521Y-93748033D01*
X173979560Y-93685089D01*
X173818240Y-93653000D01*
X173653760Y-93653000D01*
X173492440Y-93685089D01*
X173340479Y-93748033D01*
X173203719Y-93839413D01*
X173087413Y-93955719D01*
X172996033Y-94092479D01*
X172933089Y-94244440D01*
X172901000Y-94405760D01*
X170731792Y-94405760D01*
X170653587Y-94288719D01*
X170537281Y-94172413D01*
X170400521Y-94081033D01*
X170248560Y-94018089D01*
X170087240Y-93986000D01*
X169922760Y-93986000D01*
X169761440Y-94018089D01*
X169609479Y-94081033D01*
X169472719Y-94172413D01*
X169356413Y-94288719D01*
X169265033Y-94425479D01*
X169202089Y-94577440D01*
X169170000Y-94738760D01*
X164312914Y-94738760D01*
X164316338Y-94704000D01*
X164291045Y-94447195D01*
X164216138Y-94200259D01*
X164094495Y-93972682D01*
X163930792Y-93773208D01*
X163846461Y-93704000D01*
X163930792Y-93634792D01*
X164094495Y-93435318D01*
X164216138Y-93207741D01*
X164291045Y-92960805D01*
X164316338Y-92704000D01*
X164291045Y-92447195D01*
X164216138Y-92200259D01*
X164094495Y-91972682D01*
X163930792Y-91773208D01*
X163846461Y-91704000D01*
X163930792Y-91634792D01*
X164094495Y-91435318D01*
X164216138Y-91207741D01*
X164291045Y-90960805D01*
X164294201Y-90928760D01*
X171298000Y-90928760D01*
X171298000Y-91093240D01*
X171330089Y-91254560D01*
X171393033Y-91406521D01*
X171484413Y-91543281D01*
X171600719Y-91659587D01*
X171737479Y-91750967D01*
X171889440Y-91813911D01*
X172050760Y-91846000D01*
X172215240Y-91846000D01*
X172376560Y-91813911D01*
X172528521Y-91750967D01*
X172665281Y-91659587D01*
X172781587Y-91543281D01*
X172872967Y-91406521D01*
X172935911Y-91254560D01*
X172968000Y-91093240D01*
X172968000Y-90928760D01*
X172952286Y-90849760D01*
X174933000Y-90849760D01*
X174933000Y-91014240D01*
X174965089Y-91175560D01*
X175028033Y-91327521D01*
X175119413Y-91464281D01*
X175235719Y-91580587D01*
X175372479Y-91671967D01*
X175524440Y-91734911D01*
X175685760Y-91767000D01*
X175850240Y-91767000D01*
X176011560Y-91734911D01*
X176163521Y-91671967D01*
X176300281Y-91580587D01*
X176416587Y-91464281D01*
X176507967Y-91327521D01*
X176570911Y-91175560D01*
X176603000Y-91014240D01*
X176603000Y-90849760D01*
X176570911Y-90688440D01*
X176507967Y-90536479D01*
X176416587Y-90399719D01*
X176300281Y-90283413D01*
X176163521Y-90192033D01*
X176011560Y-90129089D01*
X175850240Y-90097000D01*
X175685760Y-90097000D01*
X175524440Y-90129089D01*
X175372479Y-90192033D01*
X175235719Y-90283413D01*
X175119413Y-90399719D01*
X175028033Y-90536479D01*
X174965089Y-90688440D01*
X174933000Y-90849760D01*
X172952286Y-90849760D01*
X172935911Y-90767440D01*
X172872967Y-90615479D01*
X172781587Y-90478719D01*
X172665281Y-90362413D01*
X172528521Y-90271033D01*
X172376560Y-90208089D01*
X172215240Y-90176000D01*
X172050760Y-90176000D01*
X171889440Y-90208089D01*
X171737479Y-90271033D01*
X171600719Y-90362413D01*
X171484413Y-90478719D01*
X171393033Y-90615479D01*
X171330089Y-90767440D01*
X171298000Y-90928760D01*
X164294201Y-90928760D01*
X164316338Y-90704000D01*
X164291045Y-90447195D01*
X164216138Y-90200259D01*
X164094495Y-89972682D01*
X163930792Y-89773208D01*
X163846461Y-89704000D01*
X163930792Y-89634792D01*
X164094495Y-89435318D01*
X164216138Y-89207741D01*
X164291045Y-88960805D01*
X164316338Y-88704000D01*
X184183662Y-88704000D01*
X184208955Y-88960805D01*
X184283862Y-89207741D01*
X184405505Y-89435318D01*
X184569208Y-89634792D01*
X184653539Y-89704000D01*
X184569208Y-89773208D01*
X184405505Y-89972682D01*
X184283862Y-90200259D01*
X184208955Y-90447195D01*
X184183662Y-90704000D01*
X184208955Y-90960805D01*
X184283862Y-91207741D01*
X184405505Y-91435318D01*
X184569208Y-91634792D01*
X184653539Y-91704000D01*
X184569208Y-91773208D01*
X184405505Y-91972682D01*
X184283862Y-92200259D01*
X184208955Y-92447195D01*
X184183662Y-92704000D01*
X184208955Y-92960805D01*
X184283862Y-93207741D01*
X184405505Y-93435318D01*
X184569208Y-93634792D01*
X184653539Y-93704000D01*
X184569208Y-93773208D01*
X184405505Y-93972682D01*
X184283862Y-94200259D01*
X184208955Y-94447195D01*
X184183662Y-94704000D01*
X184208955Y-94960805D01*
X184283862Y-95207741D01*
X184405505Y-95435318D01*
X184569208Y-95634792D01*
X184653539Y-95704000D01*
X184569208Y-95773208D01*
X184405505Y-95972682D01*
X184283862Y-96200259D01*
X184208955Y-96447195D01*
X184183662Y-96704000D01*
X184208955Y-96960805D01*
X184283862Y-97207741D01*
X184405505Y-97435318D01*
X184569208Y-97634792D01*
X184653539Y-97704000D01*
X184569208Y-97773208D01*
X184405505Y-97972682D01*
X184283862Y-98200259D01*
X184208955Y-98447195D01*
X184183662Y-98704000D01*
X184208955Y-98960805D01*
X184283862Y-99207741D01*
X184405505Y-99435318D01*
X184569208Y-99634792D01*
X184653539Y-99704000D01*
X184569208Y-99773208D01*
X184405505Y-99972682D01*
X184283862Y-100200259D01*
X184208955Y-100447195D01*
X184183662Y-100704000D01*
X184208955Y-100960805D01*
X184283862Y-101207741D01*
X184405505Y-101435318D01*
X184569208Y-101634792D01*
X184768682Y-101798495D01*
X184996259Y-101920138D01*
X185243195Y-101995045D01*
X185435649Y-102014000D01*
X185564351Y-102014000D01*
X185756805Y-101995045D01*
X186003741Y-101920138D01*
X186231318Y-101798495D01*
X186430792Y-101634792D01*
X186594495Y-101435318D01*
X186716138Y-101207741D01*
X186791045Y-100960805D01*
X186816338Y-100704000D01*
X186791045Y-100447195D01*
X186716138Y-100200259D01*
X186594495Y-99972682D01*
X186430792Y-99773208D01*
X186346461Y-99704000D01*
X186430792Y-99634792D01*
X186594495Y-99435318D01*
X186716138Y-99207741D01*
X186791045Y-98960805D01*
X186816338Y-98704000D01*
X186791045Y-98447195D01*
X186716138Y-98200259D01*
X186594495Y-97972682D01*
X186430792Y-97773208D01*
X186346461Y-97704000D01*
X186430792Y-97634792D01*
X186594495Y-97435318D01*
X186716138Y-97207741D01*
X186791045Y-96960805D01*
X186816338Y-96704000D01*
X186791045Y-96447195D01*
X186716138Y-96200259D01*
X186594495Y-95972682D01*
X186430792Y-95773208D01*
X186346461Y-95704000D01*
X186430792Y-95634792D01*
X186594495Y-95435318D01*
X186716138Y-95207741D01*
X186791045Y-94960805D01*
X186816338Y-94704000D01*
X186791045Y-94447195D01*
X186716138Y-94200259D01*
X186594495Y-93972682D01*
X186430792Y-93773208D01*
X186346461Y-93704000D01*
X186430792Y-93634792D01*
X186594495Y-93435318D01*
X186716138Y-93207741D01*
X186791045Y-92960805D01*
X186816338Y-92704000D01*
X186791045Y-92447195D01*
X186716138Y-92200259D01*
X186594495Y-91972682D01*
X186430792Y-91773208D01*
X186346461Y-91704000D01*
X186430792Y-91634792D01*
X186594495Y-91435318D01*
X186716138Y-91207741D01*
X186791045Y-90960805D01*
X186816338Y-90704000D01*
X186791045Y-90447195D01*
X186716138Y-90200259D01*
X186594495Y-89972682D01*
X186430792Y-89773208D01*
X186346461Y-89704000D01*
X186430792Y-89634792D01*
X186594495Y-89435318D01*
X186716138Y-89207741D01*
X186791045Y-88960805D01*
X186816338Y-88704000D01*
X186791045Y-88447195D01*
X186716138Y-88200259D01*
X186594495Y-87972682D01*
X186537369Y-87903074D01*
X186626185Y-87830185D01*
X186705537Y-87733494D01*
X186764502Y-87623180D01*
X186800812Y-87503482D01*
X186813072Y-87379000D01*
X186813072Y-86029000D01*
X186800812Y-85904518D01*
X186764502Y-85784820D01*
X186705537Y-85674506D01*
X186626185Y-85577815D01*
X186529494Y-85498463D01*
X186419180Y-85439498D01*
X186299482Y-85403188D01*
X186175000Y-85390928D01*
X184825000Y-85390928D01*
X184700518Y-85403188D01*
X184580820Y-85439498D01*
X184470506Y-85498463D01*
X184373815Y-85577815D01*
X184294463Y-85674506D01*
X184235498Y-85784820D01*
X184199188Y-85904518D01*
X184186928Y-86029000D01*
X184186928Y-87379000D01*
X184199188Y-87503482D01*
X184235498Y-87623180D01*
X184294463Y-87733494D01*
X184373815Y-87830185D01*
X184462631Y-87903074D01*
X184405505Y-87972682D01*
X184283862Y-88200259D01*
X184208955Y-88447195D01*
X184183662Y-88704000D01*
X164316338Y-88704000D01*
X164291045Y-88447195D01*
X164216138Y-88200259D01*
X164094495Y-87972682D01*
X164037369Y-87903074D01*
X164126185Y-87830185D01*
X164205537Y-87733494D01*
X164264502Y-87623180D01*
X164300812Y-87503482D01*
X164313072Y-87379000D01*
X164313072Y-87293760D01*
X172901000Y-87293760D01*
X172901000Y-87458240D01*
X172933089Y-87619560D01*
X172996033Y-87771521D01*
X173087413Y-87908281D01*
X173203719Y-88024587D01*
X173340479Y-88115967D01*
X173492440Y-88178911D01*
X173653760Y-88211000D01*
X173818240Y-88211000D01*
X173979560Y-88178911D01*
X174131521Y-88115967D01*
X174268281Y-88024587D01*
X174384587Y-87908281D01*
X174475967Y-87771521D01*
X174538911Y-87619560D01*
X174571000Y-87458240D01*
X174571000Y-87293760D01*
X174538911Y-87132440D01*
X174475967Y-86980479D01*
X174384587Y-86843719D01*
X174268281Y-86727413D01*
X174131521Y-86636033D01*
X173979560Y-86573089D01*
X173818240Y-86541000D01*
X173653760Y-86541000D01*
X173492440Y-86573089D01*
X173340479Y-86636033D01*
X173203719Y-86727413D01*
X173087413Y-86843719D01*
X172996033Y-86980479D01*
X172933089Y-87132440D01*
X172901000Y-87293760D01*
X164313072Y-87293760D01*
X164313072Y-86029000D01*
X164300812Y-85904518D01*
X164264502Y-85784820D01*
X164205537Y-85674506D01*
X164126185Y-85577815D01*
X164029494Y-85498463D01*
X163919180Y-85439498D01*
X163799482Y-85403188D01*
X163675000Y-85390928D01*
X162325000Y-85390928D01*
X162200518Y-85403188D01*
X162080820Y-85439498D01*
X161970506Y-85498463D01*
X161873815Y-85577815D01*
X161794463Y-85674506D01*
X161735498Y-85784820D01*
X161699188Y-85904518D01*
X161686928Y-86029000D01*
X161686928Y-87379000D01*
X161699188Y-87503482D01*
X161735498Y-87623180D01*
X161794463Y-87733494D01*
X161873815Y-87830185D01*
X161962631Y-87903074D01*
X161905505Y-87972682D01*
X161783862Y-88200259D01*
X161708955Y-88447195D01*
X161683662Y-88704000D01*
X158775000Y-88704000D01*
X158775000Y-85114490D01*
X190348000Y-85090109D01*
X190348001Y-116073469D01*
X190348001Y-116073469D01*
G37*
X190348001Y-116073469D02*
X190258320Y-115983788D01*
X190072424Y-115859576D01*
X189865867Y-115774017D01*
X189646588Y-115730400D01*
X189423012Y-115730400D01*
X189203733Y-115774017D01*
X188997176Y-115859576D01*
X188811280Y-115983788D01*
X188653188Y-116141880D01*
X188528976Y-116327776D01*
X188443417Y-116534333D01*
X188399800Y-116753612D01*
X188399800Y-116977188D01*
X188443417Y-117196467D01*
X188528976Y-117403024D01*
X188653188Y-117588920D01*
X188811280Y-117747012D01*
X188997176Y-117871224D01*
X189203733Y-117956783D01*
X189423012Y-118000400D01*
X189646588Y-118000400D01*
X189865867Y-117956783D01*
X190072424Y-117871224D01*
X190258320Y-117747012D01*
X190348001Y-117657331D01*
X190348001Y-118707533D01*
X190346481Y-118706013D01*
X190209721Y-118614633D01*
X190057760Y-118551689D01*
X189896440Y-118519600D01*
X189731960Y-118519600D01*
X189570640Y-118551689D01*
X189418679Y-118614633D01*
X189281919Y-118706013D01*
X189165613Y-118822319D01*
X189074233Y-118959079D01*
X189011289Y-119111040D01*
X188979200Y-119272360D01*
X188979200Y-119436840D01*
X189011289Y-119598160D01*
X189074233Y-119750121D01*
X189165613Y-119886881D01*
X189264787Y-119986055D01*
X163740057Y-119926324D01*
X163807380Y-119905902D01*
X163917694Y-119846937D01*
X164014385Y-119767585D01*
X164093737Y-119670894D01*
X164152702Y-119560580D01*
X164189012Y-119440882D01*
X164201272Y-119316400D01*
X164198200Y-118802150D01*
X164039450Y-118643400D01*
X162890200Y-118643400D01*
X162890200Y-118663400D01*
X162636200Y-118663400D01*
X162636200Y-118643400D01*
X162616200Y-118643400D01*
X162616200Y-118389400D01*
X162636200Y-118389400D01*
X162636200Y-117240150D01*
X162890200Y-117240150D01*
X162890200Y-118389400D01*
X164039450Y-118389400D01*
X164198200Y-118230650D01*
X164201272Y-117716400D01*
X164189012Y-117591918D01*
X164152702Y-117472220D01*
X164093737Y-117361906D01*
X164014385Y-117265215D01*
X163917694Y-117185863D01*
X163807380Y-117126898D01*
X163687682Y-117090588D01*
X163563200Y-117078328D01*
X163048950Y-117081400D01*
X162890200Y-117240150D01*
X162636200Y-117240150D01*
X162477450Y-117081400D01*
X161963200Y-117078328D01*
X161838718Y-117090588D01*
X161719020Y-117126898D01*
X161608706Y-117185863D01*
X161512015Y-117265215D01*
X161432663Y-117361906D01*
X161373698Y-117472220D01*
X161344539Y-117568343D01*
X161177959Y-117401763D01*
X160942927Y-117244720D01*
X160681774Y-117136547D01*
X160404535Y-117081400D01*
X160121865Y-117081400D01*
X159844626Y-117136547D01*
X159583473Y-117244720D01*
X159348441Y-117401763D01*
X159148563Y-117601641D01*
X158991520Y-117836673D01*
X158883347Y-118097826D01*
X158828200Y-118375065D01*
X158828200Y-118657735D01*
X158883347Y-118934974D01*
X158991520Y-119196127D01*
X159148563Y-119431159D01*
X159348441Y-119631037D01*
X159583473Y-119788080D01*
X159844626Y-119896253D01*
X159951229Y-119917458D01*
X158775000Y-119914706D01*
X158775000Y-115717760D01*
X171336768Y-115717760D01*
X171336768Y-115882240D01*
X171368857Y-116043560D01*
X171431801Y-116195521D01*
X171523181Y-116332281D01*
X171639487Y-116448587D01*
X171776247Y-116539967D01*
X171928208Y-116602911D01*
X172089528Y-116635000D01*
X172254008Y-116635000D01*
X172415328Y-116602911D01*
X172567289Y-116539967D01*
X172704049Y-116448587D01*
X172820355Y-116332281D01*
X172911735Y-116195521D01*
X172974679Y-116043560D01*
X173006768Y-115882240D01*
X173006768Y-115717760D01*
X172974679Y-115556440D01*
X172911735Y-115404479D01*
X172820355Y-115267719D01*
X172704049Y-115151413D01*
X172567289Y-115060033D01*
X172415328Y-114997089D01*
X172254008Y-114965000D01*
X172089528Y-114965000D01*
X171928208Y-114997089D01*
X171776247Y-115060033D01*
X171639487Y-115151413D01*
X171523181Y-115267719D01*
X171431801Y-115404479D01*
X171368857Y-115556440D01*
X171336768Y-115717760D01*
X158775000Y-115717760D01*
X158775000Y-112617760D01*
X175965000Y-112617760D01*
X175965000Y-112782240D01*
X175997089Y-112943560D01*
X176060033Y-113095521D01*
X176151413Y-113232281D01*
X176267719Y-113348587D01*
X176404479Y-113439967D01*
X176556440Y-113502911D01*
X176717760Y-113535000D01*
X176882240Y-113535000D01*
X177043560Y-113502911D01*
X177195521Y-113439967D01*
X177332281Y-113348587D01*
X177448587Y-113232281D01*
X177539967Y-113095521D01*
X177602911Y-112943560D01*
X177635000Y-112782240D01*
X177635000Y-112617760D01*
X177602911Y-112456440D01*
X177539967Y-112304479D01*
X177448587Y-112167719D01*
X177332281Y-112051413D01*
X177195521Y-111960033D01*
X177043560Y-111897089D01*
X176882240Y-111865000D01*
X176717760Y-111865000D01*
X176556440Y-111897089D01*
X176404479Y-111960033D01*
X176267719Y-112051413D01*
X176151413Y-112167719D01*
X176060033Y-112304479D01*
X175997089Y-112456440D01*
X175965000Y-112617760D01*
X158775000Y-112617760D01*
X158775000Y-111042762D01*
X167440000Y-111042762D01*
X167440000Y-111207242D01*
X167472089Y-111368562D01*
X167535033Y-111520523D01*
X167626413Y-111657283D01*
X167742719Y-111773589D01*
X167879479Y-111864969D01*
X168031440Y-111927913D01*
X168192760Y-111960002D01*
X168357240Y-111960002D01*
X168518560Y-111927913D01*
X168670521Y-111864969D01*
X168807281Y-111773589D01*
X168923587Y-111657283D01*
X169014967Y-111520523D01*
X169077911Y-111368562D01*
X169110000Y-111207242D01*
X169110000Y-111042762D01*
X169077911Y-110881442D01*
X169015291Y-110730261D01*
X171165000Y-110730261D01*
X171165000Y-110934139D01*
X171204774Y-111134098D01*
X171282795Y-111322456D01*
X171396063Y-111491974D01*
X171540226Y-111636137D01*
X171709744Y-111749405D01*
X171898102Y-111827426D01*
X172098061Y-111867200D01*
X172301939Y-111867200D01*
X172501898Y-111827426D01*
X172690256Y-111749405D01*
X172859774Y-111636137D01*
X173003937Y-111491974D01*
X173117205Y-111322456D01*
X173195226Y-111134098D01*
X173198475Y-111117760D01*
X174065000Y-111117760D01*
X174065000Y-111282240D01*
X174097089Y-111443560D01*
X174160033Y-111595521D01*
X174251413Y-111732281D01*
X174367719Y-111848587D01*
X174504479Y-111939967D01*
X174656440Y-112002911D01*
X174817760Y-112035000D01*
X174982240Y-112035000D01*
X175143560Y-112002911D01*
X175295521Y-111939967D01*
X175432281Y-111848587D01*
X175548587Y-111732281D01*
X175639967Y-111595521D01*
X175702911Y-111443560D01*
X175735000Y-111282240D01*
X175735000Y-111117760D01*
X177965000Y-111117760D01*
X177965000Y-111282240D01*
X177997089Y-111443560D01*
X178060033Y-111595521D01*
X178151413Y-111732281D01*
X178267719Y-111848587D01*
X178404479Y-111939967D01*
X178556440Y-112002911D01*
X178717760Y-112035000D01*
X178882240Y-112035000D01*
X179043560Y-112002911D01*
X179195521Y-111939967D01*
X179332281Y-111848587D01*
X179448587Y-111732281D01*
X179539967Y-111595521D01*
X179602911Y-111443560D01*
X179635000Y-111282240D01*
X179635000Y-111117760D01*
X179602911Y-110956440D01*
X179539967Y-110804479D01*
X179448587Y-110667719D01*
X179332281Y-110551413D01*
X179195521Y-110460033D01*
X179043560Y-110397089D01*
X178882240Y-110365000D01*
X178717760Y-110365000D01*
X178556440Y-110397089D01*
X178404479Y-110460033D01*
X178267719Y-110551413D01*
X178151413Y-110667719D01*
X178060033Y-110804479D01*
X177997089Y-110956440D01*
X177965000Y-111117760D01*
X175735000Y-111117760D01*
X175702911Y-110956440D01*
X175639967Y-110804479D01*
X175548587Y-110667719D01*
X175432281Y-110551413D01*
X175295521Y-110460033D01*
X175143560Y-110397089D01*
X174982240Y-110365000D01*
X174817760Y-110365000D01*
X174656440Y-110397089D01*
X174504479Y-110460033D01*
X174367719Y-110551413D01*
X174251413Y-110667719D01*
X174160033Y-110804479D01*
X174097089Y-110956440D01*
X174065000Y-111117760D01*
X173198475Y-111117760D01*
X173235000Y-110934139D01*
X173235000Y-110730261D01*
X173195226Y-110530302D01*
X173117205Y-110341944D01*
X173003937Y-110172426D01*
X172859774Y-110028263D01*
X172690256Y-109914995D01*
X172501898Y-109836974D01*
X172301939Y-109797200D01*
X172098061Y-109797200D01*
X171898102Y-109836974D01*
X171709744Y-109914995D01*
X171540226Y-110028263D01*
X171396063Y-110172426D01*
X171282795Y-110341944D01*
X171204774Y-110530302D01*
X171165000Y-110730261D01*
X169015291Y-110730261D01*
X169014967Y-110729481D01*
X168923587Y-110592721D01*
X168807281Y-110476415D01*
X168670521Y-110385035D01*
X168518560Y-110322091D01*
X168357240Y-110290002D01*
X168192760Y-110290002D01*
X168031440Y-110322091D01*
X167879479Y-110385035D01*
X167742719Y-110476415D01*
X167626413Y-110592721D01*
X167535033Y-110729481D01*
X167472089Y-110881442D01*
X167440000Y-111042762D01*
X158775000Y-111042762D01*
X158775000Y-109613068D01*
X158852719Y-109690787D01*
X158989479Y-109782167D01*
X159141440Y-109845111D01*
X159302760Y-109877200D01*
X159467240Y-109877200D01*
X159628560Y-109845111D01*
X159780521Y-109782167D01*
X159917281Y-109690787D01*
X160033587Y-109574481D01*
X160124967Y-109437721D01*
X160187911Y-109285760D01*
X160220000Y-109124440D01*
X160220000Y-108959960D01*
X160187911Y-108798640D01*
X160124967Y-108646679D01*
X160033587Y-108509919D01*
X159917281Y-108393613D01*
X159780521Y-108302233D01*
X159628560Y-108239289D01*
X159467240Y-108207200D01*
X159302760Y-108207200D01*
X159141440Y-108239289D01*
X158989479Y-108302233D01*
X158852719Y-108393613D01*
X158775000Y-108471332D01*
X158775000Y-108167760D01*
X170064998Y-108167760D01*
X170064998Y-108332240D01*
X170097087Y-108493560D01*
X170160031Y-108645521D01*
X170251411Y-108782281D01*
X170367717Y-108898587D01*
X170504477Y-108989967D01*
X170656438Y-109052911D01*
X170817758Y-109085000D01*
X170982238Y-109085000D01*
X171143558Y-109052911D01*
X171295519Y-108989967D01*
X171432279Y-108898587D01*
X171548585Y-108782281D01*
X171639965Y-108645521D01*
X171678056Y-108553560D01*
X181029000Y-108553560D01*
X181029000Y-108718040D01*
X181061089Y-108879360D01*
X181124033Y-109031321D01*
X181215413Y-109168081D01*
X181331719Y-109284387D01*
X181468479Y-109375767D01*
X181620440Y-109438711D01*
X181781760Y-109470800D01*
X181946240Y-109470800D01*
X182107560Y-109438711D01*
X182259521Y-109375767D01*
X182396281Y-109284387D01*
X182512587Y-109168081D01*
X182603967Y-109031321D01*
X182666911Y-108879360D01*
X182691298Y-108756760D01*
X187734600Y-108756760D01*
X187734600Y-108921240D01*
X187766689Y-109082560D01*
X187829633Y-109234521D01*
X187921013Y-109371281D01*
X188037319Y-109487587D01*
X188174079Y-109578967D01*
X188326040Y-109641911D01*
X188487360Y-109674000D01*
X188651840Y-109674000D01*
X188813160Y-109641911D01*
X188965121Y-109578967D01*
X189101881Y-109487587D01*
X189218187Y-109371281D01*
X189309567Y-109234521D01*
X189372511Y-109082560D01*
X189404600Y-108921240D01*
X189404600Y-108756760D01*
X189372511Y-108595440D01*
X189309567Y-108443479D01*
X189218187Y-108306719D01*
X189101881Y-108190413D01*
X188965121Y-108099033D01*
X188813160Y-108036089D01*
X188651840Y-108004000D01*
X188487360Y-108004000D01*
X188326040Y-108036089D01*
X188174079Y-108099033D01*
X188037319Y-108190413D01*
X187921013Y-108306719D01*
X187829633Y-108443479D01*
X187766689Y-108595440D01*
X187734600Y-108756760D01*
X182691298Y-108756760D01*
X182699000Y-108718040D01*
X182699000Y-108553560D01*
X182666911Y-108392240D01*
X182603967Y-108240279D01*
X182512587Y-108103519D01*
X182396281Y-107987213D01*
X182259521Y-107895833D01*
X182107560Y-107832889D01*
X181946240Y-107800800D01*
X181781760Y-107800800D01*
X181620440Y-107832889D01*
X181468479Y-107895833D01*
X181331719Y-107987213D01*
X181215413Y-108103519D01*
X181124033Y-108240279D01*
X181061089Y-108392240D01*
X181029000Y-108553560D01*
X171678056Y-108553560D01*
X171702909Y-108493560D01*
X171734998Y-108332240D01*
X171734998Y-108167760D01*
X171702909Y-108006440D01*
X171639965Y-107854479D01*
X171548585Y-107717719D01*
X171432279Y-107601413D01*
X171295519Y-107510033D01*
X171143558Y-107447089D01*
X170982238Y-107415000D01*
X170817758Y-107415000D01*
X170656438Y-107447089D01*
X170504477Y-107510033D01*
X170367717Y-107601413D01*
X170251411Y-107717719D01*
X170160031Y-107854479D01*
X170097087Y-108006440D01*
X170064998Y-108167760D01*
X158775000Y-108167760D01*
X158775000Y-104217760D01*
X175365000Y-104217760D01*
X175365000Y-104382240D01*
X175397089Y-104543560D01*
X175460033Y-104695521D01*
X175551413Y-104832281D01*
X175667719Y-104948587D01*
X175804479Y-105039967D01*
X175956440Y-105102911D01*
X176117760Y-105135000D01*
X176282240Y-105135000D01*
X176443560Y-105102911D01*
X176595521Y-105039967D01*
X176732281Y-104948587D01*
X176848587Y-104832281D01*
X176939967Y-104695521D01*
X177002911Y-104543560D01*
X177035000Y-104382240D01*
X177035000Y-104217760D01*
X177002911Y-104056440D01*
X176939967Y-103904479D01*
X176848587Y-103767719D01*
X176732281Y-103651413D01*
X176595521Y-103560033D01*
X176443560Y-103497089D01*
X176282240Y-103465000D01*
X176117760Y-103465000D01*
X175956440Y-103497089D01*
X175804479Y-103560033D01*
X175667719Y-103651413D01*
X175551413Y-103767719D01*
X175460033Y-103904479D01*
X175397089Y-104056440D01*
X175365000Y-104217760D01*
X158775000Y-104217760D01*
X158775000Y-102025760D01*
X168837000Y-102025760D01*
X168837000Y-102190240D01*
X168869089Y-102351560D01*
X168932033Y-102503521D01*
X169023413Y-102640281D01*
X169139719Y-102756587D01*
X169276479Y-102847967D01*
X169428440Y-102910911D01*
X169573003Y-102939667D01*
X169523889Y-103058240D01*
X169491800Y-103219560D01*
X169491800Y-103384040D01*
X169523889Y-103545360D01*
X169586833Y-103697321D01*
X169678213Y-103834081D01*
X169794519Y-103950387D01*
X169931279Y-104041767D01*
X170083240Y-104104711D01*
X170244560Y-104136800D01*
X170409040Y-104136800D01*
X170570360Y-104104711D01*
X170722321Y-104041767D01*
X170859081Y-103950387D01*
X170975387Y-103834081D01*
X171066767Y-103697321D01*
X171129711Y-103545360D01*
X171161800Y-103384040D01*
X171161800Y-103219560D01*
X171129711Y-103058240D01*
X171066767Y-102906279D01*
X170975387Y-102769519D01*
X170859081Y-102653213D01*
X170722321Y-102561833D01*
X170570360Y-102498889D01*
X170425797Y-102470133D01*
X170441525Y-102432160D01*
X177447600Y-102432160D01*
X177447600Y-102596640D01*
X177479689Y-102757960D01*
X177542633Y-102909921D01*
X177634013Y-103046681D01*
X177750319Y-103162987D01*
X177887079Y-103254367D01*
X178039040Y-103317311D01*
X178200360Y-103349400D01*
X178364840Y-103349400D01*
X178526160Y-103317311D01*
X178678121Y-103254367D01*
X178814881Y-103162987D01*
X178931187Y-103046681D01*
X179022567Y-102909921D01*
X179085511Y-102757960D01*
X179117600Y-102596640D01*
X179117600Y-102432160D01*
X179085511Y-102270840D01*
X179022567Y-102118879D01*
X178931187Y-101982119D01*
X178814881Y-101865813D01*
X178678121Y-101774433D01*
X178526160Y-101711489D01*
X178364840Y-101679400D01*
X178200360Y-101679400D01*
X178039040Y-101711489D01*
X177887079Y-101774433D01*
X177750319Y-101865813D01*
X177634013Y-101982119D01*
X177542633Y-102118879D01*
X177479689Y-102270840D01*
X177447600Y-102432160D01*
X170441525Y-102432160D01*
X170474911Y-102351560D01*
X170507000Y-102190240D01*
X170507000Y-102025760D01*
X170474911Y-101864440D01*
X170411967Y-101712479D01*
X170320587Y-101575719D01*
X170204281Y-101459413D01*
X170067521Y-101368033D01*
X169915560Y-101305089D01*
X169754240Y-101273000D01*
X169589760Y-101273000D01*
X169428440Y-101305089D01*
X169276479Y-101368033D01*
X169139719Y-101459413D01*
X169023413Y-101575719D01*
X168932033Y-101712479D01*
X168869089Y-101864440D01*
X168837000Y-102025760D01*
X158775000Y-102025760D01*
X158775000Y-88704000D01*
X161683662Y-88704000D01*
X161708955Y-88960805D01*
X161783862Y-89207741D01*
X161905505Y-89435318D01*
X162069208Y-89634792D01*
X162153539Y-89704000D01*
X162069208Y-89773208D01*
X161905505Y-89972682D01*
X161783862Y-90200259D01*
X161708955Y-90447195D01*
X161683662Y-90704000D01*
X161708955Y-90960805D01*
X161783862Y-91207741D01*
X161905505Y-91435318D01*
X162069208Y-91634792D01*
X162153539Y-91704000D01*
X162069208Y-91773208D01*
X161905505Y-91972682D01*
X161783862Y-92200259D01*
X161708955Y-92447195D01*
X161683662Y-92704000D01*
X161708955Y-92960805D01*
X161783862Y-93207741D01*
X161905505Y-93435318D01*
X162069208Y-93634792D01*
X162153539Y-93704000D01*
X162069208Y-93773208D01*
X161905505Y-93972682D01*
X161783862Y-94200259D01*
X161708955Y-94447195D01*
X161683662Y-94704000D01*
X161708955Y-94960805D01*
X161783862Y-95207741D01*
X161905505Y-95435318D01*
X162069208Y-95634792D01*
X162153539Y-95704000D01*
X162069208Y-95773208D01*
X161905505Y-95972682D01*
X161783862Y-96200259D01*
X161708955Y-96447195D01*
X161683662Y-96704000D01*
X161708955Y-96960805D01*
X161783862Y-97207741D01*
X161905505Y-97435318D01*
X162069208Y-97634792D01*
X162153539Y-97704000D01*
X162069208Y-97773208D01*
X161905505Y-97972682D01*
X161783862Y-98200259D01*
X161708955Y-98447195D01*
X161683662Y-98704000D01*
X161708955Y-98960805D01*
X161783862Y-99207741D01*
X161905505Y-99435318D01*
X162069208Y-99634792D01*
X162153539Y-99704000D01*
X162069208Y-99773208D01*
X161905505Y-99972682D01*
X161783862Y-100200259D01*
X161708955Y-100447195D01*
X161683662Y-100704000D01*
X161708955Y-100960805D01*
X161783862Y-101207741D01*
X161905505Y-101435318D01*
X162069208Y-101634792D01*
X162268682Y-101798495D01*
X162496259Y-101920138D01*
X162743195Y-101995045D01*
X162935649Y-102014000D01*
X163064351Y-102014000D01*
X163256805Y-101995045D01*
X163503741Y-101920138D01*
X163731318Y-101798495D01*
X163930792Y-101634792D01*
X164094495Y-101435318D01*
X164216138Y-101207741D01*
X164254262Y-101082060D01*
X171652500Y-101082060D01*
X171652500Y-101246540D01*
X171684589Y-101407860D01*
X171747533Y-101559821D01*
X171838913Y-101696581D01*
X171955219Y-101812887D01*
X172091979Y-101904267D01*
X172243940Y-101967211D01*
X172405260Y-101999300D01*
X172569740Y-101999300D01*
X172731060Y-101967211D01*
X172883021Y-101904267D01*
X173019781Y-101812887D01*
X173136087Y-101696581D01*
X173227467Y-101559821D01*
X173290411Y-101407860D01*
X173293812Y-101390760D01*
X174298000Y-101390760D01*
X174298000Y-101555240D01*
X174330089Y-101716560D01*
X174393033Y-101868521D01*
X174484413Y-102005281D01*
X174600719Y-102121587D01*
X174737479Y-102212967D01*
X174889440Y-102275911D01*
X175050760Y-102308000D01*
X175215240Y-102308000D01*
X175376560Y-102275911D01*
X175528521Y-102212967D01*
X175665281Y-102121587D01*
X175781587Y-102005281D01*
X175872967Y-101868521D01*
X175935911Y-101716560D01*
X175968000Y-101555240D01*
X175968000Y-101390760D01*
X175935911Y-101229440D01*
X175872967Y-101077479D01*
X175781587Y-100940719D01*
X175665281Y-100824413D01*
X175528521Y-100733033D01*
X175376560Y-100670089D01*
X175215240Y-100638000D01*
X175050760Y-100638000D01*
X174889440Y-100670089D01*
X174737479Y-100733033D01*
X174600719Y-100824413D01*
X174484413Y-100940719D01*
X174393033Y-101077479D01*
X174330089Y-101229440D01*
X174298000Y-101390760D01*
X173293812Y-101390760D01*
X173322500Y-101246540D01*
X173322500Y-101082060D01*
X173290411Y-100920740D01*
X173227467Y-100768779D01*
X173136087Y-100632019D01*
X173019781Y-100515713D01*
X172883021Y-100424333D01*
X172731060Y-100361389D01*
X172569740Y-100329300D01*
X172405260Y-100329300D01*
X172243940Y-100361389D01*
X172091979Y-100424333D01*
X171955219Y-100515713D01*
X171838913Y-100632019D01*
X171747533Y-100768779D01*
X171684589Y-100920740D01*
X171652500Y-101082060D01*
X164254262Y-101082060D01*
X164291045Y-100960805D01*
X164316338Y-100704000D01*
X164291045Y-100447195D01*
X164216138Y-100200259D01*
X164160069Y-100095360D01*
X175568000Y-100095360D01*
X175568000Y-100259840D01*
X175600089Y-100421160D01*
X175663033Y-100573121D01*
X175754413Y-100709881D01*
X175870719Y-100826187D01*
X176007479Y-100917567D01*
X176159440Y-100980511D01*
X176320760Y-101012600D01*
X176485240Y-101012600D01*
X176646560Y-100980511D01*
X176798521Y-100917567D01*
X176935281Y-100826187D01*
X177051587Y-100709881D01*
X177142967Y-100573121D01*
X177205911Y-100421160D01*
X177238000Y-100259840D01*
X177238000Y-100095360D01*
X177205911Y-99934040D01*
X177142967Y-99782079D01*
X177051587Y-99645319D01*
X176935281Y-99529013D01*
X176798521Y-99437633D01*
X176646560Y-99374689D01*
X176485240Y-99342600D01*
X176320760Y-99342600D01*
X176159440Y-99374689D01*
X176007479Y-99437633D01*
X175870719Y-99529013D01*
X175754413Y-99645319D01*
X175663033Y-99782079D01*
X175600089Y-99934040D01*
X175568000Y-100095360D01*
X164160069Y-100095360D01*
X164094495Y-99972682D01*
X163930792Y-99773208D01*
X163846461Y-99704000D01*
X163930792Y-99634792D01*
X164094495Y-99435318D01*
X164216138Y-99207741D01*
X164291045Y-98960805D01*
X164316338Y-98704000D01*
X164297996Y-98517760D01*
X164565000Y-98517760D01*
X164565000Y-98682240D01*
X164597089Y-98843560D01*
X164660033Y-98995521D01*
X164751413Y-99132281D01*
X164867719Y-99248587D01*
X165004479Y-99339967D01*
X165156440Y-99402911D01*
X165317760Y-99435000D01*
X165482240Y-99435000D01*
X165643560Y-99402911D01*
X165795521Y-99339967D01*
X165932281Y-99248587D01*
X166048587Y-99132281D01*
X166139967Y-98995521D01*
X166202911Y-98843560D01*
X166235000Y-98682240D01*
X166235000Y-98517760D01*
X166202911Y-98356440D01*
X166139967Y-98204479D01*
X166048587Y-98067719D01*
X165942628Y-97961760D01*
X170869000Y-97961760D01*
X170869000Y-98126240D01*
X170901089Y-98287560D01*
X170964033Y-98439521D01*
X171055413Y-98576281D01*
X171171719Y-98692587D01*
X171308479Y-98783967D01*
X171460440Y-98846911D01*
X171621760Y-98879000D01*
X171786240Y-98879000D01*
X171947560Y-98846911D01*
X172099521Y-98783967D01*
X172236281Y-98692587D01*
X172352587Y-98576281D01*
X172443967Y-98439521D01*
X172506911Y-98287560D01*
X172539000Y-98126240D01*
X172539000Y-97961760D01*
X172506911Y-97800440D01*
X172443967Y-97648479D01*
X172352587Y-97511719D01*
X172236281Y-97395413D01*
X172099521Y-97304033D01*
X171947560Y-97241089D01*
X171786240Y-97209000D01*
X171621760Y-97209000D01*
X171460440Y-97241089D01*
X171308479Y-97304033D01*
X171171719Y-97395413D01*
X171055413Y-97511719D01*
X170964033Y-97648479D01*
X170901089Y-97800440D01*
X170869000Y-97961760D01*
X165942628Y-97961760D01*
X165932281Y-97951413D01*
X165795521Y-97860033D01*
X165643560Y-97797089D01*
X165482240Y-97765000D01*
X165317760Y-97765000D01*
X165156440Y-97797089D01*
X165004479Y-97860033D01*
X164867719Y-97951413D01*
X164751413Y-98067719D01*
X164660033Y-98204479D01*
X164597089Y-98356440D01*
X164565000Y-98517760D01*
X164297996Y-98517760D01*
X164291045Y-98447195D01*
X164216138Y-98200259D01*
X164094495Y-97972682D01*
X163930792Y-97773208D01*
X163846461Y-97704000D01*
X163930792Y-97634792D01*
X164094495Y-97435318D01*
X164216138Y-97207741D01*
X164291045Y-96960805D01*
X164316338Y-96704000D01*
X164291045Y-96447195D01*
X164216138Y-96200259D01*
X164094495Y-95972682D01*
X163930792Y-95773208D01*
X163846461Y-95704000D01*
X163930792Y-95634792D01*
X164094495Y-95435318D01*
X164216138Y-95207741D01*
X164291045Y-94960805D01*
X164312914Y-94738760D01*
X169170000Y-94738760D01*
X169170000Y-94903240D01*
X169202089Y-95064560D01*
X169265033Y-95216521D01*
X169356413Y-95353281D01*
X169472719Y-95469587D01*
X169609479Y-95560967D01*
X169761440Y-95623911D01*
X169922760Y-95656000D01*
X170087240Y-95656000D01*
X170248560Y-95623911D01*
X170400521Y-95560967D01*
X170537281Y-95469587D01*
X170653587Y-95353281D01*
X170744967Y-95216521D01*
X170807911Y-95064560D01*
X170840000Y-94903240D01*
X170840000Y-94738760D01*
X170807911Y-94577440D01*
X170744967Y-94425479D01*
X170731792Y-94405760D01*
X172901000Y-94405760D01*
X172901000Y-94570240D01*
X172933089Y-94731560D01*
X172996033Y-94883521D01*
X173087413Y-95020281D01*
X173203719Y-95136587D01*
X173340479Y-95227967D01*
X173492440Y-95290911D01*
X173653760Y-95323000D01*
X173818240Y-95323000D01*
X173979560Y-95290911D01*
X174131521Y-95227967D01*
X174268281Y-95136587D01*
X174384587Y-95020281D01*
X174475967Y-94883521D01*
X174538911Y-94731560D01*
X174571000Y-94570240D01*
X174571000Y-94405760D01*
X174538911Y-94244440D01*
X174475967Y-94092479D01*
X174384587Y-93955719D01*
X174268281Y-93839413D01*
X174131521Y-93748033D01*
X173979560Y-93685089D01*
X173818240Y-93653000D01*
X173653760Y-93653000D01*
X173492440Y-93685089D01*
X173340479Y-93748033D01*
X173203719Y-93839413D01*
X173087413Y-93955719D01*
X172996033Y-94092479D01*
X172933089Y-94244440D01*
X172901000Y-94405760D01*
X170731792Y-94405760D01*
X170653587Y-94288719D01*
X170537281Y-94172413D01*
X170400521Y-94081033D01*
X170248560Y-94018089D01*
X170087240Y-93986000D01*
X169922760Y-93986000D01*
X169761440Y-94018089D01*
X169609479Y-94081033D01*
X169472719Y-94172413D01*
X169356413Y-94288719D01*
X169265033Y-94425479D01*
X169202089Y-94577440D01*
X169170000Y-94738760D01*
X164312914Y-94738760D01*
X164316338Y-94704000D01*
X164291045Y-94447195D01*
X164216138Y-94200259D01*
X164094495Y-93972682D01*
X163930792Y-93773208D01*
X163846461Y-93704000D01*
X163930792Y-93634792D01*
X164094495Y-93435318D01*
X164216138Y-93207741D01*
X164291045Y-92960805D01*
X164316338Y-92704000D01*
X164291045Y-92447195D01*
X164216138Y-92200259D01*
X164094495Y-91972682D01*
X163930792Y-91773208D01*
X163846461Y-91704000D01*
X163930792Y-91634792D01*
X164094495Y-91435318D01*
X164216138Y-91207741D01*
X164291045Y-90960805D01*
X164294201Y-90928760D01*
X171298000Y-90928760D01*
X171298000Y-91093240D01*
X171330089Y-91254560D01*
X171393033Y-91406521D01*
X171484413Y-91543281D01*
X171600719Y-91659587D01*
X171737479Y-91750967D01*
X171889440Y-91813911D01*
X172050760Y-91846000D01*
X172215240Y-91846000D01*
X172376560Y-91813911D01*
X172528521Y-91750967D01*
X172665281Y-91659587D01*
X172781587Y-91543281D01*
X172872967Y-91406521D01*
X172935911Y-91254560D01*
X172968000Y-91093240D01*
X172968000Y-90928760D01*
X172952286Y-90849760D01*
X174933000Y-90849760D01*
X174933000Y-91014240D01*
X174965089Y-91175560D01*
X175028033Y-91327521D01*
X175119413Y-91464281D01*
X175235719Y-91580587D01*
X175372479Y-91671967D01*
X175524440Y-91734911D01*
X175685760Y-91767000D01*
X175850240Y-91767000D01*
X176011560Y-91734911D01*
X176163521Y-91671967D01*
X176300281Y-91580587D01*
X176416587Y-91464281D01*
X176507967Y-91327521D01*
X176570911Y-91175560D01*
X176603000Y-91014240D01*
X176603000Y-90849760D01*
X176570911Y-90688440D01*
X176507967Y-90536479D01*
X176416587Y-90399719D01*
X176300281Y-90283413D01*
X176163521Y-90192033D01*
X176011560Y-90129089D01*
X175850240Y-90097000D01*
X175685760Y-90097000D01*
X175524440Y-90129089D01*
X175372479Y-90192033D01*
X175235719Y-90283413D01*
X175119413Y-90399719D01*
X175028033Y-90536479D01*
X174965089Y-90688440D01*
X174933000Y-90849760D01*
X172952286Y-90849760D01*
X172935911Y-90767440D01*
X172872967Y-90615479D01*
X172781587Y-90478719D01*
X172665281Y-90362413D01*
X172528521Y-90271033D01*
X172376560Y-90208089D01*
X172215240Y-90176000D01*
X172050760Y-90176000D01*
X171889440Y-90208089D01*
X171737479Y-90271033D01*
X171600719Y-90362413D01*
X171484413Y-90478719D01*
X171393033Y-90615479D01*
X171330089Y-90767440D01*
X171298000Y-90928760D01*
X164294201Y-90928760D01*
X164316338Y-90704000D01*
X164291045Y-90447195D01*
X164216138Y-90200259D01*
X164094495Y-89972682D01*
X163930792Y-89773208D01*
X163846461Y-89704000D01*
X163930792Y-89634792D01*
X164094495Y-89435318D01*
X164216138Y-89207741D01*
X164291045Y-88960805D01*
X164316338Y-88704000D01*
X184183662Y-88704000D01*
X184208955Y-88960805D01*
X184283862Y-89207741D01*
X184405505Y-89435318D01*
X184569208Y-89634792D01*
X184653539Y-89704000D01*
X184569208Y-89773208D01*
X184405505Y-89972682D01*
X184283862Y-90200259D01*
X184208955Y-90447195D01*
X184183662Y-90704000D01*
X184208955Y-90960805D01*
X184283862Y-91207741D01*
X184405505Y-91435318D01*
X184569208Y-91634792D01*
X184653539Y-91704000D01*
X184569208Y-91773208D01*
X184405505Y-91972682D01*
X184283862Y-92200259D01*
X184208955Y-92447195D01*
X184183662Y-92704000D01*
X184208955Y-92960805D01*
X184283862Y-93207741D01*
X184405505Y-93435318D01*
X184569208Y-93634792D01*
X184653539Y-93704000D01*
X184569208Y-93773208D01*
X184405505Y-93972682D01*
X184283862Y-94200259D01*
X184208955Y-94447195D01*
X184183662Y-94704000D01*
X184208955Y-94960805D01*
X184283862Y-95207741D01*
X184405505Y-95435318D01*
X184569208Y-95634792D01*
X184653539Y-95704000D01*
X184569208Y-95773208D01*
X184405505Y-95972682D01*
X184283862Y-96200259D01*
X184208955Y-96447195D01*
X184183662Y-96704000D01*
X184208955Y-96960805D01*
X184283862Y-97207741D01*
X184405505Y-97435318D01*
X184569208Y-97634792D01*
X184653539Y-97704000D01*
X184569208Y-97773208D01*
X184405505Y-97972682D01*
X184283862Y-98200259D01*
X184208955Y-98447195D01*
X184183662Y-98704000D01*
X184208955Y-98960805D01*
X184283862Y-99207741D01*
X184405505Y-99435318D01*
X184569208Y-99634792D01*
X184653539Y-99704000D01*
X184569208Y-99773208D01*
X184405505Y-99972682D01*
X184283862Y-100200259D01*
X184208955Y-100447195D01*
X184183662Y-100704000D01*
X184208955Y-100960805D01*
X184283862Y-101207741D01*
X184405505Y-101435318D01*
X184569208Y-101634792D01*
X184768682Y-101798495D01*
X184996259Y-101920138D01*
X185243195Y-101995045D01*
X185435649Y-102014000D01*
X185564351Y-102014000D01*
X185756805Y-101995045D01*
X186003741Y-101920138D01*
X186231318Y-101798495D01*
X186430792Y-101634792D01*
X186594495Y-101435318D01*
X186716138Y-101207741D01*
X186791045Y-100960805D01*
X186816338Y-100704000D01*
X186791045Y-100447195D01*
X186716138Y-100200259D01*
X186594495Y-99972682D01*
X186430792Y-99773208D01*
X186346461Y-99704000D01*
X186430792Y-99634792D01*
X186594495Y-99435318D01*
X186716138Y-99207741D01*
X186791045Y-98960805D01*
X186816338Y-98704000D01*
X186791045Y-98447195D01*
X186716138Y-98200259D01*
X186594495Y-97972682D01*
X186430792Y-97773208D01*
X186346461Y-97704000D01*
X186430792Y-97634792D01*
X186594495Y-97435318D01*
X186716138Y-97207741D01*
X186791045Y-96960805D01*
X186816338Y-96704000D01*
X186791045Y-96447195D01*
X186716138Y-96200259D01*
X186594495Y-95972682D01*
X186430792Y-95773208D01*
X186346461Y-95704000D01*
X186430792Y-95634792D01*
X186594495Y-95435318D01*
X186716138Y-95207741D01*
X186791045Y-94960805D01*
X186816338Y-94704000D01*
X186791045Y-94447195D01*
X186716138Y-94200259D01*
X186594495Y-93972682D01*
X186430792Y-93773208D01*
X186346461Y-93704000D01*
X186430792Y-93634792D01*
X186594495Y-93435318D01*
X186716138Y-93207741D01*
X186791045Y-92960805D01*
X186816338Y-92704000D01*
X186791045Y-92447195D01*
X186716138Y-92200259D01*
X186594495Y-91972682D01*
X186430792Y-91773208D01*
X186346461Y-91704000D01*
X186430792Y-91634792D01*
X186594495Y-91435318D01*
X186716138Y-91207741D01*
X186791045Y-90960805D01*
X186816338Y-90704000D01*
X186791045Y-90447195D01*
X186716138Y-90200259D01*
X186594495Y-89972682D01*
X186430792Y-89773208D01*
X186346461Y-89704000D01*
X186430792Y-89634792D01*
X186594495Y-89435318D01*
X186716138Y-89207741D01*
X186791045Y-88960805D01*
X186816338Y-88704000D01*
X186791045Y-88447195D01*
X186716138Y-88200259D01*
X186594495Y-87972682D01*
X186537369Y-87903074D01*
X186626185Y-87830185D01*
X186705537Y-87733494D01*
X186764502Y-87623180D01*
X186800812Y-87503482D01*
X186813072Y-87379000D01*
X186813072Y-86029000D01*
X186800812Y-85904518D01*
X186764502Y-85784820D01*
X186705537Y-85674506D01*
X186626185Y-85577815D01*
X186529494Y-85498463D01*
X186419180Y-85439498D01*
X186299482Y-85403188D01*
X186175000Y-85390928D01*
X184825000Y-85390928D01*
X184700518Y-85403188D01*
X184580820Y-85439498D01*
X184470506Y-85498463D01*
X184373815Y-85577815D01*
X184294463Y-85674506D01*
X184235498Y-85784820D01*
X184199188Y-85904518D01*
X184186928Y-86029000D01*
X184186928Y-87379000D01*
X184199188Y-87503482D01*
X184235498Y-87623180D01*
X184294463Y-87733494D01*
X184373815Y-87830185D01*
X184462631Y-87903074D01*
X184405505Y-87972682D01*
X184283862Y-88200259D01*
X184208955Y-88447195D01*
X184183662Y-88704000D01*
X164316338Y-88704000D01*
X164291045Y-88447195D01*
X164216138Y-88200259D01*
X164094495Y-87972682D01*
X164037369Y-87903074D01*
X164126185Y-87830185D01*
X164205537Y-87733494D01*
X164264502Y-87623180D01*
X164300812Y-87503482D01*
X164313072Y-87379000D01*
X164313072Y-87293760D01*
X172901000Y-87293760D01*
X172901000Y-87458240D01*
X172933089Y-87619560D01*
X172996033Y-87771521D01*
X173087413Y-87908281D01*
X173203719Y-88024587D01*
X173340479Y-88115967D01*
X173492440Y-88178911D01*
X173653760Y-88211000D01*
X173818240Y-88211000D01*
X173979560Y-88178911D01*
X174131521Y-88115967D01*
X174268281Y-88024587D01*
X174384587Y-87908281D01*
X174475967Y-87771521D01*
X174538911Y-87619560D01*
X174571000Y-87458240D01*
X174571000Y-87293760D01*
X174538911Y-87132440D01*
X174475967Y-86980479D01*
X174384587Y-86843719D01*
X174268281Y-86727413D01*
X174131521Y-86636033D01*
X173979560Y-86573089D01*
X173818240Y-86541000D01*
X173653760Y-86541000D01*
X173492440Y-86573089D01*
X173340479Y-86636033D01*
X173203719Y-86727413D01*
X173087413Y-86843719D01*
X172996033Y-86980479D01*
X172933089Y-87132440D01*
X172901000Y-87293760D01*
X164313072Y-87293760D01*
X164313072Y-86029000D01*
X164300812Y-85904518D01*
X164264502Y-85784820D01*
X164205537Y-85674506D01*
X164126185Y-85577815D01*
X164029494Y-85498463D01*
X163919180Y-85439498D01*
X163799482Y-85403188D01*
X163675000Y-85390928D01*
X162325000Y-85390928D01*
X162200518Y-85403188D01*
X162080820Y-85439498D01*
X161970506Y-85498463D01*
X161873815Y-85577815D01*
X161794463Y-85674506D01*
X161735498Y-85784820D01*
X161699188Y-85904518D01*
X161686928Y-86029000D01*
X161686928Y-87379000D01*
X161699188Y-87503482D01*
X161735498Y-87623180D01*
X161794463Y-87733494D01*
X161873815Y-87830185D01*
X161962631Y-87903074D01*
X161905505Y-87972682D01*
X161783862Y-88200259D01*
X161708955Y-88447195D01*
X161683662Y-88704000D01*
X158775000Y-88704000D01*
X158775000Y-85114490D01*
X190348000Y-85090109D01*
X190348001Y-116073469D01*
G36*
X190348001Y-122324982D02*
G01*
X190348001Y-122898533D01*
X190295681Y-122846213D01*
X190158921Y-122754833D01*
X190006960Y-122691889D01*
X189845640Y-122659800D01*
X189681160Y-122659800D01*
X189519840Y-122691889D01*
X189367879Y-122754833D01*
X189231119Y-122846213D01*
X189114813Y-122962519D01*
X189023433Y-123099279D01*
X188960489Y-123251240D01*
X188928400Y-123412560D01*
X188928400Y-123577040D01*
X188960489Y-123738360D01*
X189023433Y-123890321D01*
X189114813Y-124027081D01*
X189231119Y-124143387D01*
X189367879Y-124234767D01*
X189519840Y-124297711D01*
X189681160Y-124329800D01*
X189845640Y-124329800D01*
X190006960Y-124297711D01*
X190158921Y-124234767D01*
X190295681Y-124143387D01*
X190348001Y-124091067D01*
X190348001Y-140285110D01*
X158775000Y-140309491D01*
X158775000Y-138518000D01*
X159868728Y-138518000D01*
X159880988Y-138642482D01*
X159917298Y-138762180D01*
X159976263Y-138872494D01*
X160055615Y-138969185D01*
X160152306Y-139048537D01*
X160262620Y-139107502D01*
X160382318Y-139143812D01*
X160506800Y-139156072D01*
X161071050Y-139153000D01*
X161229800Y-138994250D01*
X161229800Y-137795000D01*
X160030550Y-137795000D01*
X159871800Y-137953750D01*
X159868728Y-138518000D01*
X158775000Y-138518000D01*
X158775000Y-136818000D01*
X159868728Y-136818000D01*
X159871800Y-137382250D01*
X160030550Y-137541000D01*
X161229800Y-137541000D01*
X161229800Y-136341750D01*
X161483800Y-136341750D01*
X161483800Y-137541000D01*
X161503800Y-137541000D01*
X161503800Y-137795000D01*
X161483800Y-137795000D01*
X161483800Y-138994250D01*
X161642550Y-139153000D01*
X162206800Y-139156072D01*
X162331282Y-139143812D01*
X162450980Y-139107502D01*
X162561294Y-139048537D01*
X162657985Y-138969185D01*
X162737337Y-138872494D01*
X162796302Y-138762180D01*
X162817193Y-138693313D01*
X162841666Y-138723134D01*
X163067786Y-138908706D01*
X163325766Y-139046599D01*
X163605689Y-139131513D01*
X163823850Y-139153000D01*
X163969750Y-139153000D01*
X164040202Y-139146061D01*
X175286600Y-139146061D01*
X175286600Y-139349939D01*
X175326374Y-139549898D01*
X175404395Y-139738256D01*
X175517663Y-139907774D01*
X175661826Y-140051937D01*
X175831344Y-140165205D01*
X176019702Y-140243226D01*
X176219661Y-140283000D01*
X176423539Y-140283000D01*
X176623498Y-140243226D01*
X176811856Y-140165205D01*
X176981374Y-140051937D01*
X177125537Y-139907774D01*
X177238805Y-139738256D01*
X177316826Y-139549898D01*
X177356600Y-139349939D01*
X177356600Y-139146061D01*
X177316826Y-138946102D01*
X177238805Y-138757744D01*
X177125537Y-138588226D01*
X176981374Y-138444063D01*
X176811856Y-138330795D01*
X176623498Y-138252774D01*
X176423539Y-138213000D01*
X176219661Y-138213000D01*
X176019702Y-138252774D01*
X175831344Y-138330795D01*
X175661826Y-138444063D01*
X175517663Y-138588226D01*
X175404395Y-138757744D01*
X175326374Y-138946102D01*
X175286600Y-139146061D01*
X164040202Y-139146061D01*
X164187911Y-139131513D01*
X164467834Y-139046599D01*
X164725814Y-138908706D01*
X164951934Y-138723134D01*
X165137506Y-138497014D01*
X165275399Y-138239034D01*
X165360313Y-137959111D01*
X165388985Y-137668000D01*
X165360313Y-137376889D01*
X165275399Y-137096966D01*
X165137506Y-136838986D01*
X164973546Y-136639200D01*
X184642328Y-136639200D01*
X184654588Y-136763682D01*
X184690898Y-136883380D01*
X184749863Y-136993694D01*
X184829215Y-137090385D01*
X184925906Y-137169737D01*
X185036220Y-137228702D01*
X185155918Y-137265012D01*
X185280400Y-137277272D01*
X185794650Y-137274200D01*
X185953400Y-137115450D01*
X185953400Y-135966200D01*
X186207400Y-135966200D01*
X186207400Y-137115450D01*
X186366150Y-137274200D01*
X186880400Y-137277272D01*
X187004882Y-137265012D01*
X187124580Y-137228702D01*
X187234894Y-137169737D01*
X187331585Y-137090385D01*
X187410937Y-136993694D01*
X187469902Y-136883380D01*
X187506212Y-136763682D01*
X187518472Y-136639200D01*
X187515400Y-136124950D01*
X187356650Y-135966200D01*
X186207400Y-135966200D01*
X185953400Y-135966200D01*
X184804150Y-135966200D01*
X184645400Y-136124950D01*
X184642328Y-136639200D01*
X164973546Y-136639200D01*
X164951934Y-136612866D01*
X164725814Y-136427294D01*
X164467834Y-136289401D01*
X164187911Y-136204487D01*
X163969750Y-136183000D01*
X163823850Y-136183000D01*
X163605689Y-136204487D01*
X163325766Y-136289401D01*
X163067786Y-136427294D01*
X162841666Y-136612866D01*
X162817193Y-136642687D01*
X162796302Y-136573820D01*
X162737337Y-136463506D01*
X162657985Y-136366815D01*
X162561294Y-136287463D01*
X162450980Y-136228498D01*
X162331282Y-136192188D01*
X162206800Y-136179928D01*
X161642550Y-136183000D01*
X161483800Y-136341750D01*
X161229800Y-136341750D01*
X161071050Y-136183000D01*
X160506800Y-136179928D01*
X160382318Y-136192188D01*
X160262620Y-136228498D01*
X160152306Y-136287463D01*
X160055615Y-136366815D01*
X159976263Y-136463506D01*
X159917298Y-136573820D01*
X159880988Y-136693518D01*
X159868728Y-136818000D01*
X158775000Y-136818000D01*
X158775000Y-135039200D01*
X184642328Y-135039200D01*
X184645400Y-135553450D01*
X184804150Y-135712200D01*
X185953400Y-135712200D01*
X185953400Y-135692200D01*
X186207400Y-135692200D01*
X186207400Y-135712200D01*
X187356650Y-135712200D01*
X187515400Y-135553450D01*
X187518472Y-135039200D01*
X187506212Y-134914718D01*
X187469902Y-134795020D01*
X187410937Y-134684706D01*
X187331585Y-134588015D01*
X187234894Y-134508663D01*
X187124580Y-134449698D01*
X187028457Y-134420539D01*
X187195037Y-134253959D01*
X187352080Y-134018927D01*
X187460253Y-133757774D01*
X187515400Y-133480535D01*
X187515400Y-133197865D01*
X187460253Y-132920626D01*
X187352080Y-132659473D01*
X187195037Y-132424441D01*
X186995159Y-132224563D01*
X186760127Y-132067520D01*
X186498974Y-131959347D01*
X186221735Y-131904200D01*
X185939065Y-131904200D01*
X185661826Y-131959347D01*
X185400673Y-132067520D01*
X185165641Y-132224563D01*
X184965763Y-132424441D01*
X184808720Y-132659473D01*
X184700547Y-132920626D01*
X184645400Y-133197865D01*
X184645400Y-133480535D01*
X184700547Y-133757774D01*
X184808720Y-134018927D01*
X184965763Y-134253959D01*
X185132343Y-134420539D01*
X185036220Y-134449698D01*
X184925906Y-134508663D01*
X184829215Y-134588015D01*
X184749863Y-134684706D01*
X184690898Y-134795020D01*
X184654588Y-134914718D01*
X184642328Y-135039200D01*
X158775000Y-135039200D01*
X158775000Y-132206661D01*
X182505400Y-132206661D01*
X182505400Y-132410539D01*
X182545174Y-132610498D01*
X182623195Y-132798856D01*
X182736463Y-132968374D01*
X182880626Y-133112537D01*
X183050144Y-133225805D01*
X183238502Y-133303826D01*
X183438461Y-133343600D01*
X183642339Y-133343600D01*
X183842298Y-133303826D01*
X184030656Y-133225805D01*
X184200174Y-133112537D01*
X184344337Y-132968374D01*
X184457605Y-132798856D01*
X184535626Y-132610498D01*
X184575400Y-132410539D01*
X184575400Y-132206661D01*
X184535626Y-132006702D01*
X184457605Y-131818344D01*
X184344337Y-131648826D01*
X184200174Y-131504663D01*
X184030656Y-131391395D01*
X183842298Y-131313374D01*
X183642339Y-131273600D01*
X183438461Y-131273600D01*
X183238502Y-131313374D01*
X183050144Y-131391395D01*
X182880626Y-131504663D01*
X182736463Y-131648826D01*
X182623195Y-131818344D01*
X182545174Y-132006702D01*
X182505400Y-132206661D01*
X158775000Y-132206661D01*
X158775000Y-129217760D01*
X173547400Y-129217760D01*
X173547400Y-129382240D01*
X173579489Y-129543560D01*
X173642433Y-129695521D01*
X173733813Y-129832281D01*
X173850119Y-129948587D01*
X173986879Y-130039967D01*
X174138840Y-130102911D01*
X174300160Y-130135000D01*
X174464640Y-130135000D01*
X174625960Y-130102911D01*
X174777921Y-130039967D01*
X174914681Y-129948587D01*
X175030987Y-129832281D01*
X175122367Y-129695521D01*
X175185311Y-129543560D01*
X175217400Y-129382240D01*
X175217400Y-129217760D01*
X175185311Y-129056440D01*
X175122367Y-128904479D01*
X175030987Y-128767719D01*
X174914681Y-128651413D01*
X174777921Y-128560033D01*
X174625960Y-128497089D01*
X174464640Y-128465000D01*
X174300160Y-128465000D01*
X174138840Y-128497089D01*
X173986879Y-128560033D01*
X173850119Y-128651413D01*
X173733813Y-128767719D01*
X173642433Y-128904479D01*
X173579489Y-129056440D01*
X173547400Y-129217760D01*
X158775000Y-129217760D01*
X158775000Y-125704261D01*
X167697200Y-125704261D01*
X167697200Y-125908139D01*
X167736974Y-126108098D01*
X167814995Y-126296456D01*
X167928263Y-126465974D01*
X168072426Y-126610137D01*
X168241944Y-126723405D01*
X168430302Y-126801426D01*
X168630261Y-126841200D01*
X168834139Y-126841200D01*
X169034098Y-126801426D01*
X169222456Y-126723405D01*
X169391974Y-126610137D01*
X169536137Y-126465974D01*
X169649405Y-126296456D01*
X169727426Y-126108098D01*
X169767200Y-125908139D01*
X169767200Y-125704261D01*
X169727426Y-125504302D01*
X169649405Y-125315944D01*
X169536137Y-125146426D01*
X169391974Y-125002263D01*
X169222456Y-124888995D01*
X169034098Y-124810974D01*
X168834139Y-124771200D01*
X168630261Y-124771200D01*
X168430302Y-124810974D01*
X168241944Y-124888995D01*
X168072426Y-125002263D01*
X167928263Y-125146426D01*
X167814995Y-125315944D01*
X167736974Y-125504302D01*
X167697200Y-125704261D01*
X158775000Y-125704261D01*
X158775000Y-122227006D01*
X190348001Y-122324982D01*
X190348001Y-122324982D01*
G37*
X190348001Y-122324982D02*
X190348001Y-122898533D01*
X190295681Y-122846213D01*
X190158921Y-122754833D01*
X190006960Y-122691889D01*
X189845640Y-122659800D01*
X189681160Y-122659800D01*
X189519840Y-122691889D01*
X189367879Y-122754833D01*
X189231119Y-122846213D01*
X189114813Y-122962519D01*
X189023433Y-123099279D01*
X188960489Y-123251240D01*
X188928400Y-123412560D01*
X188928400Y-123577040D01*
X188960489Y-123738360D01*
X189023433Y-123890321D01*
X189114813Y-124027081D01*
X189231119Y-124143387D01*
X189367879Y-124234767D01*
X189519840Y-124297711D01*
X189681160Y-124329800D01*
X189845640Y-124329800D01*
X190006960Y-124297711D01*
X190158921Y-124234767D01*
X190295681Y-124143387D01*
X190348001Y-124091067D01*
X190348001Y-140285110D01*
X158775000Y-140309491D01*
X158775000Y-138518000D01*
X159868728Y-138518000D01*
X159880988Y-138642482D01*
X159917298Y-138762180D01*
X159976263Y-138872494D01*
X160055615Y-138969185D01*
X160152306Y-139048537D01*
X160262620Y-139107502D01*
X160382318Y-139143812D01*
X160506800Y-139156072D01*
X161071050Y-139153000D01*
X161229800Y-138994250D01*
X161229800Y-137795000D01*
X160030550Y-137795000D01*
X159871800Y-137953750D01*
X159868728Y-138518000D01*
X158775000Y-138518000D01*
X158775000Y-136818000D01*
X159868728Y-136818000D01*
X159871800Y-137382250D01*
X160030550Y-137541000D01*
X161229800Y-137541000D01*
X161229800Y-136341750D01*
X161483800Y-136341750D01*
X161483800Y-137541000D01*
X161503800Y-137541000D01*
X161503800Y-137795000D01*
X161483800Y-137795000D01*
X161483800Y-138994250D01*
X161642550Y-139153000D01*
X162206800Y-139156072D01*
X162331282Y-139143812D01*
X162450980Y-139107502D01*
X162561294Y-139048537D01*
X162657985Y-138969185D01*
X162737337Y-138872494D01*
X162796302Y-138762180D01*
X162817193Y-138693313D01*
X162841666Y-138723134D01*
X163067786Y-138908706D01*
X163325766Y-139046599D01*
X163605689Y-139131513D01*
X163823850Y-139153000D01*
X163969750Y-139153000D01*
X164040202Y-139146061D01*
X175286600Y-139146061D01*
X175286600Y-139349939D01*
X175326374Y-139549898D01*
X175404395Y-139738256D01*
X175517663Y-139907774D01*
X175661826Y-140051937D01*
X175831344Y-140165205D01*
X176019702Y-140243226D01*
X176219661Y-140283000D01*
X176423539Y-140283000D01*
X176623498Y-140243226D01*
X176811856Y-140165205D01*
X176981374Y-140051937D01*
X177125537Y-139907774D01*
X177238805Y-139738256D01*
X177316826Y-139549898D01*
X177356600Y-139349939D01*
X177356600Y-139146061D01*
X177316826Y-138946102D01*
X177238805Y-138757744D01*
X177125537Y-138588226D01*
X176981374Y-138444063D01*
X176811856Y-138330795D01*
X176623498Y-138252774D01*
X176423539Y-138213000D01*
X176219661Y-138213000D01*
X176019702Y-138252774D01*
X175831344Y-138330795D01*
X175661826Y-138444063D01*
X175517663Y-138588226D01*
X175404395Y-138757744D01*
X175326374Y-138946102D01*
X175286600Y-139146061D01*
X164040202Y-139146061D01*
X164187911Y-139131513D01*
X164467834Y-139046599D01*
X164725814Y-138908706D01*
X164951934Y-138723134D01*
X165137506Y-138497014D01*
X165275399Y-138239034D01*
X165360313Y-137959111D01*
X165388985Y-137668000D01*
X165360313Y-137376889D01*
X165275399Y-137096966D01*
X165137506Y-136838986D01*
X164973546Y-136639200D01*
X184642328Y-136639200D01*
X184654588Y-136763682D01*
X184690898Y-136883380D01*
X184749863Y-136993694D01*
X184829215Y-137090385D01*
X184925906Y-137169737D01*
X185036220Y-137228702D01*
X185155918Y-137265012D01*
X185280400Y-137277272D01*
X185794650Y-137274200D01*
X185953400Y-137115450D01*
X185953400Y-135966200D01*
X186207400Y-135966200D01*
X186207400Y-137115450D01*
X186366150Y-137274200D01*
X186880400Y-137277272D01*
X187004882Y-137265012D01*
X187124580Y-137228702D01*
X187234894Y-137169737D01*
X187331585Y-137090385D01*
X187410937Y-136993694D01*
X187469902Y-136883380D01*
X187506212Y-136763682D01*
X187518472Y-136639200D01*
X187515400Y-136124950D01*
X187356650Y-135966200D01*
X186207400Y-135966200D01*
X185953400Y-135966200D01*
X184804150Y-135966200D01*
X184645400Y-136124950D01*
X184642328Y-136639200D01*
X164973546Y-136639200D01*
X164951934Y-136612866D01*
X164725814Y-136427294D01*
X164467834Y-136289401D01*
X164187911Y-136204487D01*
X163969750Y-136183000D01*
X163823850Y-136183000D01*
X163605689Y-136204487D01*
X163325766Y-136289401D01*
X163067786Y-136427294D01*
X162841666Y-136612866D01*
X162817193Y-136642687D01*
X162796302Y-136573820D01*
X162737337Y-136463506D01*
X162657985Y-136366815D01*
X162561294Y-136287463D01*
X162450980Y-136228498D01*
X162331282Y-136192188D01*
X162206800Y-136179928D01*
X161642550Y-136183000D01*
X161483800Y-136341750D01*
X161229800Y-136341750D01*
X161071050Y-136183000D01*
X160506800Y-136179928D01*
X160382318Y-136192188D01*
X160262620Y-136228498D01*
X160152306Y-136287463D01*
X160055615Y-136366815D01*
X159976263Y-136463506D01*
X159917298Y-136573820D01*
X159880988Y-136693518D01*
X159868728Y-136818000D01*
X158775000Y-136818000D01*
X158775000Y-135039200D01*
X184642328Y-135039200D01*
X184645400Y-135553450D01*
X184804150Y-135712200D01*
X185953400Y-135712200D01*
X185953400Y-135692200D01*
X186207400Y-135692200D01*
X186207400Y-135712200D01*
X187356650Y-135712200D01*
X187515400Y-135553450D01*
X187518472Y-135039200D01*
X187506212Y-134914718D01*
X187469902Y-134795020D01*
X187410937Y-134684706D01*
X187331585Y-134588015D01*
X187234894Y-134508663D01*
X187124580Y-134449698D01*
X187028457Y-134420539D01*
X187195037Y-134253959D01*
X187352080Y-134018927D01*
X187460253Y-133757774D01*
X187515400Y-133480535D01*
X187515400Y-133197865D01*
X187460253Y-132920626D01*
X187352080Y-132659473D01*
X187195037Y-132424441D01*
X186995159Y-132224563D01*
X186760127Y-132067520D01*
X186498974Y-131959347D01*
X186221735Y-131904200D01*
X185939065Y-131904200D01*
X185661826Y-131959347D01*
X185400673Y-132067520D01*
X185165641Y-132224563D01*
X184965763Y-132424441D01*
X184808720Y-132659473D01*
X184700547Y-132920626D01*
X184645400Y-133197865D01*
X184645400Y-133480535D01*
X184700547Y-133757774D01*
X184808720Y-134018927D01*
X184965763Y-134253959D01*
X185132343Y-134420539D01*
X185036220Y-134449698D01*
X184925906Y-134508663D01*
X184829215Y-134588015D01*
X184749863Y-134684706D01*
X184690898Y-134795020D01*
X184654588Y-134914718D01*
X184642328Y-135039200D01*
X158775000Y-135039200D01*
X158775000Y-132206661D01*
X182505400Y-132206661D01*
X182505400Y-132410539D01*
X182545174Y-132610498D01*
X182623195Y-132798856D01*
X182736463Y-132968374D01*
X182880626Y-133112537D01*
X183050144Y-133225805D01*
X183238502Y-133303826D01*
X183438461Y-133343600D01*
X183642339Y-133343600D01*
X183842298Y-133303826D01*
X184030656Y-133225805D01*
X184200174Y-133112537D01*
X184344337Y-132968374D01*
X184457605Y-132798856D01*
X184535626Y-132610498D01*
X184575400Y-132410539D01*
X184575400Y-132206661D01*
X184535626Y-132006702D01*
X184457605Y-131818344D01*
X184344337Y-131648826D01*
X184200174Y-131504663D01*
X184030656Y-131391395D01*
X183842298Y-131313374D01*
X183642339Y-131273600D01*
X183438461Y-131273600D01*
X183238502Y-131313374D01*
X183050144Y-131391395D01*
X182880626Y-131504663D01*
X182736463Y-131648826D01*
X182623195Y-131818344D01*
X182545174Y-132006702D01*
X182505400Y-132206661D01*
X158775000Y-132206661D01*
X158775000Y-129217760D01*
X173547400Y-129217760D01*
X173547400Y-129382240D01*
X173579489Y-129543560D01*
X173642433Y-129695521D01*
X173733813Y-129832281D01*
X173850119Y-129948587D01*
X173986879Y-130039967D01*
X174138840Y-130102911D01*
X174300160Y-130135000D01*
X174464640Y-130135000D01*
X174625960Y-130102911D01*
X174777921Y-130039967D01*
X174914681Y-129948587D01*
X175030987Y-129832281D01*
X175122367Y-129695521D01*
X175185311Y-129543560D01*
X175217400Y-129382240D01*
X175217400Y-129217760D01*
X175185311Y-129056440D01*
X175122367Y-128904479D01*
X175030987Y-128767719D01*
X174914681Y-128651413D01*
X174777921Y-128560033D01*
X174625960Y-128497089D01*
X174464640Y-128465000D01*
X174300160Y-128465000D01*
X174138840Y-128497089D01*
X173986879Y-128560033D01*
X173850119Y-128651413D01*
X173733813Y-128767719D01*
X173642433Y-128904479D01*
X173579489Y-129056440D01*
X173547400Y-129217760D01*
X158775000Y-129217760D01*
X158775000Y-125704261D01*
X167697200Y-125704261D01*
X167697200Y-125908139D01*
X167736974Y-126108098D01*
X167814995Y-126296456D01*
X167928263Y-126465974D01*
X168072426Y-126610137D01*
X168241944Y-126723405D01*
X168430302Y-126801426D01*
X168630261Y-126841200D01*
X168834139Y-126841200D01*
X169034098Y-126801426D01*
X169222456Y-126723405D01*
X169391974Y-126610137D01*
X169536137Y-126465974D01*
X169649405Y-126296456D01*
X169727426Y-126108098D01*
X169767200Y-125908139D01*
X169767200Y-125704261D01*
X169727426Y-125504302D01*
X169649405Y-125315944D01*
X169536137Y-125146426D01*
X169391974Y-125002263D01*
X169222456Y-124888995D01*
X169034098Y-124810974D01*
X168834139Y-124771200D01*
X168630261Y-124771200D01*
X168430302Y-124810974D01*
X168241944Y-124888995D01*
X168072426Y-125002263D01*
X167928263Y-125146426D01*
X167814995Y-125315944D01*
X167736974Y-125504302D01*
X167697200Y-125704261D01*
X158775000Y-125704261D01*
X158775000Y-122227006D01*
X190348001Y-122324982D01*
M02*
